<svg width="64" height="64" viewBox="0 0 64 64" fill="none" xmlns="http://www.w3.org/2000/svg">
<g opacity="0.4">
<path d="M45.3333 10.6666V25.3333H18.6666V10.6666C18.6666 7.72107 21.0544 5.33325 24 5.33325H40C42.9455 5.33325 45.3333 7.72107 45.3333 10.6666Z" fill="#FBBA05"/>
</g>
<path fill-rule="evenodd" clip-rule="evenodd" d="M32 58.6667C43.782 58.6667 53.3333 49.1154 53.3333 37.3333C53.3333 25.5513 43.782 16 32 16C20.2179 16 10.6666 25.5513 10.6666 37.3333C10.6666 49.1154 20.2179 58.6667 32 58.6667ZM35.5817 31.1479L34.0983 28.0228C33.24 26.2146 30.76 26.2146 29.9016 28.0228L28.4182 31.1479C28.0774 31.866 27.4185 32.3637 26.6564 32.4788L23.3393 32.9799C21.42 33.2699 20.6537 35.7222 22.0425 37.1297L24.4427 39.5622C24.9942 40.1212 25.2459 40.9264 25.1157 41.7157L24.5491 45.1505C24.2212 47.1379 26.2276 48.6535 27.9442 47.7151L30.9111 46.0934C31.5928 45.7208 32.4072 45.7208 33.0888 46.0934L36.0557 47.7151C37.7723 48.6535 39.7787 47.1379 39.4509 45.1504L38.8842 41.7156C38.754 40.9264 39.0057 40.1212 39.5572 39.5622L41.9574 37.1297C43.3462 35.7222 42.5799 33.2699 40.6606 32.9799L37.3436 32.4788C36.5814 32.3637 35.9226 31.866 35.5817 31.1479Z" fill="#FBBA05"/>
</svg>
