<svg width="64" height="64" viewBox="0 0 64 64" fill="none" xmlns="http://www.w3.org/2000/svg">
<path fill-rule="evenodd" clip-rule="evenodd" d="M12.8 12.7999C12.8 9.26528 15.6654 6.3999 19.2 6.3999H33.8745C35.5719 6.3999 37.1998 7.07419 38.4 8.27442L49.3255 19.1999C50.5257 20.4001 51.2 22.028 51.2 23.7254V51.1999C51.2 54.7345 48.3346 57.5999 44.8 57.5999H19.2C15.6654 57.5999 12.8 54.7345 12.8 51.1999V12.7999ZM19.2 31.9999C19.2 30.2326 20.6327 28.7999 22.4 28.7999H41.6C43.3673 28.7999 44.8 30.2326 44.8 31.9999C44.8 33.7672 43.3673 35.1999 41.6 35.1999H22.4C20.6327 35.1999 19.2 33.7672 19.2 31.9999ZM22.4 41.5999C20.6327 41.5999 19.2 43.0326 19.2 44.7999C19.2 46.5672 20.6327 47.9999 22.4 47.9999H41.6C43.3673 47.9999 44.8 46.5672 44.8 44.7999C44.8 43.0326 43.3673 41.5999 41.6 41.5999H22.4Z" fill="#FBBA05"/>
</svg>
