<svg width="64" height="64" viewBox="0 0 64 64" fill="none" xmlns="http://www.w3.org/2000/svg">
<path fill-rule="evenodd" clip-rule="evenodd" d="M16 7.33301C16 6.22844 16.8955 5.33301 18 5.33301H46C47.1046 5.33301 48 6.22844 48 7.33301V35.333C48 36.4376 47.1046 37.333 46 37.333H18C16.8955 37.333 16 36.4376 16 35.333V7.33301ZM35.4167 13.333C35.4167 13.7472 35.0809 14.083 34.6667 14.083H29.3334C28.9192 14.083 28.5834 13.7472 28.5834 13.333C28.5834 12.9188 28.9192 12.583 29.3334 12.583H34.6667C35.0809 12.583 35.4167 12.9188 35.4167 13.333ZM10.3578 38.1741L14.4909 42.2088C16.5401 44.2092 19.3194 45.333 22.2173 45.333H45.9456C48.8436 45.333 51.6228 46.4568 53.672 48.4572L57.5352 52.2284C58.2597 52.9357 58.6667 53.8949 58.6667 54.8951C58.6667 56.9779 56.9371 58.6663 54.8035 58.6663H19.8002C15.2454 58.6663 11.1684 55.9082 9.56914 51.745L5.52334 41.213C4.80216 39.3356 6.22383 37.333 8.27775 37.333C9.05794 37.333 9.80617 37.6356 10.3578 38.1741Z" fill="#FBBA05"/>
</svg>
