<svg width="357" height="33" viewBox="0 0 357 33" fill="none" xmlns="http://www.w3.org/2000/svg">
<path d="M8.96973 25C153.045 -8.22343 204.91 -5.75273 349.03 25" stroke="#CBD5E1" stroke-dasharray="2 2"/>
<path d="M9.96699 31.5C14.1039 31.5 17.4505 28.1382 17.4505 24C17.4505 19.8618 14.1039 16.5 9.96699 16.5C5.83009 16.5 2.48352 19.8618 2.48352 24C2.48352 28.1382 5.83009 31.5 9.96699 31.5Z" fill="#F1F5F9" stroke="white" stroke-width="3"/>
<path d="M347.036 31.5C351.173 31.5 354.519 28.1382 354.519 24C354.519 19.8618 351.173 16.5 347.036 16.5C342.899 16.5 339.552 19.8618 339.552 24C339.552 28.1382 342.899 31.5 347.036 31.5Z" fill="#F1F5F9" stroke="white" stroke-width="3"/>
<g clip-path="url(#clip0_3012_1165)">
<path d="M43.286 11.8758L39.7918 13.3483L39.4553 15.6987L38.8313 15.9616L36.2092 9.70465L36.8331 9.44171L38.7429 10.8455L42.2372 9.37303L38.6419 4.99852L39.8898 4.47264L44.9826 8.21608L48.2273 6.84879C48.5583 6.70932 48.9309 6.7074 49.2633 6.84346C49.5957 6.97952 49.8606 7.24241 49.9997 7.5743C50.1388 7.90619 50.1407 8.27989 50.005 8.61319C49.8693 8.94649 49.6071 9.2121 49.2762 9.35157L46.0315 10.7189L45.1342 16.9865L43.8862 17.5124L43.286 11.8758Z" fill="#94A3B8"/>
</g>
<g clip-path="url(#clip1_3012_1165)">
<path d="M313.204 12.3706L317.208 13.4462L317.92 15.9425L318.635 16.1345L320.55 8.96623L319.835 8.77416L317.974 10.5789L313.971 9.5033L317.219 4.22963L315.789 3.84549L310.825 8.65818L307.108 7.65939C306.729 7.55751 306.325 7.61084 305.985 7.80767C305.645 8.00449 305.397 8.32867 305.295 8.7089C305.194 9.08913 305.247 9.49426 305.443 9.83517C305.639 10.1761 305.963 10.4248 306.342 10.5267L310.059 11.5255L311.958 18.1821L313.388 18.5662L313.204 12.3706Z" fill="#94A3B8"/>
</g>
<defs>
<clipPath id="clip0_3012_1165">
<rect width="13.5422" height="13.5684" fill="white" transform="matrix(0.921521 -0.388329 0.386512 0.922284 34.8981 6.57617)"/>
</clipPath>
<clipPath id="clip1_3012_1165">
<rect width="14.8042" height="14.8396" fill="white" transform="matrix(-0.965747 -0.259486 -0.258154 0.966104 321.508 5.38208)"/>
</clipPath>
</defs>
</svg>
