<svg width="64" height="64" viewBox="0 0 64 64" fill="none" xmlns="http://www.w3.org/2000/svg">
<path d="M38.4292 16.9072V11.748C38.4292 8.19719 35.5507 5.31873 31.9999 5.31873C28.4492 5.31873 25.5707 8.19719 25.5707 11.748V16.9072C25.5707 18.8013 24.566 20.5534 22.9312 21.5102L9.89116 29.1418C7.54368 30.5156 8.51814 34.1099 11.2381 34.1099H23.3022C24.7749 34.1099 25.9688 35.3038 25.9688 36.7766V43.3805C25.9688 45.142 25.3874 46.8543 24.3148 48.2517L19.5818 54.4176C18.7125 55.5501 18.8966 57.1677 19.9982 58.0759C20.7462 58.6926 21.7712 58.8516 22.6708 58.4906L29.969 55.4966C31.2649 54.965 32.718 54.9645 34.0143 55.4953L41.329 58.4906C42.2287 58.8516 43.2537 58.6926 44.0017 58.0759C45.1033 57.1677 45.2874 55.5501 44.418 54.4176L39.6851 48.2517C38.6125 46.8543 38.0311 45.142 38.0311 43.3805V36.7766C38.0311 35.3038 39.225 34.1099 40.6977 34.1099H52.7618C55.4817 34.1099 56.4562 30.5156 54.1087 29.1418L41.0686 21.5102C39.4338 20.5534 38.4292 18.8013 38.4292 16.9072Z" fill="#FBBA05"/>
</svg>
