<svg width="356" height="33" viewBox="0 0 356 33" fill="none" xmlns="http://www.w3.org/2000/svg">
<path d="M7 24.8174C79.2365 -8.15324 105.241 -5.70135 177.5 24.8174" stroke="#CBD5E1" stroke-dasharray="2 2"/>
<path d="M178 24.8174C250.237 -8.15324 276.241 -5.70135 348.5 24.8174" stroke="#CBD5E1" stroke-dasharray="2 2"/>
<circle cx="9" cy="24" r="7.5" fill="#F1F5F9" stroke="white" stroke-width="3"/>
<circle cx="178" cy="24" r="7.5" fill="#F1F5F9" stroke="white" stroke-width="3"/>
<circle cx="347" cy="24" r="7.5" fill="#F1F5F9" stroke="white" stroke-width="3"/>
<g clip-path="url(#clip0_458_2695)">
<path d="M42.4111 11.8758L38.9072 13.3483L38.5698 15.6987L37.9441 15.9616L35.3147 9.70465L35.9404 9.44171L37.8555 10.8455L41.3594 9.37303L37.7542 4.99852L39.0056 4.47264L44.1124 8.21608L47.366 6.84879C47.6979 6.70932 48.0716 6.7074 48.4049 6.84346C48.7382 6.97952 49.0038 7.24241 49.1433 7.5743C49.2828 7.90619 49.2847 8.27989 49.1486 8.61319C49.0126 8.94649 48.7497 9.2121 48.4178 9.35157L45.1642 10.7189L44.2644 16.9865L43.013 17.5124L42.4111 11.8758Z" fill="#94A3B8"/>
</g>
<g clip-path="url(#clip1_458_2695)">
<path d="M313.075 12.3706L317.089 13.4462L317.803 15.9425L318.52 16.1345L320.441 8.96623L319.724 8.77416L317.858 10.5789L313.843 9.5033L317.1 4.22964L315.667 3.84549L310.689 8.65818L306.962 7.65939C306.582 7.55751 306.176 7.61084 305.836 7.80767C305.495 8.00449 305.246 8.32867 305.144 8.7089C305.042 9.08913 305.095 9.49426 305.292 9.83517C305.489 10.1761 305.813 10.4248 306.194 10.5267L309.921 11.5255L311.825 18.1821L313.259 18.5662L313.075 12.3706Z" fill="#94A3B8"/>
</g>
<defs>
<clipPath id="clip0_458_2695">
<rect width="13.574" height="13.574" fill="white" transform="translate(34 6.57617) rotate(-22.794)"/>
</clipPath>
<clipPath id="clip1_458_2695">
<rect width="14.8424" height="14.8424" fill="white" transform="matrix(-0.965926 -0.258819 -0.258819 0.965926 321.401 5.38208)"/>
</clipPath>
</defs>
</svg>
