<svg width="50" height="50" viewBox="0 0 50 50" fill="none" xmlns="http://www.w3.org/2000/svg">
<g clip-path="url(#clip0_606_1394)">
<path d="M30.2804 31.1135V16.0873C30.2804 15.5001 30.0471 14.9369 29.6319 14.5216C29.2166 14.1063 28.6534 13.873 28.0661 13.873H13.7685C13.1812 13.873 12.618 14.1063 12.2027 14.5216C11.7875 14.9369 11.5542 15.5001 11.5542 16.0873V30.7592C11.5542 31.3465 11.7875 31.9097 12.2027 32.3249C12.618 32.7402 13.1812 32.9735 13.7685 32.9735H15.4292M39.4453 24.3533H30.2826M36.4649 32.5594H37.2288C37.8161 32.5594 38.3793 32.3261 38.7946 31.9109C39.2098 31.4956 39.4431 30.9324 39.4431 30.3451V23.7023L36.3586 17.3849C36.1764 17.0129 35.8934 16.6995 35.5419 16.4803C35.1904 16.2611 34.7844 16.1449 34.3702 16.1449H30.679" stroke="#64748B" stroke-width="2.25" stroke-linecap="round" stroke-linejoin="round"/>
<path d="M28.9918 32.9734H22.4885M15.54 33.0399C15.54 33.8597 15.8657 34.6459 16.4454 35.2256C17.0251 35.8053 17.8114 36.131 18.6312 36.131C19.451 36.131 20.2372 35.8053 20.8169 35.2256C21.3967 34.6459 21.7223 33.8597 21.7223 33.0399C21.7223 32.2201 21.3967 31.4338 20.8169 30.8541C20.2372 30.2744 19.451 29.9487 18.6312 29.9487C17.8114 29.9487 17.0251 30.2744 16.4454 30.8541C15.8657 31.4338 15.54 32.2201 15.54 33.0399ZM29.572 33.0399C29.572 33.4458 29.6519 33.8478 29.8073 34.2228C29.9626 34.5978 30.1903 34.9386 30.4773 35.2256C30.7644 35.5127 31.1051 35.7404 31.4802 35.8957C31.8552 36.0511 32.2572 36.131 32.6631 36.131C33.069 36.131 33.471 36.0511 33.846 35.8957C34.2211 35.7404 34.5618 35.5127 34.8489 35.2256C35.1359 34.9386 35.3636 34.5978 35.519 34.2228C35.6743 33.8478 35.7543 33.4458 35.7543 33.0399C35.7543 32.6339 35.6743 32.232 35.519 31.8569C35.3636 31.4819 35.1359 31.1411 34.8489 30.8541C34.5618 30.5671 34.2211 30.3394 33.846 30.184C33.471 30.0287 33.069 29.9487 32.6631 29.9487C32.2572 29.9487 31.8552 30.0287 31.4802 30.184C31.1051 30.3394 30.7644 30.5671 30.4773 30.8541C30.1903 31.1411 29.9626 31.4819 29.8073 31.8569C29.6519 32.232 29.572 32.6339 29.572 33.0399Z" stroke="#64748B" stroke-width="2.25" stroke-linecap="round" stroke-linejoin="round"/>
</g>
<defs>
<clipPath id="clip0_606_1394">
<rect width="50" height="50" fill="white"/>
</clipPath>
</defs>
</svg>
