<svg width="50" height="50" viewBox="0 0 50 50" fill="none" xmlns="http://www.w3.org/2000/svg">
<g clip-path="url(#clip0_606_1403)">
<g clip-path="url(#clip1_606_1403)">
<path d="M22.2141 26.9644H28.7856M25.4999 23.6787V30.2501M30.4284 18.7501V15.4644C30.4284 15.0287 30.2553 14.6108 29.9473 14.3027C29.6392 13.9946 29.2213 13.8215 28.7856 13.8215H22.2141C21.7784 13.8215 21.3606 13.9946 21.0525 14.3027C20.7444 14.6108 20.5713 15.0287 20.5713 15.4644V18.7501M34.5356 18.7501H16.4641C16.0284 18.7501 15.6106 18.9232 15.3025 19.2313C14.9944 19.5394 14.8213 19.9572 14.8213 20.393V33.5358C14.8213 33.9715 14.9944 34.3894 15.3025 34.6975C15.6106 35.0056 16.0284 35.1787 16.4641 35.1787H34.5356C34.9713 35.1787 35.3892 35.0056 35.6973 34.6975C36.0053 34.3894 36.1784 33.9715 36.1784 33.5358V20.393C36.1784 19.9572 36.0053 19.5394 35.6973 19.2313C35.3892 18.9232 34.9713 18.7501 34.5356 18.7501Z" stroke="#64748B" stroke-width="2.25" stroke-linecap="round" stroke-linejoin="round"/>
</g>
</g>
<defs>
<clipPath id="clip0_606_1403">
<rect width="50" height="50" fill="white"/>
</clipPath>
<clipPath id="clip1_606_1403">
<rect width="23" height="23" fill="white" transform="translate(14 13)"/>
</clipPath>
</defs>
</svg>
