<svg width="50" height="50" viewBox="0 0 50 50" fill="none" xmlns="http://www.w3.org/2000/svg">
<g clip-path="url(#clip0_606_1385)">
<path d="M31.3125 17.9609C31.0501 17.9609 30.8231 17.8651 30.6313 17.6733C30.4396 17.4816 30.3438 17.2546 30.3438 16.9922C30.3438 16.4775 30.4396 15.9831 30.6313 15.5088C30.8231 15.0345 31.1056 14.6157 31.479 14.2524L32.6748 13.0415C33.0583 12.658 33.25 12.1989 33.25 11.6641C33.25 11.4017 33.3459 11.1746 33.5376 10.9829C33.7293 10.7912 33.9564 10.6953 34.2188 10.6953C34.4811 10.6953 34.7082 10.7912 34.8999 10.9829C35.0916 11.1746 35.1875 11.4017 35.1875 11.6641C35.1875 12.1787 35.0916 12.6732 34.8999 13.1475C34.7082 13.6217 34.4256 14.0405 34.0522 14.4038L32.8564 15.6147C32.473 15.9982 32.2812 16.4574 32.2812 16.9922C32.2812 17.2546 32.1854 17.4816 31.9937 17.6733C31.8019 17.8651 31.5749 17.9609 31.3125 17.9609ZM25.5 17.9609C25.2376 17.9609 25.0106 17.8651 24.8188 17.6733C24.6271 17.4816 24.5312 17.2546 24.5312 16.9922C24.5312 16.4775 24.6271 15.9831 24.8188 15.5088C25.0106 15.0345 25.2931 14.6157 25.6665 14.2524L26.8623 13.0415C27.2458 12.658 27.4375 12.1989 27.4375 11.6641C27.4375 11.4017 27.5334 11.1746 27.7251 10.9829C27.9168 10.7912 28.1439 10.6953 28.4062 10.6953C28.6686 10.6953 28.8957 10.7912 29.0874 10.9829C29.2791 11.1746 29.375 11.4017 29.375 11.6641C29.375 12.1787 29.2791 12.6732 29.0874 13.1475C28.8957 13.6217 28.6131 14.0405 28.2397 14.4038L27.0439 15.6147C26.6605 15.9982 26.4688 16.4574 26.4688 16.9922C26.4688 17.2546 26.3729 17.4816 26.1812 17.6733C25.9894 17.8651 25.7624 17.9609 25.5 17.9609ZM38.0938 20.625C38.4974 20.625 38.8758 20.7007 39.229 20.8521C39.5822 21.0034 39.89 21.2103 40.1523 21.4727C40.4147 21.735 40.6216 22.0428 40.7729 22.396C40.9243 22.7492 41 23.1276 41 23.5312V29.3438C41 29.7474 40.9243 30.1258 40.7729 30.479C40.6216 30.8322 40.4147 31.14 40.1523 31.4023C39.89 31.6647 39.5822 31.8716 39.229 32.0229C38.8758 32.1743 38.4974 32.25 38.0938 32.25H37.231C37.2108 32.3206 37.1956 32.3862 37.1855 32.4468C37.1755 32.5073 37.1553 32.5679 37.125 32.6284V33.2188C37.125 33.8848 36.9989 34.5104 36.7466 35.0957C36.4943 35.681 36.1462 36.1956 35.7021 36.6396C35.2581 37.0837 34.7435 37.4318 34.1582 37.6841C33.5729 37.9364 32.9473 38.0625 32.2812 38.0625H26.4688C25.6816 38.0625 24.9551 37.8859 24.2891 37.5327C23.623 37.1795 23.068 36.7103 22.624 36.125H15.0557C14.3896 36.125 13.764 35.9989 13.1787 35.7466C12.5934 35.4943 12.0788 35.1512 11.6348 34.7173C11.1908 34.2834 10.8426 33.7687 10.5903 33.1733C10.3381 32.578 10.2119 31.9473 10.2119 31.2812V30.3125H14.0869C14.0869 29.5153 14.2383 28.7635 14.541 28.0571C14.8438 27.3507 15.2625 26.7352 15.7974 26.2104C16.3322 25.6857 16.9478 25.2669 17.644 24.9541C18.3403 24.6413 19.0921 24.4899 19.8994 24.5C20.2021 24.5 20.4948 24.5252 20.7773 24.5757C21.0599 24.6261 21.3424 24.6968 21.625 24.7876V18.6875H37.125V20.625H38.0938ZM19.8994 26.4375C19.3646 26.4375 18.8651 26.5384 18.4009 26.7402C17.9367 26.9421 17.5229 27.2196 17.1597 27.5728C16.7964 27.9259 16.5189 28.3346 16.3271 28.7988C16.1354 29.263 16.0345 29.7676 16.0244 30.3125H21.625V26.8613C21.3626 26.7301 21.0902 26.6292 20.8076 26.5586C20.5251 26.488 20.2223 26.4476 19.8994 26.4375ZM15.0557 34.1875H21.731C21.6603 33.8949 21.625 33.5719 21.625 33.2188V32.25H12.3159C12.4168 32.5326 12.5581 32.7899 12.7397 33.022C12.9214 33.2541 13.1283 33.4609 13.3604 33.6426C13.5924 33.8242 13.8548 33.9554 14.1475 34.0361C14.4401 34.1169 14.7428 34.1673 15.0557 34.1875ZM22.064 35.2017V35.2168L22.0791 35.2471V35.2319L22.064 35.2017ZM35.1875 33.2188V20.625H23.5625V33.2188C23.5625 33.6224 23.6382 34.0008 23.7896 34.354C23.9409 34.7072 24.1478 35.015 24.4102 35.2773C24.6725 35.5397 24.9803 35.7466 25.3335 35.8979C25.6867 36.0493 26.0651 36.125 26.4688 36.125H32.2812C32.6849 36.125 33.0633 36.0493 33.4165 35.8979C33.7697 35.7466 34.0775 35.5397 34.3398 35.2773C34.6022 35.015 34.8091 34.7072 34.9604 34.354C35.1118 34.0008 35.1875 33.6224 35.1875 33.2188ZM39.0625 29.3438V23.5312C39.0625 23.2689 38.9666 23.0418 38.7749 22.8501C38.5832 22.6584 38.3561 22.5625 38.0938 22.5625H37.125V30.3125H38.0938C38.3561 30.3125 38.5832 30.2166 38.7749 30.0249C38.9666 29.8332 39.0625 29.6061 39.0625 29.3438Z" fill="#64748B"/>
</g>
<defs>
<clipPath id="clip0_606_1385">
<rect width="50" height="50" fill="white"/>
</clipPath>
</defs>
</svg>
