<svg width="50" height="50" viewBox="0 0 50 50" fill="none" xmlns="http://www.w3.org/2000/svg">
<g clip-path="url(#clip0_606_1371)">
<path d="M42.971 16.3352C42.8935 15.8569 42.6682 15.4127 42.3249 15.0616C41.9816 14.7106 41.5366 14.4692 41.0489 14.3695L35.1104 13.1016C34.4736 12.9666 33.8144 12.9661 33.1773 13.1001C32.5403 13.234 31.9403 13.4993 31.4179 13.878L13.8656 26.3014L8.94899 26.1048C8.55376 26.0911 8.16411 26.1987 7.83539 26.4123C7.50668 26.626 7.25561 26.9348 7.11785 27.295C6.98008 27.6551 6.96263 28.0483 7.06797 28.4187C7.17332 28.789 7.39609 29.1177 7.70466 29.3581L12.7629 33.2207C13.3699 33.9382 13.7746 33.8006 23.8203 28.4833L24.7612 37.7419C24.7768 37.9944 24.866 38.2375 25.0182 38.4428C25.1704 38.6481 25.3795 38.8072 25.6211 38.9016C25.795 38.9684 25.9805 39.0018 26.1674 38.9999C26.5436 38.9888 26.903 38.8456 27.179 38.597L29.5969 36.4543C29.8377 36.2376 30.0007 35.9518 30.0623 35.6385L32.2778 23.9425C35.8894 21.9768 39.3088 20.129 41.7469 18.7825C42.1831 18.5441 42.534 18.1821 42.7528 17.7448C42.9715 17.3074 43.0476 16.8157 42.971 16.3352ZM40.7454 17.0723C38.2162 18.468 34.6754 20.4239 30.8716 22.4486L30.4568 22.6746L28.0997 35.1275L26.6125 36.4445L25.4997 25.3382L24.1542 26.0065C16.9006 29.938 14.4828 31.0781 13.6532 31.4319L9.30307 28.0804L14.4423 28.2966L32.6521 15.4604C32.9383 15.2525 33.2665 15.1057 33.6152 15.0295C33.9638 14.9533 34.3251 14.9494 34.6754 15.0182L40.5936 16.2566C40.6848 16.2726 40.7683 16.3166 40.832 16.382C40.8957 16.4474 40.9363 16.5309 40.9477 16.6202C40.9685 16.7067 40.9601 16.7974 40.9236 16.8788C40.8872 16.9603 40.8247 17.0281 40.7454 17.0723Z" fill="#64748B"/>
<path d="M13.9799 20.053L17.6225 21L19.3006 19.8731L15.2077 18.7746L17.0495 17.733L22.6466 17.5814L25 16L17.0495 16.2273C16.7989 16.2147 16.5498 16.2707 16.3333 16.3883L13.6422 17.8371C13.4197 17.9591 13.2412 18.1393 13.1292 18.355C13.0172 18.5707 12.9767 18.8123 13.0128 19.0493C13.0489 19.2862 13.16 19.508 13.3321 19.6866C13.5042 19.8653 13.7296 19.9928 13.9799 20.053Z" fill="#64748B"/>
</g>
<defs>
<clipPath id="clip0_606_1371">
<rect width="50" height="50" fill="white"/>
</clipPath>
</defs>
</svg>
