<svg width="28" height="28" viewBox="0 0 28 28" fill="none" xmlns="http://www.w3.org/2000/svg">
<path opacity="0.4" d="M22 0.666504H5.99996C3.05444 0.666504 0.666626 3.05432 0.666626 5.99984V21.9998C0.666626 24.9454 3.05444 27.3332 5.99996 27.3332H22C24.9455 27.3332 27.3333 24.9454 27.3333 21.9998V5.99984C27.3333 3.05432 24.9455 0.666504 22 0.666504Z" fill="white"/>
<path d="M20.6666 7.33301H17.3333C14.3877 7.33301 11.9999 9.72082 11.9999 12.6663V15.333H7.33325V19.333H11.9999V27.333H15.9999V19.333H20.6666V15.333H15.9999V12.6663C15.9999 11.93 16.5969 11.333 17.3333 11.333H20.6666V7.33301Z" fill="white"/>
</svg>
