<svg width="357" height="33" viewBox="0 0 357 33" fill="none" xmlns="http://www.w3.org/2000/svg">
<path d="M8.96973 25C153.045 -8.22343 204.91 -5.75273 349.03 25" stroke="#64748B" stroke-dasharray="2 2"/>
<path d="M9.96687 31.5C14.1038 31.5 17.4503 28.1382 17.4503 24C17.4503 19.8618 14.1038 16.5 9.96687 16.5C5.82996 16.5 2.4834 19.8618 2.4834 24C2.4834 28.1382 5.82996 31.5 9.96687 31.5Z" fill="#64748B" stroke="#F8FAFC" stroke-width="3"/>
<path d="M347.036 31.5C351.173 31.5 354.519 28.1382 354.519 24C354.519 19.8618 351.173 16.5 347.036 16.5C342.899 16.5 339.552 19.8618 339.552 24C339.552 28.1382 342.899 31.5 347.036 31.5Z" fill="#64748B" stroke="#F8FAFC" stroke-width="3"/>
<g clip-path="url(#clip0_687_4604)">
<path d="M43.2859 18.5584L39.7917 20.0309L39.4552 22.3813L38.8312 22.6442L36.209 16.3873L36.833 16.1243L38.7428 17.5281L42.237 16.0556L38.6418 11.6811L39.8897 11.1553L44.9825 14.8987L48.2272 13.5314C48.5581 13.3919 48.9308 13.39 49.2632 13.5261C49.5956 13.6621 49.8605 13.925 49.9995 14.2569C50.1386 14.5888 50.1405 14.9625 50.0049 15.2958C49.8692 15.6291 49.607 15.8947 49.276 16.0342L46.0314 17.4015L45.1341 23.6692L43.8861 24.195L43.2859 18.5584Z" fill="#64748B"/>
</g>
<g clip-path="url(#clip1_687_4604)">
<path d="M313.204 18.8301L317.208 19.9057L317.92 22.4019L318.635 22.594L320.55 15.4257L319.835 15.2336L317.974 17.0384L313.971 15.9628L317.219 10.6891L315.789 10.305L310.825 15.1176L307.108 14.1189C306.729 14.017 306.325 14.0703 305.985 14.2671C305.645 14.464 305.397 14.7881 305.295 15.1684C305.194 15.5486 305.247 15.9537 305.443 16.2946C305.639 16.6355 305.963 16.8843 306.342 16.9862L310.059 17.985L311.958 24.6416L313.388 25.0257L313.204 18.8301Z" fill="#64748B"/>
</g>
<defs>
<clipPath id="clip0_687_4604">
<rect width="13.5422" height="13.5684" fill="white" transform="matrix(0.921521 -0.388329 0.386512 0.922284 34.8979 13.2588)"/>
</clipPath>
<clipPath id="clip1_687_4604">
<rect width="14.8042" height="14.8396" fill="white" transform="matrix(-0.965747 -0.259486 -0.258154 0.966104 321.508 11.8416)"/>
</clipPath>
</defs>
</svg>
