<svg width="28" height="28" viewBox="0 0 28 28" fill="none" xmlns="http://www.w3.org/2000/svg">
<path opacity="0.4" d="M22 0.666626H5.99996C3.05444 0.666626 0.666626 3.05444 0.666626 5.99996V22C0.666626 24.9455 3.05444 27.3333 5.99996 27.3333H22C24.9455 27.3333 27.3333 24.9455 27.3333 22V5.99996C27.3333 3.05444 24.9455 0.666626 22 0.666626Z" fill="#64748B"/>
<path d="M20.6666 7.33325H17.3333C14.3877 7.33325 11.9999 9.72107 11.9999 12.6666V15.3333H7.33325V19.3333H11.9999V27.3333H15.9999V19.3333H20.6666V15.3333H15.9999V12.6666C15.9999 11.9302 16.5969 11.3333 17.3333 11.3333H20.6666V7.33325Z" fill="#64748B"/>
</svg>
