<svg width="28" height="28" viewBox="0 0 28 28" fill="none" xmlns="http://www.w3.org/2000/svg">
<path opacity="0.4" d="M0.666626 6.00002C0.666626 3.0545 3.05444 0.666687 5.99996 0.666687H22C24.9455 0.666687 27.3333 3.0545 27.3333 6.00002V22C27.3333 24.9455 24.9455 27.3334 22 27.3334H5.99996C3.05444 27.3334 0.666626 24.9455 0.666626 22V6.00002Z" fill="#64748B"/>
<ellipse cx="22" cy="6.00002" rx="1.33333" ry="1.33333" fill="#64748B"/>
<path fill-rule="evenodd" clip-rule="evenodd" d="M13.9999 20.6667C17.6818 20.6667 20.6666 17.6819 20.6666 14C20.6666 10.3181 17.6818 7.33337 13.9999 7.33337C10.318 7.33337 7.33325 10.3181 7.33325 14C7.33325 17.6819 10.318 20.6667 13.9999 20.6667ZM13.9999 18C16.2091 18 17.9999 16.2092 17.9999 14C17.9999 11.7909 16.2091 10 13.9999 10C11.7908 10 9.99992 11.7909 9.99992 14C9.99992 16.2092 11.7908 18 13.9999 18Z" fill="#64748B"/>
</svg>
