<svg width="24" height="21" viewBox="0 0 24 21" fill="none" xmlns="http://www.w3.org/2000/svg">
<g opacity="0.4">
<path d="M0.86198 9.3954L21.3802 0.527916C22.3451 0.110912 23.3906 0.922357 23.2261 1.96055L20.4207 19.6619C20.2474 20.7552 18.8942 21.1734 18.1342 20.3684L13.5303 15.4917C12.6275 14.5354 12.5567 13.0636 13.3637 12.025L16.6143 7.84136C16.8002 7.60219 16.5067 7.28756 16.2552 7.45629L9.79212 11.7921C8.69535 12.5278 7.36459 12.8305 6.05749 12.6414L1.20008 11.9389C-0.130572 11.7465 -0.372188 9.92878 0.86198 9.3954Z" fill="#64748B"/>
</g>
<path fill-rule="evenodd" clip-rule="evenodd" d="M22.8814 0.838876L16.5321 7.44303C16.453 7.39788 16.351 7.392 16.2552 7.45629L9.79212 11.7921C8.69535 12.5278 7.36459 12.8305 6.05749 12.6414L1.20008 11.9389C-0.130572 11.7465 -0.372188 9.92878 0.86198 9.3954L21.3802 0.527916C21.9361 0.287667 22.5188 0.455173 22.8814 0.838876Z" fill="#64748B"/>
</svg>
