<svg width="191" height="37" viewBox="0 0 191 37" fill="none" xmlns="http://www.w3.org/2000/svg">
<path fill-rule="evenodd" clip-rule="evenodd" d="M92.9286 23.9265L97.2128 23.7696L93.1677 23.668C93.057 23.7542 92.9866 23.8291 92.9286 23.9265Z" fill="white" stroke="white" stroke-width="0.755906" stroke-miterlimit="22.9256"/>
<path fill-rule="evenodd" clip-rule="evenodd" d="M95.0592 20.5071L96.4448 20.5843L94.7562 20.6158L95.0592 20.5071Z" fill="white" stroke="white" stroke-width="0.755906" stroke-miterlimit="22.9256"/>
<path d="M21.2758 33.6293C21.2758 33.7464 21.145 33.8076 20.8888 33.8076C20.6871 33.8076 20.3927 33.7923 20.0057 33.7617C19.6186 33.7311 19.3188 33.7158 19.1171 33.7158C18.9155 33.7158 18.6102 33.7311 18.2068 33.7617C17.8034 33.7923 17.4982 33.8076 17.2965 33.8076C17.0021 33.8076 16.6205 33.0536 16.1572 31.5457C15.6938 30.0378 15.2196 29.2737 14.7399 29.2533C14.3474 29.238 13.3226 29.2278 11.66 29.2278H9.13611C7.38085 29.2278 6.37783 29.238 6.13252 29.2533C5.75094 29.2839 5.34211 30.0531 4.91147 31.5559C4.48083 33.0587 4.14831 33.8076 3.91391 33.8076H0.321613C0.109027 33.8076 0 33.7362 0 33.5987C0 33.4968 0.0763087 33.2777 0.223499 32.9262L4.13741 22.9262C4.46994 22.1213 5.46749 19.7983 7.14099 15.9573C7.4408 15.3205 7.84419 14.3628 8.3566 13.079C8.48197 12.6969 8.61825 12.5085 8.77088 12.5085C8.97258 12.5085 9.27238 12.5339 9.66488 12.5849C10.0574 12.6358 10.3572 12.6613 10.5589 12.6613C10.7497 12.6613 11.0386 12.6307 11.431 12.5798C11.8181 12.5237 12.1015 12.4932 12.2814 12.4932C12.3795 12.4932 12.5104 12.6817 12.6848 13.0484C12.9356 13.6037 14.2002 16.6042 16.4679 22.0449C19.6732 29.6965 21.2758 33.5579 21.2758 33.6293ZM13.8295 25.3918C13.8295 25.1015 13.3553 23.8075 12.3959 21.51C11.4692 19.2787 10.8151 17.8167 10.428 17.1239C8.22577 22.376 7.12463 25.1269 7.12463 25.3765C7.12463 25.7128 7.52802 25.9115 8.34024 25.9726C8.37841 25.9828 8.90171 25.9879 9.90472 25.9879H11.551C13.0718 25.9879 13.8295 25.7892 13.8295 25.3918Z" fill="white"/>
<path d="M70.3395 33.3346C70.3395 33.4503 70.2103 33.5107 69.9573 33.5107C69.7581 33.5107 69.4674 33.4956 69.0851 33.4654C68.7029 33.4352 68.4068 33.4201 68.2076 33.4201C68.0084 33.4201 67.7069 33.4352 67.3085 33.4654C66.9101 33.4956 66.6086 33.5107 66.4094 33.5107C66.1187 33.5107 65.7418 32.766 65.2842 31.2768C64.8266 29.7876 64.3582 29.0329 63.8844 29.0128C63.4968 28.9977 62.4847 28.9876 60.8427 28.9876H58.35C56.6164 28.9876 55.6258 28.9977 55.3836 29.0128C55.0067 29.0429 54.6029 29.8026 54.1776 31.2869C53.7523 32.7711 53.4239 33.5107 53.1924 33.5107H49.6445C49.4346 33.5107 49.3269 33.4403 49.3269 33.3044C49.3269 33.2038 49.4023 32.9874 49.5476 32.6403L53.4131 22.7639C53.7415 21.969 54.7267 19.6748 56.3796 15.8812C56.6757 15.2523 57.0741 14.3064 57.5801 13.0386C57.704 12.6612 57.8386 12.4751 57.9893 12.4751C58.1885 12.4751 58.4846 12.5002 58.8722 12.5505C59.2598 12.6008 59.556 12.626 59.7551 12.626C59.9436 12.626 60.2289 12.5958 60.6165 12.5455C60.9988 12.4901 61.2787 12.46 61.4564 12.46C61.5533 12.46 61.6825 12.6461 61.8548 13.0084C62.1024 13.5568 63.3515 16.5202 65.5911 21.8935C68.7567 29.4505 70.3395 33.2641 70.3395 33.3346ZM62.9854 25.1991C62.9854 24.9123 62.517 23.6344 61.5695 21.3653C60.6542 19.1616 60.0082 17.7176 59.6259 17.0333C57.4509 22.2206 56.3634 24.9374 56.3634 25.184C56.3634 25.516 56.7618 25.7123 57.564 25.7726C57.6017 25.7827 58.1185 25.7877 59.1091 25.7877H60.735C62.237 25.7877 62.9854 25.5915 62.9854 25.1991Z" fill="white"/>
<path d="M29.2538 13.1929C29.2538 14.1599 29.2107 15.6052 29.1353 17.539C29.0544 19.4728 29.0167 20.9181 29.0167 21.885C29.0167 22.3533 29.0221 23.0533 29.0329 23.9799C29.0437 24.9015 29.0491 25.5964 29.0491 26.0597C29.0491 28.2151 28.8389 29.9576 28.4132 31.2971C27.8474 33.105 26.8289 34.5553 25.3686 35.6481C25.1692 35.7942 25.0291 35.8697 24.9428 35.8697C24.8674 35.8697 24.7866 35.8143 24.6896 35.7086C23.9406 34.923 23.2077 34.2179 22.4802 33.5985C22.3832 33.5179 22.3401 33.4475 22.3401 33.3769C22.3401 33.2964 22.394 33.2108 22.5125 33.1101C23.2292 32.5309 23.7088 32.0978 23.9621 31.8108C24.3555 31.3424 24.6465 30.7633 24.8459 30.0885C25.1099 29.182 25.2446 27.3187 25.2446 24.4936L25.2285 22.2677C25.2285 21.3411 25.1638 19.8504 25.0345 17.7958C24.9105 15.8217 24.8459 14.3311 24.8459 13.3239C24.8459 13.0419 25.0021 12.9009 25.3039 12.9009C25.5033 12.9009 25.805 12.911 26.2038 12.9412C26.608 12.9714 26.9043 12.9865 27.1037 12.9865C27.3031 12.9865 27.5995 12.9714 27.9875 12.9412C28.3808 12.911 28.6665 12.9009 28.8551 12.9009C29.1191 12.9009 29.2538 12.9966 29.2538 13.1929Z" fill="white"/>
<path d="M49.5394 20.1922C49.5394 20.6099 48.5106 22.6334 46.4478 26.2725C45.1444 28.5426 43.8409 30.8127 42.5321 33.0827C42.376 33.3696 42.2036 33.5106 42.0151 33.5106H38.8427C38.6973 33.5106 38.5465 33.3696 38.4011 33.0827C38.3687 33.0223 37.1192 30.8227 34.647 26.4789C32.5303 22.7491 31.4746 20.7156 31.4746 20.3734C31.4746 19.5932 31.5015 18.4255 31.5608 16.8701C31.62 15.3098 31.647 14.142 31.647 13.3669C31.647 13.0044 31.7709 12.8232 32.024 12.8232C32.2233 12.8232 32.5195 12.8384 32.9019 12.8635C33.2843 12.8937 33.5752 12.9088 33.7744 12.9088C33.9683 12.9088 34.2538 12.8937 34.647 12.8635C35.0348 12.8384 35.3256 12.8232 35.5141 12.8232C35.7565 12.8232 35.875 12.9139 35.875 13.1001C35.875 13.9004 35.8211 15.0984 35.708 16.699C35.6003 18.3046 35.5465 19.5076 35.5465 20.313C35.5465 20.9824 37.173 23.9622 40.437 29.2473C41.2987 27.8732 42.2359 26.2927 43.2431 24.5159C44.7081 21.9388 45.4352 20.4237 45.4352 19.9757C45.4352 19.2056 45.4137 18.063 45.3598 16.5379C45.306 15.0128 45.279 13.8752 45.279 13.1152C45.279 12.9189 45.3975 12.8232 45.6291 12.8232C45.8284 12.8232 46.1193 12.8384 46.5124 12.8635C46.9002 12.8937 47.1911 12.9088 47.3796 12.9088C47.5681 12.9088 47.8535 12.8937 48.2414 12.8635C48.6238 12.8384 48.9092 12.8232 49.0977 12.8232C49.3293 12.8232 49.464 12.9139 49.4909 13.1001C49.4801 13.0347 49.4748 13.2209 49.4748 13.6638C49.4748 14.3886 49.4855 15.4759 49.5071 16.9305C49.5286 18.3801 49.5394 19.4674 49.5394 20.1922Z" fill="white"/>
<path d="M125.219 15.2239C125.219 15.4853 125.128 15.6185 124.94 15.6185C124.645 15.6185 122.787 15.557 119.367 15.434C119.276 18.4883 119.227 20.9378 119.227 22.7775C119.227 23.9305 119.27 25.6575 119.362 27.9584C119.453 30.2594 119.496 31.9863 119.496 33.1342C119.496 33.3443 119.346 33.452 119.039 33.452C118.852 33.452 118.562 33.4366 118.175 33.4058C117.788 33.3751 117.493 33.3597 117.295 33.3597C117.107 33.3597 116.817 33.3751 116.43 33.4058C116.038 33.4366 115.754 33.452 115.56 33.452C115.303 33.452 115.168 33.329 115.168 33.0779C115.168 31.9351 115.222 30.2235 115.319 27.9328C115.421 25.6473 115.469 23.9305 115.469 22.7775C115.469 20.9942 115.41 18.5498 115.297 15.434C112.591 15.598 110.61 15.6749 109.348 15.6749C109.225 15.6749 109.16 15.6237 109.16 15.5263C109.16 15.3469 109.209 15.0856 109.3 14.7474C109.418 14.3067 109.488 14.0453 109.509 13.9633C109.526 13.6148 109.601 13.128 109.73 12.5079C109.778 12.3798 109.869 12.3132 109.993 12.3132L110.186 12.3286C113.896 12.5387 116.344 12.6412 117.531 12.6412C118.578 12.6412 120.29 12.5694 122.674 12.4208C124.296 12.3183 124.972 12.2671 124.704 12.2671C124.972 12.2671 125.128 12.3593 125.16 12.5387C125.139 12.4259 125.128 12.9128 125.128 13.994C125.128 14.1273 125.144 14.3271 125.176 14.6039C125.203 14.8755 125.219 15.0856 125.219 15.2239Z" fill="white"/>
<path d="M148.423 22.8718C148.423 25.844 147.424 28.4012 145.432 30.5433C143.354 32.7673 140.777 33.8793 137.695 33.8793C134.603 33.8793 132.02 32.7724 129.953 30.5586C127.961 28.4268 126.968 25.8645 126.968 22.8718C126.968 19.9098 127.972 17.3526 129.985 15.2004C132.063 12.9712 134.629 11.854 137.695 11.854C140.766 11.854 143.343 12.9712 145.416 15.2004C147.419 17.3424 148.423 19.8996 148.423 22.8718ZM144.632 22.8308C144.632 20.8681 143.993 19.1616 142.71 17.7114C141.368 16.1689 139.687 15.3951 137.663 15.3951C135.66 15.3951 133.991 16.1791 132.659 17.737C131.403 19.2026 130.774 20.9142 130.774 22.8718C130.774 24.8242 131.403 26.5307 132.659 27.9912C133.991 29.5542 135.66 30.3331 137.663 30.3331C139.698 30.3331 141.384 29.5542 142.726 27.9912C143.998 26.5307 144.632 24.8089 144.632 22.8308Z" fill="white"/>
<path d="M170.004 12.679C170.004 13.8423 169.956 15.5795 169.854 17.8958C169.757 20.2121 169.703 21.9545 169.703 23.1126C169.703 23.4918 169.709 24.0607 169.72 24.8191C169.73 25.5724 169.736 26.1361 169.736 26.5051C169.736 28.601 169.532 30.0513 169.124 30.8609C168.495 32.1011 167.271 32.9415 165.457 33.3822C164.345 33.6538 162.777 33.7871 160.753 33.7871C157.086 33.7871 154.681 33.208 153.537 32.0447C152.657 31.1479 152.216 29.3441 152.216 26.6434C152.216 26.3103 152.222 25.7518 152.233 24.9677C152.243 24.1837 152.243 23.5636 152.243 23.1126C152.243 21.934 152.195 19.756 152.088 16.584C152.088 15.764 152.039 14.5341 151.948 12.9045C151.937 12.7867 151.932 12.7047 151.932 12.6637C151.932 12.4536 152.066 12.3511 152.34 12.3511C152.769 12.3511 153.355 12.3562 154.085 12.3664C154.933 12.3767 155.513 12.3818 155.819 12.3818C156.055 12.3818 156.179 12.4689 156.179 12.6483C156.179 14.1703 156.147 16.4558 156.077 19.5101C156.007 22.5643 155.975 24.8498 155.975 26.3718C155.975 28.0937 156.377 29.257 157.183 29.8719C157.875 30.41 159.153 30.6816 161.006 30.6816C162.697 30.6816 163.894 30.4612 164.608 30.0205C165.51 29.4671 165.961 28.437 165.961 26.9253C165.961 25.3469 165.934 22.9692 165.886 19.8022C165.832 16.6352 165.806 14.2625 165.806 12.679C165.806 12.5202 165.956 12.4177 166.262 12.3818C166.482 12.3511 166.793 12.3511 167.207 12.3818C167.685 12.4177 167.916 12.4382 167.899 12.4382C168.087 12.4382 168.372 12.4228 168.753 12.3921C169.134 12.3665 169.424 12.3511 169.612 12.3511C169.875 12.3511 170.004 12.4587 170.004 12.679Z" fill="white"/>
<path d="M190.796 33.2951C190.796 33.372 190.71 33.4129 190.544 33.4129C190.345 33.4129 190.039 33.3976 189.631 33.3668C189.223 33.3361 188.917 33.3207 188.719 33.3207C188.498 33.3207 188.171 33.3361 187.736 33.3668C187.301 33.3976 186.974 33.4129 186.753 33.4129C186.512 33.4129 186.329 33.2899 186.2 33.0388C185.868 32.3573 184.912 30.2511 183.339 26.7152C183.183 26.3564 182.797 26.1361 182.19 26.0541C182.056 26.0438 181.578 26.0438 180.762 26.0438C179.312 26.0438 178.453 26.0592 178.179 26.1002C177.959 26.131 177.852 26.3872 177.852 26.8689C177.852 27.5658 177.884 28.6164 177.954 30.0102C178.018 31.4092 178.056 32.4495 178.056 33.1413C178.056 33.3514 177.948 33.4591 177.739 33.4591C177.529 33.4591 177.213 33.4334 176.789 33.3925C176.364 33.3463 176.042 33.3207 175.822 33.3207C175.64 33.3207 175.371 33.3361 175.001 33.3668C174.636 33.3976 174.362 33.4129 174.185 33.4129C173.921 33.4129 173.793 33.3002 173.793 33.0696C173.793 31.9576 173.846 30.287 173.954 28.0629C174.066 25.8337 174.12 24.1631 174.12 23.0562C174.12 19.8893 174.002 16.5173 173.76 12.9352L173.744 12.6944C173.734 12.4945 173.954 12.392 174.405 12.392C175.307 12.392 176.654 12.3715 178.453 12.3254C180.252 12.2793 181.599 12.2588 182.49 12.2588C184.815 12.2588 186.684 12.7918 188.09 13.8525C189.642 15.0209 190.415 16.6813 190.415 18.8336C190.415 20.3146 190.206 21.483 189.787 22.3337C189.347 23.2356 188.531 24.0914 187.333 24.9011C187.135 25.0292 187.033 25.1573 187.033 25.2752C187.033 25.4135 187.661 26.7459 188.917 29.2672C190.168 31.7936 190.796 33.1311 190.796 33.2951ZM186.485 19.674C186.485 17.865 185.937 16.6505 184.847 16.0407C184.042 15.5898 182.587 15.3694 180.493 15.3694C178.791 15.3694 177.927 15.4975 177.895 15.7589C177.825 16.2969 177.787 17.7421 177.787 20.0942V22.964C177.819 22.9845 177.884 23.005 177.991 23.0255C178.179 23.046 178.491 23.0665 178.92 23.0972C179.913 23.1485 180.992 23.1741 182.141 23.1741C185.035 23.1741 186.485 22.0057 186.485 19.674Z" fill="white"/>
<path d="M88.6982 36.3866C98.4699 36.3866 106.391 28.465 106.391 18.6933C106.391 8.92156 98.4699 1 88.6982 1C78.9264 1 71.0049 8.92156 71.0049 18.6933C71.0049 28.465 78.9264 36.3866 88.6982 36.3866Z" fill="white" stroke="#2B2B2A" stroke-width="0.755906" stroke-miterlimit="22.9256"/>
<path fill-rule="evenodd" clip-rule="evenodd" d="M100.12 24.0476C101.507 21.6497 101.797 18.5412 101.797 18.5412C101.797 18.5412 98.9147 16.4108 94.7103 17.7499C90.367 19.3198 90.0361 23.8599 90.0361 23.8599C90.0361 23.8599 91.1933 24.5894 92.9076 24.9542C94.622 25.319 96.4227 25.1967 96.4227 25.1967C96.4227 25.1967 98.671 24.9704 100.12 24.0476Z" fill="#FBBB06"/>
<path fill-rule="evenodd" clip-rule="evenodd" d="M98.9483 26.6497C98.9483 26.6497 95.5472 31.2237 89.6734 31.459C87.7313 31.5367 85.3988 31.304 83.7803 30.7034C80.6222 29.2796 78.7919 27.2664 78.7919 27.2664C78.7919 27.2664 79.5231 26.8217 80.9007 26.5186C82.2783 26.2154 83.8664 26.2199 86.2246 26.7222C88.5828 27.2242 90.2857 27.7717 90.2857 27.7717C90.2857 27.7717 93.6197 28.699 95.6765 28.2603C97.7334 27.8215 98.9483 26.6497 98.9483 26.6497Z" fill="#130003"/>
<path fill-rule="evenodd" clip-rule="evenodd" d="M79.4365 17.9503C79.3668 18.0182 79.2831 17.9503 79.2831 17.9503V18.9321L79.0321 18.7013C79.0321 18.7013 78.9903 19.2442 79.0414 19.5021C79.0926 19.76 79.2088 19.9455 79.2088 19.9455H78.9903C78.9903 19.9455 78.9764 20.1672 78.9903 20.2395C79.0042 20.3119 79.1576 20.7055 79.1576 20.7055L79.2088 20.8096C79.2088 20.8096 78.9252 20.6919 78.8416 20.4657C78.7579 20.2395 78.6789 20.0043 78.6789 20.0043H78.5116C78.5116 20.0043 78.3628 19.8052 78.3071 19.5292C78.2513 19.2533 78.2838 18.819 78.2838 18.819H78.1583C78.1583 18.819 78.1397 18.4389 78.2234 18.1675C78.3071 17.896 78.5952 17.5025 78.5952 17.5025C78.5952 17.5025 78.0235 17.6201 77.3681 18.3666C76.7128 19.113 76.6059 19.6107 76.6059 19.6107H76.5408C76.4693 19.2431 76.4816 19.0798 76.6059 18.8733H76.4014C76.4426 18.4619 76.5399 18.3086 76.8615 18.0001L76.8987 17.7422C77.4821 17.3336 77.734 17.1782 78.3628 16.851L78.3071 16.7696C77.9673 16.7349 77.7893 16.6993 77.396 16.7967V16.6674C77.3801 16.6802 77.0132 16.6665 76.2619 16.6881V16.5343C76.108 16.5568 75.8994 16.5795 75.6066 16.7107C75.659 16.3341 75.9325 16.1541 76.8615 15.8964L77.0196 15.8647C76.8739 15.8217 76.8325 15.7633 76.815 15.6114C77.4179 15.5137 77.6926 15.5711 78.2141 15.7607H78.4465C78.4465 15.7607 78.2606 15.5933 78.3535 15.5752C78.4465 15.5571 78.902 15.7969 78.902 15.7969C78.3917 14.9564 78.0896 14.479 77.5215 13.6162C77.8952 13.7738 78.2347 14.1527 78.8741 15.073H79.2738C79.3693 14.5754 79.4291 14.4036 79.7201 14.1863V14.5211C80.3087 13.783 80.6069 13.6601 80.8681 13.5936L80.6125 13.9465C81.0905 13.6704 81.3634 13.6005 81.8581 13.6162C81.1801 14.0735 81.0154 14.3251 81.1098 14.417L81.3608 14.4713C80.6292 14.8616 80.3906 15.0654 80.4033 15.2268C80.5848 15.1491 80.5985 15.0459 80.8263 15.0459C81.054 15.0459 80.7567 15.2194 80.6403 15.3309C80.9764 15.319 81.1477 15.2695 81.4259 15.1092C81.4259 15.1092 81.4817 15.2992 81.6629 15.1409C81.8442 14.9825 82.6344 15.1952 82.6344 15.1952V15.3897C83.1976 15.4297 83.3842 15.4726 83.4106 15.7245C82.8057 15.6967 82.4699 15.6913 81.9046 15.7833C81.0848 16.0005 80.8195 16.2519 80.6403 16.4529H80.8588V16.5886C81.3841 16.5417 81.9866 16.7505 81.9372 16.7786C81.9886 16.816 81.9612 16.8594 81.7791 16.8962C82.1997 17.0322 82.1579 17.0573 82.3369 17.3441C82.5208 17.6113 82.556 17.7581 82.4903 18.0182C82.1928 17.697 82.0781 17.6032 81.8953 17.6382L81.4305 17.2129C81.2319 17.1276 81.1325 17.1249 80.9843 17.231C80.9027 17.1152 80.8284 17.0739 80.6403 17.0455C80.4215 17.0074 80.3192 17.0108 80.1942 17.0862C80.1942 17.0862 81.3841 18.5294 82.1324 20.0586C82.8807 21.5877 83.1968 24.1302 83.1968 24.1302L83.9683 23.7184C83.9683 23.7184 84.6005 20.5426 85.1117 19.1085C85.888 16.6881 87.1476 14.7835 87.1476 14.7835C87.1953 14.795 87.0293 14.7425 86.8873 14.7971C86.9031 14.8261 86.9378 14.9448 86.785 14.9102C86.7669 14.906 86.7733 14.6341 86.5991 14.7835C86.3097 15.0253 86.1791 15.1478 86.0413 15.1952C85.9229 15.2173 85.9531 15.1538 85.9623 14.9554C85.5985 15.1803 85.4367 15.3151 85.2465 15.5752C85.0771 15.7245 84.9467 15.7781 84.7445 15.8964C84.4319 16.1491 84.3439 16.1894 84.224 16.4348V15.8602C84.341 15.853 84.3465 15.8056 84.4006 15.5888H84.224C84.3287 15.2649 84.5009 15.1361 85.0885 14.7835V14.6885H84.8654C84.8689 14.5964 84.8962 14.5615 84.9862 14.5256C85.4992 14.2912 85.777 14.2154 86.2551 14.1772V14.0732C86.3019 14.013 86.3511 13.997 86.4829 14.0008C86.5315 13.9709 86.5316 13.9475 86.4922 13.8967C85.1865 13.3031 84.3321 13.1975 82.6344 13.4851C82.7828 13.2585 82.9036 13.1457 83.1968 12.9738L83.7313 12.9331V12.82C83.5522 12.8215 83.5002 12.7987 83.5035 12.7114C83.987 12.3991 84.9676 12.3721 84.9862 12.4264C85.0048 12.4807 84.9862 12.5259 84.9862 12.5259C85.0772 12.5617 85.113 12.5577 85.1536 12.5124V12.354C85.7244 12.385 86.075 12.4401 86.4085 12.6888L86.8408 13.0507C86.7439 12.6732 86.5299 12.4923 85.888 12.2183C85.826 12.1507 85.8201 12.1205 85.888 12.0871C86.2295 12.1695 86.4218 12.2576 86.7664 12.4762C86.6225 12.1967 86.2393 11.9351 85.2186 11.3904H85.5579C85.5717 11.2614 85.557 11.1979 85.4603 11.1099C85.1597 10.7936 84.8613 10.6761 84.3541 10.4766L84.3309 10.4675C84.8032 10.2834 85.1067 10.2893 85.5579 10.4494L86.0599 10.7299H86.1947C85.9642 10.5627 85.8656 10.4484 85.7485 10.2051C86.296 10.3107 86.5282 10.4274 86.8176 10.7299L87.3753 11.3904L87.3521 10.8475C87.8123 11.2256 88.0446 11.3994 88.0911 11.974C88.1376 12.5486 88.2027 12.7114 88.2027 12.7114C88.8985 11.2005 89.3201 10.5398 90.127 9.69385C89.4897 11.143 89.1413 11.8385 88.7186 12.7476C88.785 12.8253 88.847 12.7909 89.2345 12.5214C89.3164 12.4905 89.3552 12.4929 89.4158 12.5214V12.7386C90.0007 12.3334 90.4701 12.312 91.5121 12.3088C91.2482 12.4282 91.1826 12.4994 91.2285 12.6345C92.4903 12.7832 92.9986 13.015 93.3713 13.5303C93.0259 13.4246 92.7586 13.359 92.3348 13.3901L92.3952 13.5755C92.2696 13.6639 91.9544 13.6685 90.8334 13.7294C90.864 13.8763 90.909 13.9365 91.0333 14.0098H89.6621C89.6807 14.2825 89.8178 14.3413 90.2431 14.313V14.503C91.0314 14.6262 91.3802 14.8231 91.8885 15.3309H91.6794C92.3147 15.8026 92.5108 16.0662 92.5067 16.5343H92.3441C92.5607 16.9503 92.5156 17.1955 92.437 17.6065C91.8958 16.63 91.5946 16.2446 90.8056 15.6476C90.2881 15.3318 89.9318 15.2165 89.374 15.1409C89.8903 15.4792 90.0911 15.964 90.2013 16.8193H90.0619C90.2214 17.4882 90.1152 17.8537 89.9549 18.4978C89.9023 18.5999 89.8539 18.5773 89.7319 18.3846C89.6694 18.9705 89.5925 19.2121 89.1927 19.7012C89.1573 19.4136 89.1463 19.1109 89.3321 18.3846C89.2441 18.3794 89.2217 18.4139 89.0114 18.5611C89.1307 17.8806 89.1741 16.8781 89.044 16.8691C88.9138 16.86 88.8534 17.136 88.8534 17.136C88.7432 17.1274 88.7332 17.0555 88.6442 16.0728C88.5854 15.8726 88.5004 15.8376 88.3142 15.8104C88.361 15.8148 88.2059 14.8846 87.882 14.9248C87.5581 14.965 86.5412 16.855 85.7857 19.009C84.968 21.1896 84.8681 23.3057 84.8122 23.3472L84.824 23.3451C85.728 23.1912 86.4482 23.0685 88.1881 23.9005C89.9372 24.7368 93.0607 26.2921 95.8812 26.0711C97.7589 26.0711 99.7902 25.017 99.7902 25.017C99.7902 25.017 97.8242 27.849 93.6362 27.4735C91.8885 27.4735 87.5705 26.0711 87.5705 26.0711C82.0022 24.4832 78.9345 26.6366 78.9345 26.6366C78.9345 26.6366 79.827 25.7001 80.6125 25.1708C81.398 24.6415 82.5368 24.3565 82.5368 24.3565C82.5368 24.3565 82.4392 22.2935 81.6397 20.3752C80.8402 18.457 79.7665 17.2129 79.7665 17.2129C79.7665 17.2129 79.6596 17.1903 79.5481 17.4708C79.4365 17.7513 79.5062 17.8825 79.4365 17.9503Z" fill="#115E38"/>
<path fill-rule="evenodd" clip-rule="evenodd" d="M81.4741 12.7646L80.6241 9.8348C80.6241 9.8348 79.6671 10.6397 78.9863 11.0831C78.838 11.1797 78.6506 11.293 78.482 11.3927C78.191 11.5648 77.8817 11.7099 77.5627 11.8339L77.2188 11.9676C77.1166 12.0073 77.0117 12.0398 76.9049 12.0649C76.5109 12.1573 76.1061 12.1444 75.7484 12.0281L75.5569 11.9659L73.8234 11.4325C73.7755 11.4178 73.7405 11.3846 73.7282 11.3422C73.7109 11.2826 73.7415 11.2159 73.8044 11.1761L74.1203 10.9763C74.1864 10.9346 74.259 10.9017 74.3353 10.8792L74.4536 10.8443C74.5755 10.8083 74.7007 10.7858 74.8259 10.7771L75.4141 10.7366L76.2754 10.6385C76.3666 10.6281 76.4573 10.6096 76.546 10.5834C76.7253 10.5305 76.8935 10.4469 77.0394 10.338L79.3049 8.64778L77.4605 8.10167C77.4217 8.09017 77.3933 8.06354 77.3834 8.02939C77.3696 7.98196 77.3939 7.92894 77.4439 7.89724L77.5579 7.82511C77.5889 7.80542 77.6231 7.78997 77.659 7.77937L77.9987 7.67912L78.9651 7.47662L81.194 7.15998L84.1985 4.84655C84.3647 4.7186 84.5405 4.60016 84.7244 4.49225L84.9497 4.36009C85.1694 4.23112 85.407 4.12847 85.6546 4.0554L85.6657 4.05212C85.8567 3.99576 86.0524 3.95813 86.2487 3.94005L86.3545 3.9303C86.4095 3.92523 86.4644 3.92365 86.5187 3.92563L86.6575 3.93065C86.7382 3.93357 86.8148 3.95301 86.8809 3.98731L86.897 3.99567C86.9658 4.03141 87.0189 4.08443 87.0499 4.14845C87.0804 4.21146 87.0882 4.28253 87.0725 4.35351L87.0505 4.45299C87.0323 4.53487 86.9982 4.61506 86.9494 4.69011L86.7492 4.9986L86.6598 5.11573C86.4314 5.4149 86.1697 5.69664 85.8789 5.9565L85.3923 6.39137L82.8873 8.20564L82.5049 11.3316L82.2965 12.1418C82.2544 12.3052 82.1812 12.4646 82.0798 12.6134L81.963 12.7847C81.9489 12.8052 81.9315 12.8243 81.9114 12.8411C81.7596 12.9676 81.5209 12.9258 81.4741 12.7646Z" fill="#2B2B2A"/>
<path fill-rule="evenodd" clip-rule="evenodd" d="M86.7537 3.5439C90.1088 2.9742 93.4454 3.4407 96.5183 5.08089C99.5912 6.72105 101.973 9.38498 103.266 12.6275C104.559 15.8701 104.684 19.4947 103.621 22.8957C102.559 26.2967 100.372 29.268 97.4262 31.3131C94.481 33.358 90.9557 34.3528 87.4394 34.1312C83.9232 33.9097 80.6291 32.4852 78.1077 30.0957C75.5864 27.7061 73.9905 24.4963 73.5868 21.0029C73.183 17.5095 73.9026 14.5933 74.9662 12.5883C74.9662 12.5883 75.3175 12.8039 75.6714 12.9899C75.9873 13.1559 76.6023 12.9856 76.6023 12.9856C75.3306 15.9827 75.0667 17.6521 75.3355 20.7446C75.6932 23.8393 77.1069 26.6828 79.3406 28.7997C81.5742 30.9166 84.4924 32.1785 87.6074 32.375C90.7223 32.5711 93.8452 31.6899 96.4547 29.8782C99.0638 28.0665 101.001 25.4343 101.943 22.4214C102.604 20.3045 102.993 18.0282 102.769 15.824C102.674 14.8911 102.442 14.0431 102.128 13.0815C101.325 11.0671 100.114 8.93771 98.4544 7.41685C98.1504 7.13826 97.8189 6.86001 97.4825 6.59727C97.2817 6.44048 97.0792 6.28919 96.8798 6.14667C96.7857 6.07947 96.6896 6.01554 96.5894 5.95894C96.3947 5.84901 96.3293 5.81214 96.1983 5.7422C96.1079 5.69394 96.0164 5.6458 95.9241 5.59782C93.2351 4.20116 89.7381 2.95075 86.7537 3.5439Z" fill="#130003"/>
<path fill-rule="evenodd" clip-rule="evenodd" d="M89.3574 22.5668L93.1837 22.448L89.9999 22C89.901 22.0652 89.4091 22.4931 89.3574 22.5668Z" fill="white"/>
<path fill-rule="evenodd" clip-rule="evenodd" d="M97 23.5L100.876 23.3608C101.044 23.4417 100.979 23.9561 100.876 23.9704L97 23.5Z" fill="white"/>
<path fill-rule="evenodd" clip-rule="evenodd" d="M97.5 19.1297L101.996 18.9712C102.08 19.0193 102.448 19.4432 102.5 19.5L97.5 19.1297Z" fill="white"/>
<path fill-rule="evenodd" clip-rule="evenodd" d="M91.4999 19.4998L93.4999 19.9998L90.9896 20.0601L91.4999 19.4998Z" fill="white"/>
</svg>
