<svg width="64" height="64" viewBox="0 0 64 64" fill="none" xmlns="http://www.w3.org/2000/svg">
<path fill-rule="evenodd" clip-rule="evenodd" d="M42.6667 9.07297L43.8908 7.85528C47.271 4.49274 52.7514 4.49274 56.1316 7.85528C59.5118 11.2178 59.5118 16.6696 56.1316 20.0321L45.1149 30.9913C43.7628 32.3363 41.5706 32.3363 40.2185 30.9913L29.2019 20.0321C25.8217 16.6696 25.8217 11.2178 29.2019 7.85528C32.5821 4.49274 38.0624 4.49274 41.4426 7.85528L42.6667 9.07297ZM5.33337 26.6667H10.6667L27.366 33.9727C29.9309 35.0948 31.1104 38.0759 30.0076 40.6492C29.8402 41.0397 29.6298 41.3987 29.3842 41.7228L36.6217 46.3109C38.8434 47.4217 41.2932 48 43.7771 48H48C50.9456 48 53.3334 50.3879 53.3334 53.3334C53.3334 56.2789 50.9456 58.6667 48 58.6667H26.3695C23.0576 58.6667 19.7912 57.8956 16.8289 56.4145L5.33337 50.6667V26.6667Z" fill="#FBBA05"/>
</svg>
