<svg width="28" height="28" viewBox="0 0 28 28" fill="none" xmlns="http://www.w3.org/2000/svg">
<path opacity="0.4" d="M0.666748 5.99984C0.666748 3.05432 3.05456 0.666504 6.00008 0.666504H22.0001C24.9456 0.666504 27.3334 3.05432 27.3334 5.99984V21.9998C27.3334 24.9454 24.9456 27.3332 22.0001 27.3332H6.00008C3.05456 27.3332 0.666748 24.9454 0.666748 21.9998V5.99984Z" fill="white"/>
<ellipse cx="22.0001" cy="5.99984" rx="1.33333" ry="1.33333" fill="white"/>
<path fill-rule="evenodd" clip-rule="evenodd" d="M14.0002 20.6663C17.6821 20.6663 20.6668 17.6816 20.6668 13.9997C20.6668 10.3178 17.6821 7.33301 14.0002 7.33301C10.3183 7.33301 7.3335 10.3178 7.3335 13.9997C7.3335 17.6816 10.3183 20.6663 14.0002 20.6663ZM14.0002 17.9997C16.2093 17.9997 18.0002 16.2088 18.0002 13.9997C18.0002 11.7905 16.2093 9.99967 14.0002 9.99967C11.791 9.99967 10.0002 11.7905 10.0002 13.9997C10.0002 16.2088 11.791 17.9997 14.0002 17.9997Z" fill="white"/>
</svg>
