<svg width="64" height="64" viewBox="0 0 64 64" fill="none" xmlns="http://www.w3.org/2000/svg">
<path fill-rule="evenodd" clip-rule="evenodd" d="M57.6 32C57.6 46.1385 46.1385 57.6 32 57.6C17.8615 57.6 6.39999 46.1385 6.39999 32C6.39999 17.8615 17.8615 6.40002 32 6.40002C46.1385 6.40002 57.6 17.8615 57.6 32ZM51.2 32C51.2 35.1764 50.4287 38.1726 49.0631 40.8116L44.1844 35.9329C44.5841 34.6938 44.8 33.3721 44.8 32C44.8 30.9484 44.6732 29.9264 44.434 28.9484L49.4349 23.9475C50.5678 26.3965 51.2 29.1244 51.2 32ZM34.6706 44.521L39.7301 49.5805C37.365 50.6219 34.75 51.2 32 51.2C29.1244 51.2 26.3964 50.5679 23.9475 49.4349L28.9484 44.434C29.9263 44.6732 30.9484 44.8 32 44.8C32.9158 44.8 33.8092 44.7038 34.6706 44.521ZM19.7058 35.5747C19.3765 34.4402 19.2 33.2407 19.2 32C19.2 30.9379 19.3294 29.9059 19.5732 28.9191L19.321 29.1714L14.4196 24.27C13.3782 26.635 12.8 29.25 12.8 32C12.8 35.0524 13.5123 37.9383 14.7796 40.5008L19.7058 35.5747ZM23.1884 14.9369C25.8274 13.5713 28.8236 12.8 32 12.8C35.0523 12.8 37.9383 13.5123 40.5008 14.7797L35.5746 19.7058C34.4402 19.3765 33.2407 19.2 32 19.2C30.6279 19.2 29.3062 19.4159 28.0671 19.8156L23.1884 14.9369ZM38.4 32C38.4 35.5346 35.5346 38.4 32 38.4C28.4654 38.4 25.6 35.5346 25.6 32C25.6 28.4654 28.4654 25.6 32 25.6C35.5346 25.6 38.4 28.4654 38.4 32Z" fill="#FBBA05"/>
</svg>
