<svg width="24" height="21" viewBox="0 0 24 21" fill="none" xmlns="http://www.w3.org/2000/svg">
<g opacity="0.4">
<path d="M0.86198 9.39516L21.3802 0.527672C22.3451 0.110668 23.3906 0.922113 23.2261 1.9603L20.4207 19.6616C20.2474 20.755 18.8942 21.1732 18.1342 20.3682L13.5303 15.4915C12.6275 14.5351 12.5567 13.0633 13.3637 12.0248L16.6143 7.84111C16.8002 7.60195 16.5067 7.28732 16.2552 7.45605L9.79212 11.7918C8.69535 12.5276 7.36459 12.8302 6.05749 12.6412L1.20008 11.9387C-0.130572 11.7462 -0.372188 9.92853 0.86198 9.39516Z" fill="white"/>
</g>
<path fill-rule="evenodd" clip-rule="evenodd" d="M22.8814 0.838632L16.5321 7.44278C16.453 7.39764 16.351 7.39176 16.2552 7.45605L9.79212 11.7918C8.69535 12.5276 7.36459 12.8302 6.05749 12.6412L1.20008 11.9387C-0.130572 11.7462 -0.372188 9.92853 0.86198 9.39515L21.3802 0.527672C21.9361 0.287423 22.5188 0.454929 22.8814 0.838632Z" fill="white"/>
</svg>
