<svg width="24" height="22" viewBox="0 0 24 22" fill="none" xmlns="http://www.w3.org/2000/svg">
<path opacity="0.4" d="M16.3815 0.333496C13.5764 0.333496 11.3024 2.72131 11.3024 5.66683C11.3024 6.11192 11.3543 6.54429 11.4521 6.9576C8.75489 6.9576 4.69227 6.41227 1.29933 3.01297C0.848154 2.56095 0.0161941 2.86317 0.0474893 3.50106C0.550323 13.7504 4.93977 16.74 7.20022 16.9261C5.74055 18.3677 3.62022 19.5057 1.4866 20.0164C0.9235 20.1512 0.784396 20.7676 1.33501 20.9467C2.86172 21.4433 5.04697 21.6346 6.22321 21.6668C14.5443 21.6668 21.3076 14.663 21.4581 5.96322C22.5506 5.25276 23.2504 3.71016 23.6436 2.61737C23.7393 2.35123 23.3032 2.04113 23.042 2.14984C22.2259 2.4896 21.1898 2.57014 20.3073 2.28257C19.3758 1.09252 17.963 0.333496 16.3815 0.333496Z" fill="white"/>
</svg>
