<svg width="16" height="16" viewBox="0 0 16 16" fill="none" xmlns="http://www.w3.org/2000/svg">
<path fill-rule="evenodd" clip-rule="evenodd" d="M7.99992 7.33337C9.10449 7.33337 9.99992 6.43794 9.99992 5.33337C9.99992 4.2288 9.10449 3.33337 7.99992 3.33337C6.89535 3.33337 5.99992 4.2288 5.99992 5.33337C5.99992 6.43794 6.89535 7.33337 7.99992 7.33337ZM7.99992 12.6667C10.2091 12.6667 11.9999 11.7713 11.9999 10.6667C11.9999 9.56214 10.2091 8.66671 7.99992 8.66671C5.79078 8.66671 3.99992 9.56214 3.99992 10.6667C3.99992 11.7713 5.79078 12.6667 7.99992 12.6667ZM4.25435 8.6794C2.60791 8.78094 1.33325 9.48277 1.33325 10.3334C1.33325 11.0348 2.19958 11.6349 3.42634 11.8809C3.15221 11.5097 2.99992 11.0989 2.99992 10.6668C2.99992 9.9045 3.47376 9.20863 4.25435 8.6794ZM13 10.6668C13 11.0989 12.8477 11.5097 12.5735 11.8809C13.8003 11.6349 14.6666 11.0348 14.6666 10.3335C14.6666 9.48277 13.392 8.78094 11.7455 8.6794C12.5261 9.20863 13 9.9045 13 10.6668ZM10.4788 7.02363C10.8076 6.54231 10.9999 5.9603 10.9999 5.33337C10.9999 5.12534 10.9787 4.92224 10.9384 4.72613C11.0632 4.68751 11.1958 4.66671 11.3332 4.66671C12.0696 4.66671 12.6666 5.26366 12.6666 6.00004C12.6666 6.73642 12.0696 7.33337 11.3332 7.33337C11.0081 7.33337 10.7101 7.217 10.4788 7.02363ZM4.66659 4.66671C4.80404 4.66671 4.93664 4.68751 5.06141 4.72613C5.02109 4.92224 4.99992 5.12534 4.99992 5.33337C4.99992 5.9603 5.19222 6.54231 5.52106 7.02363C5.28967 7.217 4.99172 7.33337 4.66659 7.33337C3.93021 7.33337 3.33325 6.73642 3.33325 6.00004C3.33325 5.26366 3.93021 4.66671 4.66659 4.66671Z" fill="#94A3B8"/>
</svg>
