<?xml version="1.0" standalone="no"?>
<!DOCTYPE svg PUBLIC "-//W3C//DTD SVG 1.1//EN" "http://www.w3.org/Graphics/SVG/1.1/DTD/svg11.dtd" >
<svg xmlns="http://www.w3.org/2000/svg" xmlns:xlink="http://www.w3.org/1999/xlink" version="1.1">
<metadata></metadata>
<defs>
<font id="pretendardthin" horiz-adv-x="1124" vert-adv-y="2048" >
<font-face units-per-em="2048" ascent="1638" descent="-410" />
<missing-glyph horiz-adv-x="500" />
<glyph horiz-adv-x="0" vert-adv-y="0" />
<glyph horiz-adv-x="682" />
<glyph unicode="!" horiz-adv-x="484" vert-adv-y="2444" d="M276 1448l-2 -1022h-64l-2 1022h68zM178 54q1 26 19.5 44.5t44.5 19.5q26 -1 44.5 -19.5t17.5 -44.5q1 -26 -17.5 -44.5t-44.5 -17.5q-26 -1 -44.5 17.5t-19.5 44.5z" />
<glyph unicode="&#x22;" horiz-adv-x="656" vert-adv-y="2444" d="M216 1448v-460h-62v460h62zM440 988v460h62v-460h-62z" />
<glyph unicode="#" horiz-adv-x="1218" vert-adv-y="2444" d="M714 0l73 442h-448l-73 -442h-60l72 442h-256l10 60h256l72 444h-256l12 60h254l72 442h62l-73 -442h448l73 442h60l-72 -442h256l-10 -60h-256l-72 -444h256l-12 -60h-254l-72 -442h-62zM349 502h448l72 444h-448z" />
<glyph unicode="$" horiz-adv-x="1184" vert-adv-y="2444" d="M566 -182v158q-192 7 -310.5 108t-129.5 262h66q11 -134 112 -217t262 -89v673l-62 19q-344 107 -344 360q0 156 114.5 261.5t291.5 115.5v161h56v-160q180 -6 294 -112.5t124 -271.5h-66q-11 139 -105.5 226.5t-246.5 94.5v-643l66 -20q184 -56 278 -144.5t94 -227.5 q0 -166 -120 -275.5t-318 -119.5v-159h-56zM226 1094q-1 -109 75.5 -182t224.5 -118l40 -12v625q-150 -11 -245.5 -98t-94.5 -215zM622 41q168 9 270 99.5t102 231.5q0 113 -77.5 185.5t-246.5 124.5l-48 14v-655z" />
<glyph unicode="%" horiz-adv-x="1536" vert-adv-y="2444" d="M384 844q-109 0 -177.5 84.5t-68.5 227.5t69 227.5t177 84.5q109 0 177.5 -84.5t68.5 -227.5q0 -142 -69 -227t-177 -85zM200 1156q-1 -118 50.5 -186t133.5 -68t133.5 68t50.5 186q1 119 -50.5 187t-133.5 69q-82 -1 -133.5 -69t-50.5 -187zM234 0l994 1448h70 l-994 -1448h-70zM906 292q0 143 69 227.5t177 84.5q109 0 177 -84.5t69 -227.5q-1 -143 -69.5 -227.5t-176.5 -84.5q-109 0 -177.5 84.5t-68.5 227.5zM968 292q-1 -119 50.5 -186.5t133.5 -67.5t133.5 67.5t50.5 186.5q1 119 -50.5 187t-133.5 67q-82 0 -133.5 -67.5 t-50.5 -186.5z" />
<glyph unicode="&#x26;" horiz-adv-x="1138" vert-adv-y="2444" d="M518 -20q-178 0 -297 111.5t-119 274.5q0 102 58.5 185t199.5 189l57 42q-122 153 -152 200q-59 94 -59 176q0 127 92.5 218t223.5 92q128 -1 211.5 -85t84.5 -211q-1 -89 -49 -163.5t-157 -158.5l-106 -79l405 -509q76 119 99 282l64 -6q-20 -177 -122 -327l168 -211 h-78l-128 160q-4 -6 -14 -18q-72 -76 -174 -119t-208 -43zM168 366q-1 -135 100 -229t250 -95q221 4 356 168l-418 523l-68 -51q-122 -94 -171.5 -165.5t-48.5 -150.5zM272 1158q0 -35 9 -66t41.5 -80t54 -77t85.5 -109l5 -6l105 78q97 75 138.5 137t41.5 137 q0 100 -65.5 167t-164.5 67q-102 0 -176.5 -74.5t-73.5 -173.5z" />
<glyph unicode="'" horiz-adv-x="370" vert-adv-y="2444" d="M216 1448v-460h-62v460h62z" />
<glyph unicode="(" horiz-adv-x="600" vert-adv-y="2444" d="M190 552q1 526 242 958h66q-115 -204 -178 -451.5t-64 -506.5q1 -261 64.5 -508.5t177.5 -451.5h-66q-241 439 -242 960z" />
<glyph unicode=")" horiz-adv-x="600" vert-adv-y="2444" d="M410 552q-1 -521 -242 -960h-66q114 204 177.5 451.5t64.5 508.5q-1 259 -64 506.5t-178 451.5h66q241 -432 242 -958z" />
<glyph unicode="*" horiz-adv-x="952" vert-adv-y="2444" d="M506 634h-60l2 360l-310 -182l-30 52l312 176l-312 178l30 52l310 -180l-2 358h60l-2 -358l312 180l28 -52l-312 -178l312 -176l-28 -52l-312 182z" />
<glyph unicode="+" horiz-adv-x="1232" vert-adv-y="2444" d="M584 146v388h-388v64h388v386h64v-386h386v-64h-386v-388h-64z" />
<glyph unicode="," horiz-adv-x="476" vert-adv-y="2444" d="M278 98l-128 -466h-54l114 466h68z" />
<glyph unicode="-" horiz-adv-x="838" vert-adv-y="2444" d="M696 652v-62h-554v62h554z" />
<glyph unicode="." horiz-adv-x="468" vert-adv-y="2444" d="M234 -8q-26 -1 -44.5 17.5t-19.5 44.5q1 26 19.5 44.5t44.5 19.5q26 -1 44.5 -19.5t17.5 -44.5q1 -26 -17.5 -44.5t-44.5 -17.5z" />
<glyph unicode="/" horiz-adv-x="612" vert-adv-y="2444" d="M572 1516l-466 -1734h-66l468 1734h64z" />
<glyph unicode="0" horiz-adv-x="1146" vert-adv-y="2444" d="M572 -20q-211 0 -332 198.5t-122 545.5q1 347 122 545.5t332 198.5q212 0 333 -198.5t121 -545.5t-121 -545.5t-333 -198.5zM184 724q0 -319 104 -500t284 -180q182 -1 285.5 180t102.5 500q1 319 -103 500.5t-285 181.5q-180 0 -284 -181.5t-104 -500.5z" />
<glyph unicode="1" horiz-adv-x="794" vert-adv-y="2444" d="M516 1448v-1448h-68v1378h-6l-326 -210v74l320 206h80z" />
<glyph unicode="2" horiz-adv-x="1214" vert-adv-y="2444" d="M158 0v52l480 544q166 189 224.5 289.5t57.5 204.5q1 137 -94 226.5t-240 89.5q-150 0 -245 -94t-95 -232h-66q1 164 115.5 276t290.5 112q172 0 285.5 -107.5t114.5 -270.5q-1 -119 -64 -228.5t-242 -311.5l-422 -480v-6h806v-64h-906z" />
<glyph unicode="3" horiz-adv-x="1212" vert-adv-y="2444" d="M612 -20q-193 0 -322 108t-130 274h66q1 -139 111.5 -229t274.5 -89q170 -1 278 95.5t110 240.5q-1 149 -120.5 242t-307.5 92h-38v64h38q165 0 273 86.5t109 229.5q-1 135 -96.5 223.5t-247.5 88.5q-151 0 -250 -89.5t-100 -230.5h-66q1 167 119.5 274.5t298.5 107.5 q178 0 292.5 -107t115.5 -267q-1 -125 -74.5 -216t-199.5 -126v-6q147 -34 232.5 -132t85.5 -236q0 -170 -127.5 -284t-324.5 -114z" />
<glyph unicode="4" horiz-adv-x="1184" vert-adv-y="2444" d="M120 332v52l680 1064h74v-1052h190v-64h-190v-332h-64v332h-690zM206 396h604v938h-10l-594 -932v-6z" />
<glyph unicode="5" horiz-adv-x="1144" vert-adv-y="2444" d="M554 -20q-180 0 -295 107t-115 275h64q1 -140 97 -229.5t249 -90.5q173 1 283.5 118t108.5 292q-1 179 -115.5 291t-280.5 113q-96 0 -174.5 -35.5t-125.5 -102.5l-76 -2l94 732h690v-62h-632l-78 -588h8q44 58 126 89.5t174 30.5q124 1 228 -56.5t166 -165t62 -244.5 q-1 -204 -130 -338t-328 -134z" />
<glyph unicode="6" horiz-adv-x="1170" vert-adv-y="2444" d="M596 -20q-98 0 -180.5 41t-146 122t-99.5 212.5t-36 302.5q0 106 10.5 202.5t33 189t60.5 167.5t89.5 132t124 88t160.5 31q170 0 277 -105t121 -277h-66q-13 144 -101 231.5t-231 88.5q-203 -1 -308.5 -194t-105.5 -558h12q40 106 147.5 173.5t236.5 68.5 q183 -1 312 -132.5t130 -325.5q-1 -123 -55 -227t-156 -167.5t-229 -63.5zM222 420q32 -179 131.5 -278t242.5 -100q160 1 267 116.5t107 279.5q0 165 -110.5 279.5t-271.5 114.5q-112 0 -203.5 -57t-136 -152.5t-26.5 -202.5z" />
<glyph unicode="7" horiz-adv-x="1078" vert-adv-y="2444" d="M196 0l698 1378v8h-802v62h878v-64l-702 -1384h-72z" />
<glyph unicode="8" horiz-adv-x="1204" vert-adv-y="2444" d="M602 -20q-200 0 -339 115t-139 281q0 131 89.5 237t226.5 135v6q-117 36 -191 131t-73 213q-1 155 123.5 262.5t302.5 107.5q177 0 301.5 -107t124.5 -263q0 -118 -73 -213t-191 -131v-6q137 -28 227 -134.5t89 -237.5q0 -109 -63 -200t-173 -143.5t-242 -52.5zM192 380 q-1 -92 52.5 -169.5t148 -123t209.5 -45.5q174 1 292.5 99t119.5 239q-1 140 -120 239t-292 99q-113 0 -208 -45.5t-149 -123t-53 -169.5zM240 1096q0 -132 106 -226t256 -94q149 0 255 94t107 226q-1 131 -106 220.5t-256 89.5t-256.5 -89.5t-105.5 -220.5z" />
<glyph unicode="9" horiz-adv-x="1170" vert-adv-y="2444" d="M572 1468q98 0 181 -40.5t147 -121t100 -212t36 -302.5q0 -128 -15 -242t-50.5 -220t-89 -182.5t-137 -122t-188.5 -45.5q-170 0 -277 106.5t-121 279.5h66q14 -145 102 -234t230 -88q203 -1 309 192.5t107 559.5h-12q-40 -106 -147.5 -173t-236.5 -67q-184 0 -313 131 t-129 325q0 123 54 227t155.5 166.5t228.5 62.5zM200 1014q-1 -166 110 -280.5t272 -115.5q170 1 281 125.5t83 286.5q-31 179 -130.5 277t-243.5 99q-160 -1 -266.5 -115t-105.5 -277z" />
<glyph unicode=":" horiz-adv-x="468" vert-adv-y="2444" d="M234 -8q-26 -1 -44.5 17.5t-19.5 44.5q1 26 19.5 44.5t44.5 19.5q26 -1 44.5 -19.5t17.5 -44.5q1 -26 -17.5 -44.5t-44.5 -17.5zM170 970q1 26 19.5 44.5t44.5 19.5q26 -1 44.5 -19.5t17.5 -44.5q1 -26 -17.5 -44.5t-44.5 -17.5q-26 -1 -44.5 17.5t-19.5 44.5z" />
<glyph unicode=";" horiz-adv-x="468" vert-adv-y="2444" d="M278 98l-128 -466h-54l114 466h68zM170 970q1 26 19.5 44.5t44.5 19.5q26 -1 44.5 -19.5t17.5 -44.5q1 -26 -17.5 -44.5t-44.5 -17.5q-26 -1 -44.5 17.5t-19.5 44.5z" />
<glyph unicode="&#x3c;" horiz-adv-x="1232" vert-adv-y="2444" d="M218 538v56l796 498v-74l-718 -448v-8l718 -448v-74z" />
<glyph unicode="=" horiz-adv-x="1232" vert-adv-y="2444" d="M264 728v62h704v-62h-704zM264 342v62h704v-62h-704z" />
<glyph unicode="&#x3e;" horiz-adv-x="1232" vert-adv-y="2444" d="M1014 538l-796 -498v74l718 449v6l-718 449v74l796 -498v-56z" />
<glyph unicode="?" horiz-adv-x="920" vert-adv-y="2444" d="M384 512q1 111 44 181.5t154 146.5q100 70 141.5 131.5t40.5 140.5q1 128 -87.5 211t-220.5 83q-137 0 -228 -90t-92 -230h-66q1 166 110.5 274t275.5 108q160 0 267 -101.5t107 -256.5q0 -94 -47.5 -166.5t-160.5 -151.5q-100 -71 -135.5 -129.5t-36.5 -150.5v-86h-66 v86zM354 54q1 26 19.5 44.5t44.5 19.5q26 -1 44.5 -19.5t17.5 -44.5q1 -26 -17.5 -44.5t-44.5 -17.5q-26 -1 -44.5 17.5t-19.5 44.5z" />
<glyph unicode="@" horiz-adv-x="1816" vert-adv-y="2444" d="M866 188q-142 1 -231 118t-89 306q0 187 89 303.5t231 116.5q98 0 170 -58t98 -150h4v196h62v-576q1 -95 48.5 -149t125.5 -53q119 -1 190 119t72 319q0 305 -202.5 498t-527.5 194q-159 0 -294.5 -57t-230 -157t-148 -241t-53.5 -305q0 -226 89 -398.5t254 -267 t383 -94.5q162 0 294 32v-60q-138 -32 -294 -32q-234 0 -412.5 102t-277 288.5t-98.5 429.5q0 177 59 329.5t162.5 260t250 169t316.5 61.5q173 0 320 -56t250.5 -154.5t161.5 -238.5t58 -303q0 -226 -88.5 -362t-233.5 -136q-98 0 -163 60t-72 158h-3q-29 -94 -101 -152.5 t-169 -59.5zM608 612q0 -162 72.5 -262.5t193.5 -99.5q118 0 192 103t74 259q-2 156 -75.5 257.5t-190.5 102.5q-120 0 -193 -99.5t-73 -260.5z" />
<glyph unicode="A" horiz-adv-x="1204" vert-adv-y="2444" d="M112 0h-70l518 1448h82l520 -1448h-70l-170 476h-640zM304 540h596l-294 824h-8z" />
<glyph unicode="B" horiz-adv-x="1236" vert-adv-y="2444" d="M196 0v1448h462q188 0 292.5 -99.5t103.5 -270.5q1 -130 -58.5 -220t-163.5 -116v-8q118 -9 198.5 -109.5t81.5 -252.5q-1 -170 -108.5 -271t-301.5 -101h-506zM262 64h440q159 -1 251.5 84t92.5 224q0 145 -96.5 238.5t-247.5 93.5h-440v-640zM262 766h436 q138 1 215 89.5t77 222.5q0 144 -88 225.5t-244 82.5h-396v-620z" />
<glyph unicode="C" horiz-adv-x="1398" vert-adv-y="2444" d="M1216 996q-14 74 -53.5 145.5t-100.5 130.5t-149 95.5t-189 36.5q-110 0 -207.5 -45.5t-171.5 -129.5t-117.5 -214.5t-43.5 -290.5q0 -161 43.5 -292t118 -214.5t171.5 -128.5t207 -45q101 0 189 36t149 95.5t100.5 130.5t53.5 146h68q-12 -67 -40.5 -132.5t-77.5 -127.5 t-111.5 -108.5t-148 -75t-182.5 -28.5q-269 0 -437 205t-169 539q1 334 169 539t437 205q120 0 222 -42.5t170 -112t110.5 -150.5t57.5 -167h-68z" />
<glyph unicode="D" horiz-adv-x="1382" vert-adv-y="2444" d="M586 0h-390v1448h424q303 0 473 -190t169 -528q0 -347 -177.5 -538.5t-498.5 -191.5zM262 64h324q294 -1 453.5 175t158.5 491q-2 309 -152.5 482t-425.5 174h-358v-1322z" />
<glyph unicode="E" vert-adv-y="2444" d="M196 0v1448h790v-62h-724v-630h680v-64h-680v-628h742v-64h-808z" />
<glyph unicode="F" vert-adv-y="2444" d="M196 0v1448h794v-62h-728v-630h660v-64h-660v-692h-66z" />
<glyph unicode="G" horiz-adv-x="1430" vert-adv-y="2444" d="M1218 996q-15 76 -54.5 146.5t-100 130t-149 95.5t-190.5 36q-242 0 -391 -186t-149 -494q0 -306 149.5 -492.5t396.5 -187.5q222 1 360.5 151t139.5 409h-482v64h548v-64q0 -288 -157.5 -456t-408.5 -168q-277 0 -444 204.5t-168 539.5q1 335 168 539.5t438 204.5 q97 0 183 -28t148.5 -75t111.5 -108.5t77.5 -127.5t39.5 -133h-66z" />
<glyph unicode="H" horiz-adv-x="1424" vert-adv-y="2444" d="M196 0v1448h66v-692h900v692h66v-1448h-66v692h-900v-692h-66z" />
<glyph unicode="I" horiz-adv-x="460" vert-adv-y="2444" d="M262 1448v-1448h-66v1448h66z" />
<glyph unicode="J" horiz-adv-x="1000" vert-adv-y="2444" d="M736 1448h68v-1058q-1 -106 -29.5 -186.5t-79 -128.5t-114 -71.5t-139.5 -23.5q-155 0 -258 85.5t-102 216.5h66q-1 -103 84 -171t210 -67q130 -1 212 82.5t82 263.5v1058z" />
<glyph unicode="K" horiz-adv-x="1196" vert-adv-y="2444" d="M196 0v1448h66v-874h8l794 874h88l-634 -694l628 -754h-84l-586 706l-214 -234v-472h-66z" />
<glyph unicode="L" horiz-adv-x="1078" vert-adv-y="2444" d="M196 0v1448h66v-1384h716v-64h-782z" />
<glyph unicode="M" horiz-adv-x="1686" vert-adv-y="2444" d="M196 1448h68l576 -1350h6l576 1350h66v-1448h-64v1274h-6l-544 -1274h-62l-544 1274h-6v-1274h-66v1448z" />
<glyph unicode="N" horiz-adv-x="1490" vert-adv-y="2444" d="M1292 1448v-1448h-64l-958 1326h-8v-1326h-66v1448h66l958 -1326h8v1326h64z" />
<glyph unicode="O" horiz-adv-x="1450" vert-adv-y="2444" d="M1330 724q0 -220 -76 -389.5t-214 -262t-316 -92.5t-315.5 93t-214 262.5t-76.5 388.5q0 220 76.5 389.5t214 262t315.5 92.5t316 -92.5t214 -262t76 -389.5zM184 724q0 -305 149.5 -492t390.5 -188q241 1 391.5 188t150.5 492q-1 306 -151 493t-391 187 q-240 0 -390 -186.5t-150 -493.5z" />
<glyph unicode="P" horiz-adv-x="1174" vert-adv-y="2444" d="M196 0v1448h436q192 0 310 -120.5t118 -309.5q0 -188 -118 -307.5t-310 -120.5h-370v-590h-66zM262 654h368q164 0 264 101.5t100 262.5q0 162 -100 264.5t-264 103.5h-368v-732z" />
<glyph unicode="Q" horiz-adv-x="1450" vert-adv-y="2444" d="M764 452h78l214 -283q100 89 155 232t55 323q-1 306 -151 493t-391 187q-240 0 -390 -186.5t-150 -493.5q0 -305 149.5 -492t390.5 -188q156 0 283 86zM118 724q0 220 76.5 389.5t214 262t315.5 92.5t316 -92.5t214 -262t76 -389.5q1 -196 -60.5 -352.5t-173.5 -254.5 l190 -253h-78l-162 214q-142 -98 -322 -98q-178 0 -315.5 93t-214 262.5t-76.5 388.5z" />
<glyph unicode="R" horiz-adv-x="1190" vert-adv-y="2444" d="M196 0v1448h436q193 0 310.5 -115t117.5 -303q0 -146 -74.5 -250t-204.5 -143l345 -637h-76l-336 622q-40 -6 -82 -6h-370v-616h-66zM262 678h368q165 1 264.5 96.5t99.5 255.5q0 161 -99.5 258t-264.5 98h-368v-708z" />
<glyph unicode="S" horiz-adv-x="1184" vert-adv-y="2444" d="M974 1086q-11 143 -112.5 232t-261.5 90q-163 -1 -269 -89.5t-105 -224.5q-1 -109 75.5 -182t224.5 -118l162 -50q184 -56 278 -144.5t94 -227.5q0 -173 -130.5 -284t-341.5 -112q-201 1 -326 103t-136 267h66q11 -139 118.5 -222.5t277.5 -83.5q181 0 293.5 92 t112.5 240q0 113 -77.5 185.5t-246.5 124.5l-166 50q-344 107 -344 360q0 163 125.5 271t314.5 107q188 1 309 -107t131 -277h-66z" />
<glyph unicode="T" horiz-adv-x="1188" vert-adv-y="2444" d="M96 1386v62h996v-62h-464v-1386h-66v1386h-466z" />
<glyph unicode="U" horiz-adv-x="1448" vert-adv-y="2444" d="M1186 1448h66v-958q-1 -222 -150.5 -367.5t-377.5 -146.5q-227 1 -377.5 147.5t-150.5 366.5v958h66v-956q1 -195 131.5 -323t330.5 -127q200 -1 330.5 127t131.5 323v956z" />
<glyph unicode="V" horiz-adv-x="1204" vert-adv-y="2444" d="M112 1448l486 -1364h8l486 1364h70l-520 -1448h-82l-518 1448h70z" />
<glyph unicode="W" horiz-adv-x="1754" vert-adv-y="2444" d="M432 0l-398 1448h68l368 -1346h6l358 1346h84l358 -1346h8l366 1346h70l-398 -1448h-82l-360 1342h-6l-360 -1342h-82z" />
<glyph unicode="X" horiz-adv-x="1140" vert-adv-y="2444" d="M126 1448l442 -668h6l442 668h80l-482 -724l482 -724h-80l-442 668h-6l-444 -668h-80l484 724l-484 724h82z" />
<glyph unicode="Y" horiz-adv-x="1196" vert-adv-y="2444" d="M44 1448h80l470 -704h8l470 704h80l-522 -776v-672h-66v672z" />
<glyph unicode="Z" horiz-adv-x="1168" vert-adv-y="2444" d="M124 0v58l840 1328h-836v62h916v-58l-840 -1326h846v-64h-926z" />
<glyph unicode="[" horiz-adv-x="600" vert-adv-y="2444" d="M226 -408v1918h276v-60h-214v-1796h214v-62h-276z" />
<glyph unicode="\" horiz-adv-x="612" vert-adv-y="2444" d="M506 -218l-466 1734h64l466 -1734h-64z" />
<glyph unicode="]" horiz-adv-x="600" vert-adv-y="2444" d="M374 -408h-276v62h214v1796h-214v60h276v-1918z" />
<glyph unicode="^" horiz-adv-x="776" vert-adv-y="2444" d="M70 792l288 612h60l288 -612h-68l-247 526h-6l-245 -526h-70z" />
<glyph unicode="_" horiz-adv-x="814" vert-adv-y="2444" d="M840 0v-62h-866v62h866z" />
<glyph unicode="`" horiz-adv-x="948" vert-adv-y="2444" d="M540 1242l-210 310h78l194 -310h-62z" />
<glyph unicode="a" horiz-adv-x="1042" vert-adv-y="2444" d="M106 296q0 64 20.5 117t64.5 97.5t120.5 73t180.5 36.5q282 21 316 23v131q0 121 -81 194t-217 74q-118 -1 -202.5 -53.5t-105.5 -144.5h-68q19 119 124 189t252 69q159 1 261 -89t101 -243v-770h-64v210h-6q-49 -106 -142.5 -169.5t-215.5 -64.5q-143 1 -240 86.5 t-98 233.5zM172 296q0 -116 78 -186.5t198 -71.5q155 1 257.5 117.5t102.5 296.5v133q-137 -12 -298 -23q-338 -26 -338 -266z" />
<glyph unicode="b" horiz-adv-x="1156" vert-adv-y="2444" d="M196 0v1448h66v-622h6q42 125 136.5 201t223.5 75q126 0 223.5 -72.5t150 -200.5t52.5 -289t-52 -289t-149.5 -200.5t-224.5 -72.5q-130 -1 -223 75t-137 203h-8v-256h-64zM262 540q-1 -143 42.5 -256t126.5 -178.5t193 -65.5q111 0 194.5 66t126.5 179t43 255 q0 143 -43 256t-126.5 178.5t-194.5 65.5q-165 1 -264 -140t-98 -360z" />
<glyph unicode="c" horiz-adv-x="1060" vert-adv-y="2444" d="M564 -22q-133 0 -239 73t-164.5 201t-58.5 288q0 159 58.5 287t164 201.5t237.5 73.5q151 1 261 -92t135 -242h-68q-21 120 -111.5 196.5t-214.5 75.5q-171 1 -284 -141t-114 -359q1 -214 112.5 -357t285.5 -143q126 0 217.5 76.5t110.5 201.5h68q-23 -153 -133 -247 t-263 -93z" />
<glyph unicode="d" horiz-adv-x="1156" vert-adv-y="2444" d="M528 -22q-128 0 -225.5 72.5t-149 200t-51.5 289.5q0 161 52 289t149.5 200.5t224.5 72.5q129 1 223 -75t135 -201h8v622h64v-1448h-64v256h-8q-43 -127 -136 -203t-222 -75zM168 540q-1 -218 97.5 -359t264.5 -141t265 140.5t99 359.5q0 220 -99 360.5t-265 139.5 q-110 0 -193 -65.5t-126.5 -178.5t-42.5 -256z" />
<glyph unicode="e" horiz-adv-x="1108" vert-adv-y="2444" d="M580 -22q-142 0 -251.5 73t-168 200.5t-58.5 288.5q0 159 58.5 287.5t163.5 201.5t234 73q123 0 225.5 -66.5t162.5 -185.5t60 -266v-50h-840q2 -139 50 -250.5t143 -177.5t221 -66q67 0 124.5 18.5t96.5 49.5t64 60.5t41 59.5h70q-37 -100 -142.5 -175.5t-253.5 -74.5z M167 596h773q1 186 -110.5 315.5t-271.5 128.5q-156 1 -268 -126.5t-123 -317.5z" />
<glyph unicode="f" horiz-adv-x="626" vert-adv-y="2444" d="M556 1086v-60h-236l-2 -1026h-64v1026h-152v60h152v174q1 118 63 186t173 68q47 0 82 -8v-62q-28 6 -76 8q-86 -1 -131 -52.5t-45 -145.5v-168h236z" />
<glyph unicode="g" horiz-adv-x="1128" vert-adv-y="2444" d="M544 -430q-154 0 -264.5 63t-137.5 185h70q23 -91 114 -138.5t218 -47.5q168 0 259 87t91 259v282h-8q-39 -121 -135 -189t-223 -69q-192 1 -309 149.5t-117 390.5q0 162 51.5 289t149 199t225.5 72q130 1 222.5 -74.5t137.5 -201.5h6v260h64v-1110q1 -198 -109.5 -302 t-304.5 -104zM168 542q-1 -214 97 -345.5t265 -132.5q168 1 266 129t98 349q0 143 -43 255.5t-126.5 177.5t-194.5 65q-110 0 -193.5 -65.5t-126.5 -178t-42 -254.5z" />
<glyph unicode="h" horiz-adv-x="1096" vert-adv-y="2444" d="M230 718v-718h-66v1448h66v-534h6q40 86 126 136t200 50q164 0 267 -103.5t103 -272.5v-724h-66v722q1 141 -85.5 228.5t-226.5 87.5q-142 0 -233 -89.5t-91 -230.5z" />
<glyph unicode="i" horiz-adv-x="404" vert-adv-y="2444" d="M170 0v1086h64v-1086h-64zM146 1338q0 22 16.5 38.5t39.5 17.5q24 -1 41 -17.5t17 -38.5q0 -23 -17 -40t-41 -16q-23 -1 -39.5 16t-16.5 40z" />
<glyph unicode="j" horiz-adv-x="404" vert-adv-y="2444" d="M170 1086h64v-1232q0 -118 -73.5 -189.5t-184.5 -72.5q-10 1 -20 0v64q9 -2 18 0q83 -1 139 53t57 145v1232zM146 1338q0 22 16.5 38.5t39.5 17.5q24 -1 41 -17.5t17 -38.5q0 -23 -17 -40t-41 -16q-23 -1 -39.5 16t-16.5 40z" />
<glyph unicode="k" horiz-adv-x="946" vert-adv-y="2444" d="M164 0v1448h66v-914h8l560 552h88l-473 -468l493 -618h-84l-456 575l-136 -131v-444h-66z" />
<glyph unicode="l" horiz-adv-x="394" vert-adv-y="2444" d="M230 1448v-1448h-66v1448h66z" />
<glyph unicode="m" horiz-adv-x="1632" vert-adv-y="2444" d="M164 0v1086h64v-162h8q30 81 107.5 128.5t184.5 47.5q117 0 191 -57t105 -161h6q29 101 112 159.5t204 58.5q157 0 239 -99t83 -271v-730h-66v728q0 145 -67 227.5t-199 82.5q-136 0 -211.5 -86t-76.5 -226v-726h-64v732q-1 141 -67.5 223.5t-198.5 82.5 q-134 0 -211 -87.5t-77 -228.5v-722h-66z" />
<glyph unicode="n" horiz-adv-x="1094" vert-adv-y="2444" d="M230 718v-718h-66v1086h64v-172h8q39 86 125 136t199 50q164 0 267 -103.5t103 -272.5v-724h-66v722q1 141 -85.5 228.5t-226.5 87.5q-141 0 -231.5 -89.5t-90.5 -230.5z" />
<glyph unicode="o" horiz-adv-x="1116" vert-adv-y="2444" d="M558 -22q-196 -1 -326 159.5t-130 402.5t130 402.5t326 159.5q196 1 326.5 -159.5t131.5 -402.5q0 -159 -59.5 -288t-164 -201.5t-234.5 -72.5zM166 540q0 -140 50 -254.5t140 -180t202 -65.5q170 -1 281 142.5t111 357.5q0 213 -111 357t-281 143q-111 0 -201 -66 t-140.5 -180.5t-50.5 -253.5z" />
<glyph unicode="p" vert-adv-y="2444" d="M164 -408v1494h64v-260h8q44 126 137 201.5t223 74.5q127 0 224.5 -72.5t149.5 -200t52 -289.5q0 -161 -52.5 -288.5t-150 -200.5t-223.5 -73q-130 -1 -224 75t-136 203h-6v-664h-66zM230 540q-1 -218 98 -359t264 -141q166 0 265.5 141t98.5 359q1 219 -98 360t-266 140 q-166 1 -264.5 -139.5t-97.5 -360.5z" />
<glyph unicode="q" vert-adv-y="2444" d="M894 -408v664h-8q-41 -126 -135 -202.5t-223 -75.5q-127 0 -224.5 73t-149.5 200.5t-52 288.5q0 247 117 405t309 157q130 1 223 -74.5t135 -201.5h8v260h64v-1494h-64zM168 540q-1 -142 42.5 -255t126.5 -179t193 -66q166 0 265 140.5t99 359.5q0 144 -43 257 t-126.5 178t-194.5 65q-110 0 -193.5 -65.5t-126.5 -178.5t-42 -256z" />
<glyph unicode="r" horiz-adv-x="620" vert-adv-y="2444" d="M164 0v1086h64v-172h8q36 85 122 136t196 50q17 1 32 0v-64h-34q-140 1 -231 -87.5t-91 -226.5v-722h-66z" />
<glyph unicode="s" horiz-adv-x="948" vert-adv-y="2444" d="M768 844q-20 92 -93 144.5t-183 53.5q-125 1 -203.5 -63.5t-78.5 -164.5q0 -164 216 -218l168 -42q123 -31 186.5 -101.5t63.5 -174.5q0 -134 -102 -217.5t-270 -82.5q-154 -1 -251 73.5t-117 208.5h68q19 -107 96.5 -164t203.5 -58q139 1 223 65.5t83 172.5 q1 80 -50.5 136t-153.5 80l-168 42q-128 32 -194.5 103t-65.5 175q-1 130 96 211t250 79q140 0 230.5 -71t111.5 -187h-66z" />
<glyph unicode="t" horiz-adv-x="656" vert-adv-y="2444" d="M526 1086v-60h-228v-784q0 -92 56.5 -144.5t137.5 -53.5q34 2 66 2v-62q-24 -3 -68 -2q-106 -1 -181.5 68.5t-74.5 185.5v790h-160v60h160v260h64v-260h228z" />
<glyph unicode="u" horiz-adv-x="1094" vert-adv-y="2444" d="M864 370v716h64v-1086h-64v174h-6q-40 -86 -126.5 -137t-199.5 -51q-162 0 -264.5 103.5t-103.5 272.5v724h66v-722q0 -140 86.5 -227t225.5 -87q138 0 230 89.5t92 230.5z" />
<glyph unicode="v" horiz-adv-x="1010" vert-adv-y="2444" d="M934 1086l-390 -1086h-80l-388 1086h68l358 -1004h6l356 1004h70z" />
<glyph unicode="w" horiz-adv-x="1538" vert-adv-y="2444" d="M398 0l-322 1086h68l292 -994h6l294 994h66l294 -992h6l292 992h68l-324 -1086h-78l-288 974h-6l-288 -974h-80z" />
<glyph unicode="x" horiz-adv-x="966" vert-adv-y="2444" d="M172 1086l310 -492l310 492h76l-346 -542l346 -544h-74l-312 490l-310 -490h-76l346 544l-346 542h76z" />
<glyph unicode="y" horiz-adv-x="1010" vert-adv-y="2444" d="M200 -408q-5 0 -16.5 0.5t-15.5 1.5v62q14 -2 30 -2q25 0 45.5 3t46.5 14t47 30t43 52t38 79l54 150l-396 1104h68l358 -1004h6l356 1004h70l-458 -1278q-76 -215 -276 -216z" />
<glyph unicode="z" horiz-adv-x="980" vert-adv-y="2444" d="M126 0v58l646 958v8h-606v62h688v-60l-642 -956v-8h668v-62h-754z" />
<glyph unicode="{" horiz-adv-x="600" vert-adv-y="2444" d="M100 584q121 0 165.5 44.5t44.5 165.5v402q0 161 66 238t208 76v-60q-112 0 -162 -60t-50 -194v-410q0 -96 -26.5 -151.5t-89.5 -79.5v-8q63 -25 89.5 -80t26.5 -149v-410q0 -134 50 -194.5t162 -59.5v-62q-142 1 -208 78t-66 238v400q0 121 -44.5 166t-165.5 46v64z" />
<glyph unicode="|" horiz-adv-x="518" vert-adv-y="2444" d="M290 1652v-1856h-62v1856h62z" />
<glyph unicode="}" horiz-adv-x="600" vert-adv-y="2444" d="M500 520q-121 -1 -165.5 -46t-44.5 -166v-400q0 -161 -66 -238t-208 -78v62q112 -1 162 59.5t50 194.5v410q0 94 26.5 149t89.5 80v8q-63 24 -89.5 79.5t-26.5 151.5v410q0 134 -50 194t-162 60v60q142 1 208 -76t66 -238v-402q0 -121 44.5 -165.5t165.5 -44.5v-64z" />
<glyph unicode="~" horiz-adv-x="1232" vert-adv-y="2444" d="M178 560q97 102 226 102q53 0 113.5 -18t105.5 -39.5t101.5 -39t103.5 -17.5q131 -2 226 122v-84q-98 -101 -226 -100q-53 0 -113.5 17.5t-105.5 39t-102 39.5t-103 18q-132 0 -226 -124v84z" />
<glyph unicode="&#xa2;" horiz-adv-x="1060" vert-adv-y="2444" d="M530 0v163q-189 14 -308.5 171.5t-119.5 389.5q0 231 120 389.5t308 171.5v163h56v-163q143 -7 245.5 -98.5t126.5 -234.5h-68q-20 115 -104 190t-200 81v-998q118 7 202.5 82.5t103.5 194.5h68q-22 -147 -125.5 -240t-248.5 -100v-162h-56zM166 724q1 -203 102 -343 t262 -155v997q-159 -14 -261 -153.5t-103 -345.5z" />
<glyph unicode="&#xa3;" horiz-adv-x="1214" vert-adv-y="2444" d="M1028 0h-896v64h75q69 1 100.5 68t28.5 168l-8 296h-196v64h195l-11 398q-4 183 104 296.5t278 113.5q111 0 200 -50.5t131 -136t23 -181.5l-66 16q23 118 -63.5 204t-222.5 86q-144 -1 -233 -96.5t-85 -251.5l11 -398h357v-64h-356l8 -296q5 -165 -69 -236h695v-64z" />
<glyph unicode="&#xa5;" horiz-adv-x="1006" vert-adv-y="2444" d="M92 1448l407 -762h8l407 762h74l-425 -788h309v-60h-336v-130h336v-58h-336v-412h-66v412h-336v58h336v130h-336v60h309l-425 788h74z" />
<glyph unicode="&#xa8;" horiz-adv-x="1250" vert-adv-y="2444" d="M478 1282q-22 -1 -39 16t-17 40q0 22 16.5 38.5t39.5 17.5q23 -1 39.5 -17.5t16.5 -38.5q0 -23 -16.5 -40t-39.5 -16zM714 1338q1 22 17.5 38.5t38.5 17.5q24 -1 40.5 -17.5t15.5 -38.5q1 -23 -15.5 -40t-40.5 -16q-22 -1 -38.5 16t-17.5 40z" />
<glyph unicode="&#xa9;" horiz-adv-x="1732" vert-adv-y="2444" d="M464 724q0 174 122.5 297t297.5 123q127 0 223.5 -69.5t134.5 -182.5h-70q-34 86 -111 137t-177 51q-148 0 -252.5 -104t-103.5 -252q-1 -147 103.5 -251.5t252.5 -104.5q100 0 175.5 51.5t110.5 138.5h68q-38 -114 -132.5 -184t-221.5 -70q-175 0 -297.5 123t-122.5 297 zM118 724q1 203 101.5 375t272.5 271.5t374 99.5q203 0 374.5 -99.5t271.5 -271.5t100 -375q1 -152 -58 -290t-159 -238t-238.5 -159t-290.5 -59q-202 0 -374.5 99.5t-273 272t-100.5 374.5zM182 724q0 -184 91.5 -341.5t249.5 -249t343 -91.5q139 0 266 53.5t218 145 t145 218t53 265.5q0 186 -91.5 343t-248.5 248t-342 91t-342 -91t-249 -248.5t-93 -342.5z" />
<glyph unicode="&#xab;" horiz-adv-x="1010" vert-adv-y="2444" d="M492 156h-68l-286 424v20l286 424h68l-287 -434zM500 580v20l286 424h68l-287 -434l287 -434h-68z" />
<glyph unicode="&#xad;" horiz-adv-x="838" vert-adv-y="2444" d="M696 652v-62h-554v62h554z" />
<glyph unicode="&#xae;" horiz-adv-x="1292" vert-adv-y="2444" d="M464 648v522h230q75 0 120 -43.5t46 -114.5q-1 -52 -26.5 -91.5t-70.5 -57.5l117 -215h-64l-108 203q-5 -1 -16 -1h-172v-202h-56zM80 902q0 115 45 220t120.5 180.5t180.5 120.5t220 45t220 -45t180.5 -120.5t120.5 -180.5t45 -220t-45 -219.5t-120.5 -180.5 t-180.5 -121t-220 -45t-220 45t-180.5 121t-120.5 180.5t-45 219.5zM140 902q0 -103 40 -197t107.5 -161.5t161.5 -107.5t197 -40q138 0 254.5 67.5t184 184t67.5 254.5t-67.5 254.5t-184 184t-254.5 67.5t-254.5 -67.5t-184 -184t-67.5 -254.5zM520 902h166q55 0 85 29 t31 81q-1 51 -31 78.5t-85 27.5h-166v-216z" />
<glyph unicode="&#xb4;" horiz-adv-x="948" vert-adv-y="2444" d="M436 1242l194 310h78l-212 -310h-60z" />
<glyph unicode="&#xb8;" horiz-adv-x="384" vert-adv-y="2444" d="M166 6h60l-10 -56q69 -11 107.5 -54t38.5 -112q0 -153 -206 -158l-4 56q78 1 113.5 25.5t36.5 76.5q-2 117 -158 116z" />
<glyph unicode="&#xbb;" horiz-adv-x="1022" vert-adv-y="2444" d="M152 156l287 434l-287 434h70l284 -424v-20l-284 -424h-70zM526 156l287 434l-287 434h70l284 -424v-20l-284 -424h-70z" />
<glyph unicode="&#x2c6;" horiz-adv-x="806" vert-adv-y="2444" d="M606 1202l-204 214l-202 -214h-70v6l256 270h34l256 -270v-6h-70z" />
<glyph unicode="&#x2da;" horiz-adv-x="454" vert-adv-y="2444" d="M228 1220q-74 0 -125.5 50.5t-50.5 123.5q-1 72 50.5 123t125.5 51q73 0 124 -51t50 -123q1 -73 -49.5 -123.5t-124.5 -50.5zM108 1394q0 -50 35 -84.5t85 -35.5q50 1 84 35.5t34 84.5q0 49 -34.5 84t-83.5 34q-50 1 -85 -34t-35 -84z" />
<glyph unicode="&#x2dc;" horiz-adv-x="948" vert-adv-y="2444" d="M146 1272q7 72 61 118.5t129 47.5q43 0 82.5 -18t64 -39t59 -38t68.5 -17q48 -1 86.5 30t47.5 80l60 -12q-13 -71 -68 -115.5t-124 -44.5q-41 0 -78 17.5t-60.5 38.5t-60 38.5t-75.5 17.5q-53 0 -90.5 -31t-43.5 -79z" />
<glyph unicode="&#x400;" vert-adv-y="2444" d="M196 0v1448h790v-62h-724v-630h680v-64h-680v-628h742v-64h-808zM356 1914h78l194 -310h-62z" />
<glyph unicode="&#x401;" vert-adv-y="2444" d="M196 0v1448h790v-62h-724v-630h680v-64h-680v-628h742v-64h-808zM392 1700q0 22 16.5 38.5t39.5 17.5q23 -1 39.5 -17.5t16.5 -38.5q0 -23 -16.5 -40t-39.5 -16q-22 -1 -39 16t-17 40zM684 1700q1 22 17.5 38.5t38.5 17.5q24 -1 40.5 -17.5t15.5 -38.5q1 -23 -15.5 -40 t-40.5 -16q-22 -1 -38.5 16t-17.5 40z" />
<glyph unicode="&#x402;" horiz-adv-x="1498" vert-adv-y="2444" d="M1092 1448v-62h-464v-584q174 66 316 66q205 0 329 -120.5t123 -321.5q-1 -192 -115.5 -311.5t-300.5 -120.5l-4 64q162 1 258.5 101.5t95.5 268.5q-1 175 -105.5 276.5t-282.5 101.5q-147 0 -314 -70v-736h-66v1386h-466v62h996z" />
<glyph unicode="&#x403;" horiz-adv-x="1096" vert-adv-y="2444" d="M1000 1448v-62h-738v-1386h-66v1448h804zM560 1656l194 310h78l-212 -310h-60z" />
<glyph unicode="&#x404;" horiz-adv-x="1242" vert-adv-y="2444" d="M634 -20q-161 0 -279 83.5t-177 227t-60 329.5v202q1 189 60.5 334t178 228.5t281.5 83.5q203 0 331.5 -122t158.5 -332h-68q-32 187 -142 288.5t-278 101.5q-147 0 -251 -76.5t-154 -206.5t-51 -301v-66h672v-64h-672v-66q1 -170 51 -299t153 -205t248 -76 q170 0 281 101.5t143 288.5h68q-30 -209 -160.5 -331.5t-333.5 -122.5z" />
<glyph unicode="&#x405;" horiz-adv-x="1184" vert-adv-y="2444" d="M974 1086q-11 143 -112.5 232t-261.5 90q-163 -1 -269 -89.5t-105 -224.5q-1 -109 75.5 -182t224.5 -118l162 -50q184 -56 278 -144.5t94 -227.5q0 -173 -130.5 -284t-341.5 -112q-201 1 -326 103t-136 267h66q11 -139 118.5 -222.5t277.5 -83.5q181 0 293.5 92 t112.5 240q0 113 -77.5 185.5t-246.5 124.5l-166 50q-344 107 -344 360q0 163 125.5 271t314.5 107q188 1 309 -107t131 -277h-66z" />
<glyph unicode="&#x406;" horiz-adv-x="460" vert-adv-y="2444" d="M262 1448v-1448h-66v1448h66z" />
<glyph unicode="&#x407;" horiz-adv-x="460" vert-adv-y="2444" d="M262 1448v-1448h-66v1448h66zM28 1700q0 22 16.5 38.5t39.5 17.5q23 -1 39.5 -17.5t16.5 -38.5q0 -23 -16.5 -40t-39.5 -16q-23 -1 -39.5 16t-16.5 40zM320 1700q1 22 17.5 38.5t38.5 17.5q24 -1 40.5 -17.5t15.5 -38.5q1 -23 -15.5 -40t-40.5 -16q-22 -1 -38.5 16 t-17.5 40z" />
<glyph unicode="&#x408;" horiz-adv-x="1000" vert-adv-y="2444" d="M736 1448h68v-1058q-1 -106 -29.5 -186.5t-79 -128.5t-114 -71.5t-139.5 -23.5q-155 0 -258 85.5t-102 216.5h66q-1 -103 84 -171t210 -67q130 -1 212 82.5t82 263.5v1058z" />
<glyph unicode="&#x409;" horiz-adv-x="2068" vert-adv-y="2444" d="M-4 0v64h32q131 0 192 140.5t72 475.5l28 768h752v-680h478q192 1 304.5 -99.5t111.5 -270.5q1 -184 -110.5 -291t-305.5 -107h-544v1386h-622l-26 -728q-12 -357 -89 -507.5t-253 -150.5h-20zM1072 62h478q165 1 257.5 91.5t92.5 248.5q2 136 -94 220t-256 84h-478v-644 z" />
<glyph unicode="&#x40a;" horiz-adv-x="2134" vert-adv-y="2444" d="M196 0v1448h66v-680h810v680h66v-680h478q192 1 304.5 -99.5t111.5 -270.5q1 -184 -110.5 -291t-305.5 -107h-544v706h-810v-706h-66zM1138 62h478q165 1 257.5 91.5t92.5 248.5q2 136 -94 220t-256 84h-478v-644z" />
<glyph unicode="&#x40b;" horiz-adv-x="1742" vert-adv-y="2444" d="M1188 1448v-62h-516v-573q260 81 460 81q216 -2 327.5 -107t112.5 -313v-474h-66v474q-1 356 -372 356q-224 0 -462 -83v-747h-60v1386h-516v62h1092z" />
<glyph unicode="&#x40c;" horiz-adv-x="1196" vert-adv-y="2444" d="M196 0v1448h66v-874h8l794 874h88l-634 -694l628 -754h-84l-586 706l-214 -234v-472h-66zM572 1604l194 310h78l-212 -310h-60z" />
<glyph unicode="&#x40d;" horiz-adv-x="1490" vert-adv-y="2444" d="M196 1448h66v-1326h8l958 1326h64v-1448h-66v1326h-6l-958 -1326h-66v1448zM506 1914h78l194 -310h-62z" />
<glyph unicode="&#x40e;" horiz-adv-x="1114" vert-adv-y="2444" d="M206 -20v64h46q108 -1 164.5 38.5t95.5 139.5l26 64l-494 1162h70l458 -1078l430 1078h68l-498 -1248q-48 -121 -116.5 -170.5t-199.5 -49.5h-50zM382 1810h62q1 -57 31 -88t87 -30q57 -1 86.5 30.5t29.5 87.5h64q-1 -81 -49 -128.5t-131 -47.5q-84 0 -132 47.5 t-48 128.5z" />
<glyph unicode="&#x40f;" horiz-adv-x="1376" vert-adv-y="2444" d="M196 0v1448h66v-1384h852v1384h66v-1448h-458v-350h-66v350h-460z" />
<glyph unicode="&#x410;" horiz-adv-x="1204" vert-adv-y="2444" d="M112 0h-70l518 1448h82l520 -1448h-70l-170 476h-640zM304 540h596l-294 824h-8z" />
<glyph unicode="&#x411;" horiz-adv-x="1282" vert-adv-y="2444" d="M196 0v1448h802v-62h-736v-618h478q191 1 304 -100t112 -270q1 -183 -110.5 -290.5t-305.5 -107.5h-544zM262 62h478q166 1 258.5 91.5t91.5 248.5q1 137 -94.5 220.5t-255.5 83.5h-478v-644z" />
<glyph unicode="&#x412;" horiz-adv-x="1236" vert-adv-y="2444" d="M196 0v1448h462q188 0 292.5 -99.5t103.5 -270.5q1 -130 -58.5 -220t-163.5 -116v-8q118 -9 198.5 -109.5t81.5 -252.5q-1 -170 -108.5 -271t-301.5 -101h-506zM262 64h440q159 -1 251.5 84t92.5 224q0 145 -96.5 238.5t-247.5 93.5h-440v-640zM262 766h436 q138 1 215 89.5t77 222.5q0 144 -88 225.5t-244 82.5h-396v-620z" />
<glyph unicode="&#x413;" horiz-adv-x="1096" vert-adv-y="2444" d="M1000 1448v-62h-738v-1386h-66v1448h804z" />
<glyph unicode="&#x414;" horiz-adv-x="1406" vert-adv-y="2444" d="M42 -354v418h90q87 105 136.5 275.5t59.5 452.5l26 656h780v-1384h174v-412h-64v348h-1138v-354h-64zM212 64h858v1322h-654l-22 -594q-10 -263 -53 -432t-129 -296z" />
<glyph unicode="&#x415;" vert-adv-y="2444" d="M196 0v1448h790v-62h-724v-630h680v-64h-680v-628h742v-64h-808z" />
<glyph unicode="&#x416;" horiz-adv-x="1734" vert-adv-y="2444" d="M900 1448v-678h198l430 678h80l-452 -704l534 -744h-80l-506 708h-204v-708h-66v708h-204l-508 -708h-78l534 744l-452 704h80l430 -678h198v678h66z" />
<glyph unicode="&#x417;" horiz-adv-x="1212" vert-adv-y="2444" d="M612 -20q-193 0 -322 108t-130 274h66q1 -139 111.5 -229t274.5 -89q170 -1 278 95.5t110 240.5q-1 149 -120.5 242t-307.5 92h-38v64h38q165 0 273 86.5t109 229.5q-1 135 -96.5 223.5t-247.5 88.5q-151 0 -250 -89.5t-100 -230.5h-66q1 167 119.5 274.5t298.5 107.5 q178 0 292.5 -107t115.5 -267q-1 -125 -74.5 -216t-199.5 -126v-6q147 -34 232.5 -132t85.5 -236q0 -170 -127.5 -284t-324.5 -114z" />
<glyph unicode="&#x418;" horiz-adv-x="1490" vert-adv-y="2444" d="M196 1448h66v-1326h8l958 1326h64v-1448h-66v1326h-6l-958 -1326h-66v1448z" />
<glyph unicode="&#x419;" horiz-adv-x="1490" vert-adv-y="2444" d="M196 1448h66v-1326h8l958 1326h64v-1448h-66v1326h-6l-958 -1326h-66v1448zM566 1810h62q1 -57 31 -88t87 -30q57 -1 86.5 30.5t29.5 87.5h64q-1 -81 -49 -128.5t-131 -47.5q-84 0 -132 47.5t-48 128.5z" />
<glyph unicode="&#x41a;" horiz-adv-x="1142" vert-adv-y="2444" d="M1018 0l-518 712h-236v-712h-68v1448h68v-676h236l440 676h80l-464 -706l542 -742h-80z" />
<glyph unicode="&#x41b;" horiz-adv-x="1360" vert-adv-y="2444" d="M42 0v64h32q132 0 192.5 142t71.5 474l26 768h800v-1448h-66v1386h-670l-26 -728q-11 -354 -88 -506t-252 -152h-20z" />
<glyph unicode="&#x41c;" horiz-adv-x="1686" vert-adv-y="2444" d="M196 1448h68l576 -1350h6l576 1350h66v-1448h-64v1274h-6l-544 -1274h-62l-544 1274h-6v-1274h-66v1448z" />
<glyph unicode="&#x41d;" horiz-adv-x="1424" vert-adv-y="2444" d="M196 0v1448h66v-692h900v692h66v-1448h-66v692h-900v-692h-66z" />
<glyph unicode="&#x41e;" horiz-adv-x="1450" vert-adv-y="2444" d="M1330 724q0 -220 -76 -389.5t-214 -262t-316 -92.5t-315.5 93t-214 262.5t-76.5 388.5q0 220 76.5 389.5t214 262t315.5 92.5t316 -92.5t214 -262t76 -389.5zM184 724q0 -305 149.5 -492t390.5 -188q241 1 391.5 188t150.5 492q-1 306 -151 493t-391 187 q-240 0 -390 -186.5t-150 -493.5z" />
<glyph unicode="&#x41f;" horiz-adv-x="1322" vert-adv-y="2444" d="M1154 1448v-1448h-66v1386h-856v-1386h-66v1448h988z" />
<glyph unicode="&#x420;" horiz-adv-x="1174" vert-adv-y="2444" d="M196 0v1448h436q192 0 310 -120.5t118 -309.5q0 -188 -118 -307.5t-310 -120.5h-370v-590h-66zM262 654h368q164 0 264 101.5t100 262.5q0 162 -100 264.5t-264 103.5h-368v-732z" />
<glyph unicode="&#x421;" horiz-adv-x="1398" vert-adv-y="2444" d="M1216 996q-14 74 -53.5 145.5t-100.5 130.5t-149 95.5t-189 36.5q-110 0 -207.5 -45.5t-171.5 -129.5t-117.5 -214.5t-43.5 -290.5q0 -161 43.5 -292t118 -214.5t171.5 -128.5t207 -45q101 0 189 36t149 95.5t100.5 130.5t53.5 146h68q-12 -67 -40.5 -132.5t-77.5 -127.5 t-111.5 -108.5t-148 -75t-182.5 -28.5q-269 0 -437 205t-169 539q1 334 169 539t437 205q120 0 222 -42.5t170 -112t110.5 -150.5t57.5 -167h-68z" />
<glyph unicode="&#x422;" horiz-adv-x="1188" vert-adv-y="2444" d="M96 1386v62h996v-62h-464v-1386h-66v1386h-466z" />
<glyph unicode="&#x423;" horiz-adv-x="1114" vert-adv-y="2444" d="M206 -20v64h46q108 -1 164.5 38.5t95.5 139.5l26 64l-494 1162h70l458 -1078l430 1078h68l-498 -1248q-48 -121 -116.5 -170.5t-199.5 -49.5h-50z" />
<glyph unicode="&#x424;" horiz-adv-x="1424" vert-adv-y="2444" d="M786 1262q230 -1 374.5 -157t143.5 -407q0 -252 -142.5 -406.5t-371.5 -153.5h-44v-198h-66v198h-42q-231 -1 -375.5 155t-144.5 409q1 250 145.5 404.5t374.5 155.5h42v212h66v-212h40zM184 694q1 -105 31 -194.5t86.5 -156.5t143 -105t193.5 -38h42v998h-40 q-108 0 -195 -38.5t-143.5 -106.5t-87 -160t-30.5 -199zM746 200h42q212 0 332 139.5t118 358.5q0 107 -30 198t-86 158.5t-143 105.5t-195 38h-38v-998z" />
<glyph unicode="&#x425;" horiz-adv-x="1140" vert-adv-y="2444" d="M126 1448l442 -668h6l442 668h80l-482 -724l482 -724h-80l-442 668h-6l-444 -668h-80l484 724l-484 724h82z" />
<glyph unicode="&#x426;" horiz-adv-x="1366" vert-adv-y="2444" d="M1270 64l-20 -406h-52v342h-1002v1448h66v-1384h854v1384h64v-1384h90z" />
<glyph unicode="&#x427;" horiz-adv-x="1330" vert-adv-y="2444" d="M172 1448h66v-474q1 -356 372 -356q224 0 462 83v747h60v-1448h-60v635q-260 -81 -460 -81q-216 2 -327.5 107t-112.5 313v474z" />
<glyph unicode="&#x428;" horiz-adv-x="1784" vert-adv-y="2444" d="M196 1448h66v-1384h596v1384h68v-1384h594v1384h68v-1448h-1392v1448z" />
<glyph unicode="&#x429;" horiz-adv-x="1766" vert-adv-y="2444" d="M1670 62l-18 -404h-52v342h-1404v1448h66v-1384h596v1384h68v-1384h594v1384h68v-1386h82z" />
<glyph unicode="&#x42a;" horiz-adv-x="1568" vert-adv-y="2444" d="M96 1386v62h476v-680h478q192 1 304.5 -99.5t111.5 -270.5q1 -184 -110.5 -291t-305.5 -107h-544v1386h-410zM572 62h478q165 1 257.5 91.5t92.5 248.5q2 136 -94 220t-256 84h-478v-644z" />
<glyph unicode="&#x42b;" horiz-adv-x="1636" vert-adv-y="2444" d="M740 768q192 1 304.5 -99.5t111.5 -270.5q1 -184 -110.5 -291t-305.5 -107h-544v1448h66v-680h478zM262 62h478q165 1 257.5 91.5t92.5 248.5q2 136 -94 220t-256 84h-478v-644zM1372 0v1448h66v-1448h-66z" />
<glyph unicode="&#x42c;" horiz-adv-x="1258" vert-adv-y="2444" d="M740 768q192 1 304.5 -99.5t111.5 -270.5q1 -184 -110.5 -291t-305.5 -107h-544v1448h66v-680h478zM262 62h478q165 1 257.5 91.5t92.5 248.5q2 136 -94 220t-256 84h-478v-644z" />
<glyph unicode="&#x42d;" horiz-adv-x="1246" vert-adv-y="2444" d="M186 434q34 -191 141.5 -291t282.5 -99q147 0 250 76.5t151.5 205.5t48.5 298v66h-670v62h670v70q0 171 -50 301t-153.5 205.5t-250.5 75.5q-171 0 -279 -100.5t-141 -289.5h-68q31 208 159 331t331 123q164 0 283 -83.5t177.5 -226.5t59.5 -330v-208q-1 -188 -59.5 -331 t-176.5 -226t-280 -83q-207 0 -334.5 122.5t-159.5 331.5h68z" />
<glyph unicode="&#x42e;" horiz-adv-x="1908" vert-adv-y="2444" d="M262 1446v-716h314q2 331 170 534.5t436 203.5q178 0 316 -92.5t214 -262t76 -389.5t-76 -389.5t-214 -262t-316 -92.5q-258 0 -423.5 189t-181.5 499h-315v-670h-66v1448h66zM642 724q0 -305 149.5 -492t390.5 -188q241 1 391.5 188t150.5 492q-1 306 -151 493t-391 187 q-240 0 -390 -186.5t-150 -493.5z" />
<glyph unicode="&#x42f;" horiz-adv-x="1250" vert-adv-y="2444" d="M1052 0h-66v616h-368q-42 0 -82 6l-336 -622h-76l345 637q-130 39 -204.5 143t-74.5 250q0 188 117.5 303t310.5 115h434v-1448zM256 1030q0 -159 99 -255t263 -97h368v708h-366q-165 -1 -264.5 -98t-99.5 -258z" />
<glyph unicode="&#x430;" horiz-adv-x="1042" vert-adv-y="2444" d="M106 296q0 64 20.5 117t64.5 97.5t120.5 73t180.5 36.5q282 21 316 23v131q0 121 -81 194t-217 74q-118 -1 -202.5 -53.5t-105.5 -144.5h-68q19 119 124 189t252 69q159 1 261 -89t101 -243v-770h-64v210h-6q-49 -106 -142.5 -169.5t-215.5 -64.5q-143 1 -240 86.5 t-98 233.5zM172 296q0 -116 78 -186.5t198 -71.5q155 1 257.5 117.5t102.5 296.5v133q-137 -12 -298 -23q-338 -26 -338 -266z" />
<glyph unicode="&#x431;" horiz-adv-x="1102" vert-adv-y="2444" d="M948 1448q-26 -26 -70.5 -39.5t-80.5 -16t-102.5 -3.5t-98.5 -3q-215 -12 -316 -162.5t-114 -443.5h14q54 127 156.5 199.5t233.5 72.5q186 0 308 -144.5t122 -387.5q0 -244 -123.5 -393.5t-324.5 -148.5q-210 -1 -330 141.5t-120 404.5v110q0 408 116 605.5t368 208.5 q35 2 96.5 2t94 1.5t71.5 11.5t64 31zM166 502q1 -220 103 -341.5t283 -120.5q174 -1 278.5 131t103.5 349q1 216 -103 343t-269 127q-118 0 -210 -70.5t-138.5 -180.5t-47.5 -237z" />
<glyph unicode="&#x432;" horiz-adv-x="1056" vert-adv-y="2444" d="M164 0v1086h404q171 0 266 -68.5t94 -191.5q0 -188 -200 -252q103 -23 163.5 -95.5t60.5 -180.5q0 -131 -92 -214.5t-238 -83.5h-458zM228 62h394q119 0 192 66.5t72 175.5q1 101 -63.5 166t-164.5 66h-430v-474zM228 596h360q124 0 200.5 63t75.5 165q-1 97 -77.5 148.5 t-218.5 51.5h-340v-428z" />
<glyph unicode="&#x433;" horiz-adv-x="866" vert-adv-y="2444" d="M774 1086v-62h-544v-1024h-66v1086h610z" />
<glyph unicode="&#x434;" horiz-adv-x="1120" vert-adv-y="2444" d="M18 -306v368h98q76 95 119 222t59 310l44 492h572v-1024h152v-368h-64v306h-916v-306h-64zM194 62h650v962h-446l-40 -430q-29 -335 -164 -532z" />
<glyph unicode="&#x435;" horiz-adv-x="1108" vert-adv-y="2444" d="M580 -22q-142 0 -251.5 73t-168 200.5t-58.5 288.5q0 159 58.5 287.5t163.5 201.5t234 73q123 0 225.5 -66.5t162.5 -185.5t60 -266v-50h-840q2 -139 50 -250.5t143 -177.5t221 -66q67 0 124.5 18.5t96.5 49.5t64 60.5t41 59.5h70q-37 -100 -142.5 -175.5t-253.5 -74.5z M167 596h773q1 186 -110.5 315.5t-271.5 128.5q-156 1 -268 -126.5t-123 -317.5z" />
<glyph unicode="&#x436;" horiz-adv-x="1538" vert-adv-y="2444" d="M96 0l540 544l-532 542h86l500 -512h46v512h66v-512h44l502 512h84l-530 -542l538 -544h-86l-508 512h-44v-512h-66v512h-44l-508 -512h-88z" />
<glyph unicode="&#x437;" horiz-adv-x="926" vert-adv-y="2444" d="M158 278q6 -109 88.5 -174t217.5 -64q140 -1 224.5 69t85.5 185q-1 103 -65.5 169.5t-152.5 70.5h-194v62h188q200 31 200 202q0 109 -75.5 175t-198.5 65q-124 1 -205.5 -65.5t-86.5 -172.5h-66q6 133 106.5 216.5t251.5 83.5q153 0 246.5 -84.5t93.5 -215.5 q0 -85 -45 -144.5t-121 -83.5v-10q79 -14 133.5 -90t54.5 -178q0 -139 -102.5 -228t-271.5 -88q-162 -1 -264.5 82t-107.5 218h66z" />
<glyph unicode="&#x438;" horiz-adv-x="1132" vert-adv-y="2444" d="M230 78l648 1008h88v-1086h-64v1008l-650 -1008h-88v1086h66v-1008z" />
<glyph unicode="&#x439;" horiz-adv-x="1132" vert-adv-y="2444" d="M230 78l648 1008h88v-1086h-64v1008l-650 -1008h-88v1086h66v-1008zM386 1448h62q1 -57 31 -88t87 -30q57 -1 86.5 30.5t29.5 87.5h64q-1 -81 -49 -128.5t-131 -47.5q-84 0 -132 47.5t-48 128.5z" />
<glyph unicode="&#x43a;" horiz-adv-x="922" vert-adv-y="2444" d="M164 0v1086h66v-512h146l406 512h84l-430 -544l446 -542h-84l-422 510h-146v-510h-66z" />
<glyph unicode="&#x43b;" horiz-adv-x="1120" vert-adv-y="2444" d="M42 0v62h26q47 0 79.5 8.5t55.5 37t35.5 53.5t21 90.5t12 113t9.5 152.5q1 13 1 19l30 550h638v-1086h-64v1024h-514l-26 -500q-13 -242 -31 -324q-29 -130 -109 -172q-52 -28 -136 -28h-28z" />
<glyph unicode="&#x43c;" horiz-adv-x="1392" vert-adv-y="2444" d="M694 100l452 986h76v-1086h-64v968l-442 -968h-46l-440 967v-967h-66v1086h78z" />
<glyph unicode="&#x43d;" horiz-adv-x="1118" vert-adv-y="2444" d="M230 1086v-512h654v512h66v-1086h-66v512h-654v-512h-66v1086h66z" />
<glyph unicode="&#x43e;" horiz-adv-x="1116" vert-adv-y="2444" d="M558 -22q-196 -1 -326 159.5t-130 402.5t130 402.5t326 159.5q196 1 326.5 -159.5t131.5 -402.5q0 -159 -59.5 -288t-164 -201.5t-234.5 -72.5zM166 540q0 -140 50 -254.5t140 -180t202 -65.5q170 -1 281 142.5t111 357.5q0 213 -111 357t-281 143q-111 0 -201 -66 t-140.5 -180.5t-50.5 -253.5z" />
<glyph unicode="&#x43f;" horiz-adv-x="1112" vert-adv-y="2444" d="M170 0v1086h774v-1086h-66v1024h-644v-1024h-64z" />
<glyph unicode="&#x440;" vert-adv-y="2444" d="M164 -408v1494h64v-260h8q44 126 137 201.5t223 74.5q127 0 224.5 -72.5t149.5 -200t52 -289.5q0 -161 -52.5 -288.5t-150 -200.5t-223.5 -73q-130 -1 -224 75t-136 203h-6v-664h-66zM230 540q-1 -218 98 -359t264 -141q166 0 265.5 141t98.5 359q1 219 -98 360t-266 140 q-166 1 -264.5 -139.5t-97.5 -360.5z" />
<glyph unicode="&#x441;" horiz-adv-x="1060" vert-adv-y="2444" d="M564 -22q-133 0 -239 73t-164.5 201t-58.5 288q0 159 58.5 287t164 201.5t237.5 73.5q151 1 261 -92t135 -242h-68q-21 120 -111.5 196.5t-214.5 75.5q-171 1 -284 -141t-114 -359q1 -214 112.5 -357t285.5 -143q126 0 217.5 76.5t110.5 201.5h68q-23 -153 -133 -247 t-263 -93z" />
<glyph unicode="&#x442;" horiz-adv-x="982" vert-adv-y="2444" d="M92 1024v62h798v-62h-364v-1024h-64v1024h-370z" />
<glyph unicode="&#x443;" horiz-adv-x="1010" vert-adv-y="2444" d="M200 -408q-5 0 -16.5 0.5t-15.5 1.5v62q14 -2 30 -2q25 0 45.5 3t46.5 14t47 30t43 52t38 79l54 150l-396 1104h68l358 -1004h6l356 1004h70l-458 -1278q-76 -215 -276 -216z" />
<glyph unicode="&#x444;" horiz-adv-x="1368" vert-adv-y="2444" d="M652 -370v348q-151 0 -277.5 74t-199.5 203t-73 283q0 116 43 220.5t116.5 179t175.5 118.5t215 44v348h64v-348q114 0 216 -44t175.5 -118.5t116 -179t42.5 -220.5q0 -154 -72.5 -283t-199 -203t-278.5 -74v-348h-64zM166 538q1 -207 141.5 -353t344.5 -145v998 q-101 0 -191.5 -40t-154.5 -107t-102 -159.5t-38 -193.5zM716 40q135 0 247 67t175.5 181.5t63.5 249.5t-63.5 250t-175.5 182.5t-247 67.5v-998z" />
<glyph unicode="&#x445;" horiz-adv-x="966" vert-adv-y="2444" d="M172 1086l310 -492l310 492h76l-346 -542l346 -544h-74l-312 490l-310 -490h-76l346 544l-346 542h76z" />
<glyph unicode="&#x446;" horiz-adv-x="1098" vert-adv-y="2444" d="M942 1086v-1020h60v-420h-64v354h-770v1086h66v-1024h644v1024h64z" />
<glyph unicode="&#x447;" horiz-adv-x="1082" vert-adv-y="2444" d="M912 1086v-1086h-64v439q-180 -59 -314 -59q-184 1 -276.5 85.5t-93.5 260.5v366h66v-366q0 -149 74 -216t226 -66q142 -1 318 60v582h64z" />
<glyph unicode="&#x448;" horiz-adv-x="1524" vert-adv-y="2444" d="M164 1086h66v-1024h498v1024h64v-1024h498v1024h66v-1086h-1192v1086z" />
<glyph unicode="&#x449;" horiz-adv-x="1548" vert-adv-y="2444" d="M1452 62l-20 -376h-50v314h-1218v1086h66v-1024h498v1024h64v-1024h498v1024h66v-1024h96z" />
<glyph unicode="&#x44a;" horiz-adv-x="1180" vert-adv-y="2444" d="M404 1086v-460h306q176 1 272 -77t96 -233q0 -157 -96.5 -236.5t-271.5 -79.5h-372v1024h-328v62h394zM404 62h306q303 2 304 252q-1 127 -80 188.5t-224 61.5h-306v-502z" />
<glyph unicode="&#x44b;" horiz-adv-x="1342" vert-adv-y="2444" d="M540 626q176 1 272 -77t96 -233q0 -157 -96.5 -236.5t-271.5 -79.5h-372v1086h66v-460h306zM234 62h306q303 2 304 252q-1 127 -80 188.5t-224 61.5h-306v-502zM1108 0v1086h64v-1086h-64z" />
<glyph unicode="&#x44c;" horiz-adv-x="1006" vert-adv-y="2444" d="M536 626q176 1 272 -77t96 -233q0 -157 -96.5 -236.5t-271.5 -79.5h-372v1086h66v-460h306zM230 62h306q303 2 304 252q-1 127 -80 188.5t-224 61.5h-306v-502z" />
<glyph unicode="&#x44d;" horiz-adv-x="1014" vert-adv-y="2444" d="M482 1036q-124 -1 -220 -82t-96 -188h-64q0 88 53.5 165.5t141.5 122t185 44.5q124 0 223.5 -73t153 -195t53.5 -268v-40q0 -147 -54.5 -271t-153.5 -197.5t-222 -73.5q-101 0 -188.5 48t-139.5 131.5t-52 180.5h64q0 -119 94.5 -208t221.5 -88q101 0 184.5 63t131.5 170 t50 235h-500v62h500q-5 194 -108.5 327.5t-257.5 134.5z" />
<glyph unicode="&#x44e;" horiz-adv-x="1546" vert-adv-y="2444" d="M126 1086v-524h380q7 234 136.5 387.5t321.5 152.5q129 0 233.5 -72.5t163.5 -201.5t59 -288t-59 -288t-163.5 -201.5t-233.5 -72.5q-188 -1 -316.5 146t-140.5 374h-381v-498h-64v1086h64zM572 540q-1 -214 110 -357t282 -143q112 0 201.5 65.5t139 180t49.5 254.5 t-49.5 254.5t-139 180t-201.5 65.5t-202.5 -66t-140 -180.5t-49.5 -253.5z" />
<glyph unicode="&#x44f;" horiz-adv-x="1050" vert-adv-y="2444" d="M818 0v508h-318q-18 0 -52 2l-300 -510h-74l307 518q-223 43 -223 280q0 147 84.5 217.5t261.5 70.5h378v-1086h-64zM222 798q1 -121 67 -174t211 -54h318v456l-314 -2q-148 -1 -214.5 -53.5t-67.5 -172.5z" />
<glyph unicode="&#x450;" horiz-adv-x="1108" vert-adv-y="2444" d="M580 -22q-142 0 -251.5 73t-168 200.5t-58.5 288.5q0 159 58.5 287.5t163.5 201.5t234 73q123 0 225.5 -66.5t162.5 -185.5t60 -266v-50h-840q2 -139 50 -250.5t143 -177.5t221 -66q67 0 124.5 18.5t96.5 49.5t64 60.5t41 59.5h70q-37 -100 -142.5 -175.5t-253.5 -74.5z M167 596h773q1 186 -110.5 315.5t-271.5 128.5q-156 1 -268 -126.5t-123 -317.5zM314 1552h78l194 -310h-62z" />
<glyph unicode="&#x451;" horiz-adv-x="1108" vert-adv-y="2444" d="M580 -22q-142 0 -251.5 73t-168 200.5t-58.5 288.5q0 159 58.5 287.5t163.5 201.5t234 73q123 0 225.5 -66.5t162.5 -185.5t60 -266v-50h-840q2 -139 50 -250.5t143 -177.5t221 -66q67 0 124.5 18.5t96.5 49.5t64 60.5t41 59.5h70q-37 -100 -142.5 -175.5t-253.5 -74.5z M167 596h773q1 186 -110.5 315.5t-271.5 128.5q-156 1 -268 -126.5t-123 -317.5zM352 1338q0 22 16.5 38.5t39.5 17.5q23 -1 39.5 -17.5t16.5 -38.5q0 -23 -16.5 -40t-39.5 -16q-23 -1 -39.5 16t-16.5 40zM644 1338q1 22 17.5 38.5t38.5 17.5q24 -1 40.5 -17.5t15.5 -38.5 q1 -23 -15.5 -40t-40.5 -16q-22 -1 -38.5 16t-17.5 40z" />
<glyph unicode="&#x452;" horiz-adv-x="1096" vert-adv-y="2444" d="M866 722q1 141 -85.5 228.5t-226.5 87.5q-142 0 -233 -89.5t-91 -230.5v-718h-66v1254h-242v60h242v134h66v-134h242v-60h-242v-340h6q40 86 126 136t200 50q164 0 267 -103.5t103 -272.5v-880q-1 -120 -55.5 -184.5t-152.5 -63.5q-47 -2 -74 12v56q34 -8 66 -8 q150 0 150 188v878z" />
<glyph unicode="&#x453;" horiz-adv-x="866" vert-adv-y="2444" d="M774 1086v-62h-544v-1024h-66v1086h610zM428 1242l194 310h78l-212 -310h-60z" />
<glyph unicode="&#x454;" horiz-adv-x="906" vert-adv-y="2444" d="M462 564v-62h-389q8 -211 103 -335.5t254 -124.5q125 0 215.5 75t114.5 191h64q-21 -141 -130.5 -234.5t-263.5 -93.5q-193 0 -308 152t-114 404q-1 252 113.5 407t306.5 155q156 0 265.5 -99.5t130.5 -252.5h-64q-23 127 -112.5 208.5t-217.5 81.5q-159 0 -255 -128 t-103 -344h390z" />
<glyph unicode="&#x455;" horiz-adv-x="948" vert-adv-y="2444" d="M768 844q-20 92 -93 144.5t-183 53.5q-125 1 -203.5 -63.5t-78.5 -164.5q0 -164 216 -218l168 -42q123 -31 186.5 -101.5t63.5 -174.5q0 -134 -102 -217.5t-270 -82.5q-154 -1 -251 73.5t-117 208.5h68q19 -107 96.5 -164t203.5 -58q139 1 223 65.5t83 172.5 q1 80 -50.5 136t-153.5 80l-168 42q-128 32 -194.5 103t-65.5 175q-1 130 96 211t250 79q140 0 230.5 -71t111.5 -187h-66z" />
<glyph unicode="&#x456;" horiz-adv-x="404" vert-adv-y="2444" d="M170 0v1086h64v-1086h-64zM146 1338q0 22 16.5 38.5t39.5 17.5q24 -1 41 -17.5t17 -38.5q0 -23 -17 -40t-41 -16q-23 -1 -39.5 16t-16.5 40z" />
<glyph unicode="&#x457;" horiz-adv-x="404" vert-adv-y="2444" d="M170 0v1086h64v-1086h-64zM0 1338q0 22 16.5 38.5t39.5 17.5q23 -1 39.5 -17.5t16.5 -38.5q0 -23 -16.5 -40t-39.5 -16q-23 -1 -39.5 16t-16.5 40zM292 1338q1 22 17.5 38.5t38.5 17.5q24 -1 40.5 -17.5t15.5 -38.5q1 -23 -15.5 -40t-40.5 -16q-22 -1 -38.5 16t-17.5 40z " />
<glyph unicode="&#x458;" horiz-adv-x="404" vert-adv-y="2444" d="M170 1086h64v-1232q0 -118 -73.5 -189.5t-184.5 -72.5q-10 1 -20 0v64q9 -2 18 0q83 -1 139 53t57 145v1232zM146 1338q0 22 16.5 38.5t39.5 17.5q24 -1 41 -17.5t17 -38.5q0 -23 -17 -40t-41 -16q-23 -1 -39.5 16t-16.5 40z" />
<glyph unicode="&#x459;" horiz-adv-x="1752" vert-adv-y="2444" d="M62 0v62h26q47 0 79.5 8.5t55.5 37t35.5 53.5t21 90.5t12 113t9.5 152.5q1 13 1 19l28 550h646v-460h306q176 1 272 -77t96 -233q0 -157 -96.5 -236.5t-271.5 -79.5h-372v1024h-518l-26 -500q-14 -242 -31 -321q-28 -131 -106 -174q-53 -29 -139 -29h-28zM976 62h306 q303 2 304 252q-1 127 -80 188.5t-224 61.5h-306v-502z" />
<glyph unicode="&#x45a;" horiz-adv-x="1726" vert-adv-y="2444" d="M164 0v1086h66v-464h654v464h66v-464h306q176 0 272 -76t96 -230q0 -157 -96.5 -236.5t-271.5 -79.5h-372v558h-654v-558h-66zM950 62h306q146 1 224.5 62t77.5 190q1 126 -77.5 185.5t-224.5 60.5h-306v-498z" />
<glyph unicode="&#x45b;" horiz-adv-x="1096" vert-adv-y="2444" d="M230 718v-718h-66v1254h-242v60h242v134h66v-134h242v-60h-242v-340h6q40 86 126 136t200 50q164 0 267 -103.5t103 -272.5v-724h-66v722q1 141 -85.5 228.5t-226.5 87.5q-142 0 -233 -89.5t-91 -230.5z" />
<glyph unicode="&#x45c;" horiz-adv-x="922" vert-adv-y="2444" d="M164 0v1086h66v-512h146l406 512h84l-430 -544l446 -542h-84l-422 510h-146v-510h-66zM430 1242l194 310h78l-212 -310h-60z" />
<glyph unicode="&#x45d;" horiz-adv-x="1132" vert-adv-y="2444" d="M230 78l648 1008h88v-1086h-64v1008l-650 -1008h-88v1086h66v-1008zM326 1552h78l194 -310h-62z" />
<glyph unicode="&#x45e;" horiz-adv-x="1010" vert-adv-y="2444" d="M200 -408q-5 0 -16.5 0.5t-15.5 1.5v62q14 -2 30 -2q25 0 45.5 3t46.5 14t47 30t43 52t38 79l54 150l-396 1104h68l358 -1004h6l356 1004h70l-458 -1278q-76 -215 -276 -216zM326 1448h62q1 -57 31 -88t87 -30q57 -1 86.5 30.5t29.5 87.5h64q-1 -81 -49 -128.5 t-131 -47.5q-84 0 -132 47.5t-48 128.5z" />
<glyph unicode="&#x45f;" horiz-adv-x="1112" vert-adv-y="2444" d="M942 1086v-1086h-344v-348h-64v348h-366v1086h66v-1024h644v1024h64z" />
<glyph unicode="&#x460;" horiz-adv-x="1564" vert-adv-y="2444" d="M196 320v1128h66v-1128q1 -276 232 -276q119 0 187 71t67 205v1128h66v-1128q1 -135 68 -205.5t184 -70.5q110 0 172 66.5t62 209.5v1128h66v-1128q1 -170 -79.5 -255t-222.5 -85q-211 0 -282 190q-74 -190 -284 -190q-143 0 -222.5 84.5t-79.5 255.5z" />
<glyph unicode="&#x461;" horiz-adv-x="1426" vert-adv-y="2444" d="M164 314v772h66v-772q0 -140 57 -205.5t153 -66.5q108 1 173.5 71.5t64.5 200.5v772h66v-772q-1 -131 63.5 -201t170.5 -71q97 1 155.5 67t58.5 205v772h64v-772q1 -166 -75.5 -250t-206.5 -84q-194 0 -264 190q-70 -190 -266 -190q-128 0 -203.5 83.5t-76.5 250.5z" />
<glyph unicode="&#x462;" horiz-adv-x="1258" vert-adv-y="2444" d="M740 768q192 1 304.5 -99.5t111.5 -270.5q1 -184 -110.5 -291t-305.5 -107h-544v1114h-240v60h240v274h66v-274h244v-60h-244v-346h478zM262 62h478q165 1 257.5 91.5t92.5 248.5q2 136 -94 220t-256 84h-478v-644z" />
<glyph unicode="&#x463;" horiz-adv-x="1032" vert-adv-y="2444" d="M656 1172v-62h-402v-484h308q175 1 271 -77t97 -233q-1 -157 -97 -236.5t-271 -79.5h-372v1110h-218v62h218v502h64v-502h402zM254 62h308q145 1 224 62t78 190q1 127 -78.5 188.5t-223.5 61.5h-308v-502z" />
<glyph unicode="&#x464;" horiz-adv-x="1746" vert-adv-y="2444" d="M1164 782v-62h-616q1 -160 44.5 -290t118.5 -213t172 -128t207 -45q81 0 154 24t128.5 64t99 92.5t70.5 110t38 117.5h68q-12 -67 -40.5 -133t-77 -127.5t-111 -108.5t-148 -75t-181.5 -28q-270 0 -438 204t-168 536h-222v-720h-66v1448h66v-666h223q15 310 181 498 t424 188q119 0 221 -42.5t169.5 -112t110 -150.5t57.5 -167h-68q-14 74 -53.5 145.5t-100 130.5t-148.5 95.5t-188 36.5q-105 0 -199 -41.5t-167.5 -118.5t-119.5 -196t-54 -266h614z" />
<glyph unicode="&#x465;" horiz-adv-x="1474" vert-adv-y="2444" d="M1066 554v-62h-496q13 -196 122 -324t272 -128q126 0 218 76t112 202l66 -2q-23 -152 -132.5 -245.5t-263.5 -92.5q-191 -1 -318.5 144t-141.5 370h-252v-492h-64v1086h64v-532h250q3 155 62.5 280t164 196.5t235.5 71.5q150 1 260 -92t134 -242h-66q-22 120 -113 196.5 t-215 75.5q-168 1 -280 -136.5t-116 -349.5h498z" />
<glyph unicode="&#x466;" horiz-adv-x="1026" vert-adv-y="2444" d="M966 0l-158 470h-262v-470h-70v470h-249l-163 -470h-72l506 1448h50l492 -1448h-74zM250 534h536l-264 784z" />
<glyph unicode="&#x467;" horiz-adv-x="844" vert-adv-y="2444" d="M820 0l-144 332h-210v-332h-68v332h-230l-144 -332h-72l446 1028h48l446 -1028h-72zM195 394h454l-227 522z" />
<glyph unicode="&#x468;" horiz-adv-x="1542" vert-adv-y="2444" d="M164 1448v-914h365l319 914h50l492 -1448h-74l-158 470h-262v-470h-68v470h-249l-163 -470h-74l164 470h-342v-470h-68v1448h68zM601 534h536l-264 787z" />
<glyph unicode="&#x469;" horiz-adv-x="1296" vert-adv-y="2444" d="M1086 0l-136 332h-232v-332h-64v332h-229l-135 -332h-74l136 332h-192v-332h-64v1086h64v-692h218l284 692h50l446 -1086h-72zM451 394h474l-238 580z" />
<glyph unicode="&#x46a;" horiz-adv-x="1370" vert-adv-y="2444" d="M32 354q-1 209 106 315.5t314 106.5h153l-425 672h1014l-436 -672h160q210 0 318 -106.5t108 -315.5v-354h-70v354q0 181 -88 269.5t-268 88.5h-202v-712h-70v712h-194q-176 0 -263.5 -88.5t-86.5 -269.5v-354h-70v354zM300 1384l382 -608l392 608h-774z" />
<glyph unicode="&#x46b;" horiz-adv-x="1324" vert-adv-y="2444" d="M180 0h-70v100q0 225 97.5 329t302.5 105h84l-340 552h820l-339 -552h83q203 -1 300 -105t98 -329v-100h-70v100q0 199 -77 285t-251 85h-120v-470h-70v470h-118q-175 1 -253 -85.5t-77 -284.5v-100zM371 1024l294 -485l294 485h-588z" />
<glyph unicode="&#x46c;" horiz-adv-x="1760" vert-adv-y="2444" d="M46 0v1448h66v-672h859l-425 672h1014l-436 -672h160q210 0 318 -106.5t108 -315.5v-354h-70v354q0 181 -88 269.5t-268 88.5h-202v-712h-70v712h-194q-176 0 -263.5 -88.5t-86.5 -269.5v-354h-70v354q-1 256 159 358h-445v-712h-66zM666 1384l382 -608l392 608h-774z " />
<glyph unicode="&#x46d;" horiz-adv-x="1762" vert-adv-y="2444" d="M1025 534l-339 552h818l-339 -552h83q203 -1 300 -105t98 -329v-100h-70v100q0 199 -77 285t-251 85h-120v-470h-70v470h-124q-172 -1 -248.5 -87.5t-75.5 -282.5v-100h-70v100q0 272 145 370h-471v-470h-66v1086h66v-552h811zM801 1024l294 -485l294 485h-588z" />
<glyph unicode="&#x46e;" horiz-adv-x="978" vert-adv-y="2444" d="M444 1448q191 0 302.5 -91.5t111.5 -254.5q0 -130 -72.5 -222.5t-205.5 -132.5q136 -36 207 -126.5t71 -226.5q2 -181 -116 -297.5t-318 -116.5h-12q-224 0 -226 -150q0 -125 172 -216l-32 -50q-92 43 -149.5 111.5t-56.5 158.5q-1 101 76 155t218 55h10q170 -1 267.5 97 t98.5 253t-102.5 238t-303.5 82h-114v64h106q199 0 305.5 85.5t106.5 234.5q0 139 -89 213t-255 75h-326v62h326zM284 1854v12h48l178 -196l184 196h48v-12l-222 -258h-20z" />
<glyph unicode="&#x46f;" horiz-adv-x="828" vert-adv-y="2444" d="M326 1086q179 0 275.5 -65t96.5 -185q-1 -94 -58 -162.5t-160 -102.5q219 -56 220 -265q-1 -151 -108 -238.5t-294 -87.5h-12q-226 0 -226 -150q-2 -127 170 -216l-30 -50q-98 46 -153 116.5t-55 151.5q0 98 73.5 154.5t202.5 55.5h10q172 1 262 67.5t90 194.5 q0 119 -84 175.5t-260 56.5h-120v62h112q163 1 257 64t95 172q-3 189 -304 190h-316v62h316zM60 1492v12h46l178 -196l186 196h46v-12l-222 -258h-20z" />
<glyph unicode="&#x470;" horiz-adv-x="1430" vert-adv-y="2444" d="M1166 1448h66v-632q-1 -214 -136 -350.5t-348 -141.5v-324h-66v324q-213 5 -349 141t-137 351v632h66v-632q1 -188 118 -306.5t302 -121.5v1060h66v-1060q185 4 301.5 122t116.5 306v632z" />
<glyph unicode="&#x471;" horiz-adv-x="1354" vert-adv-y="2444" d="M164 1086h66v-626q0 -198 119.5 -312.5t326.5 -122.5v1061h66v-1061q210 10 328.5 127t117.5 304q0 112 -34.5 303.5t-81.5 326.5h68q46 -135 79.5 -324t32.5 -306q-1 -217 -135.5 -351t-374.5 -142v-425h-66v424q-238 8 -374.5 140.5t-137.5 357.5v626z" />
<glyph unicode="&#x472;" horiz-adv-x="1450" vert-adv-y="2444" d="M1330 724q0 -220 -76 -389.5t-214 -262t-316 -92.5t-315.5 93t-214 262.5t-76.5 388.5q0 220 76.5 389.5t214 262t315.5 92.5t316 -92.5t214 -262t76 -389.5zM184 692q9 -292 157 -469.5t383 -178.5q235 1 384 178.5t158 469.5h-1082zM184 756h1081q-9 293 -158 470.5 t-383 177.5q-233 0 -382 -177t-158 -471z" />
<glyph unicode="&#x473;" horiz-adv-x="1116" vert-adv-y="2444" d="M558 -22q-196 -1 -326 159.5t-130 402.5t130 402.5t326 159.5q196 1 326.5 -159.5t131.5 -402.5q0 -159 -59.5 -288t-164 -201.5t-234.5 -72.5zM167 512q8 -204 118 -338.5t273 -133.5q164 -1 273.5 133.5t117.5 338.5h-782zM167 574h782q-9 201 -118.5 334t-272.5 132 q-162 1 -271.5 -132t-119.5 -334z" />
<glyph unicode="&#x474;" horiz-adv-x="1264" vert-adv-y="2444" d="M1044 1316q29 80 67.5 116t98.5 36h14v-64h-10q-39 0 -61 -21t-41 -73l-470 -1310h-82l-518 1448h70l486 -1364v2z" />
<glyph unicode="&#x475;" horiz-adv-x="1130" vert-adv-y="2444" d="M76 1086h68l358 -1004h6l304 856q29 84 65 123t99 39q47 0 78 -14l-10 -60q-41 11 -66 10q-22 0 -37 -6t-26.5 -21.5t-18 -30t-16.5 -42.5l-336 -936h-80z" />
<glyph unicode="&#x476;" horiz-adv-x="1264" vert-adv-y="2444" d="M1044 1316q29 80 67.5 116t98.5 36h14v-64h-10q-39 0 -61 -21t-41 -73l-470 -1310h-82l-518 1448h70l486 -1364v2zM298 1914h82l204 -310h-60zM522 1914h80l160 -310h-60z" />
<glyph unicode="&#x477;" horiz-adv-x="1130" vert-adv-y="2444" d="M76 1086h68l358 -1004h6l304 856q29 84 65 123t99 39q47 0 78 -14l-10 -60q-41 11 -66 10q-22 0 -37 -6t-26.5 -21.5t-18 -30t-16.5 -42.5l-336 -936h-80zM234 1552h82l204 -310h-60zM458 1552h80l160 -310h-60z" />
<glyph unicode="&#x478;" horiz-adv-x="2458" vert-adv-y="2444" d="M1330 724q0 -220 -76 -389.5t-214 -262t-316 -92.5t-315.5 93t-214 262.5t-76.5 388.5q0 220 76.5 389.5t214 262t315.5 92.5t316 -92.5t214 -262t76 -389.5zM184 724q0 -305 149.5 -492t390.5 -188q241 1 391.5 188t150.5 492q-1 306 -151 493t-391 187 q-240 0 -390 -186.5t-150 -493.5zM1526 1086h68l358 -1004h6l356 1004h70l-458 -1278q-76 -215 -276 -216q-5 0 -16.5 0.5t-15.5 1.5v62q14 -2 30 -2q25 0 45.5 3t46.5 14t47 30t43 52t38 79l54 150z" />
<glyph unicode="&#x479;" horiz-adv-x="2086" vert-adv-y="2444" d="M558 -22q-196 -1 -326 159.5t-130 402.5t130 402.5t326 159.5q196 1 326.5 -159.5t131.5 -402.5q0 -159 -59.5 -288t-164 -201.5t-234.5 -72.5zM166 540q0 -140 50 -254.5t140 -180t202 -65.5q170 -1 281 142.5t111 357.5q0 213 -111 357t-281 143q-111 0 -201 -66 t-140.5 -180.5t-50.5 -253.5zM1154 1086h68l358 -1004h6l356 1004h70l-458 -1278q-76 -215 -276 -216q-5 0 -16.5 0.5t-15.5 1.5v62q14 -2 30 -2q25 0 45.5 3t46.5 14t47 30t43 52t38 79l54 150z" />
<glyph unicode="&#x47a;" horiz-adv-x="1440" vert-adv-y="2444" d="M752 232v-187q228 14 368.5 199.5t139.5 479.5q0 295 -140 480.5t-368 198.5v-177h-64v177q-228 -13 -368.5 -198t-139.5 -481q-1 -294 139 -479.5t369 -199.5v187h64zM114 724q0 323 158.5 526.5t415.5 216.5v173h64v-173q257 -13 415.5 -216.5t158.5 -526.5 t-158.5 -526.5t-415.5 -216.5v-165h-64v165q-257 13 -415.5 217t-158.5 526z" />
<glyph unicode="&#x47b;" horiz-adv-x="1244" vert-adv-y="2444" d="M588 1166v-65q185 -14 305 -171.5t121 -389.5q-1 -232 -121 -389.5t-305 -171.5v-87h-68v87q-183 15 -301.5 172.5t-118.5 388.5t118.5 388.5t301.5 172.5v65h68zM164 540q1 -202 100 -342t256 -156v128h68v-129q159 15 259.5 155.5t100.5 343.5t-101 344t-259 155v-161 h-68v160q-155 -16 -255 -157t-101 -341z" />
<glyph unicode="&#x47c;" horiz-adv-x="1468" vert-adv-y="2444" d="M1084 1678h42v-58h-40q-76 0 -143.5 17t-108 38t-90.5 38.5t-96 18.5q-62 0 -95.5 -28t-32.5 -80v-4h-60v10q1 75 51.5 117.5t136.5 42.5q50 0 103 -18t93.5 -39t105 -38t134.5 -17zM146 326v762q0 158 68 243.5t188 86.5v-64q-185 -2 -186 -268v-760q1 -144 60 -213 t180 -69q243 0 244 276v478h70v-478q-1 -276 242 -276q122 0 181 69t59 213v760q0 266 -186 268v64q121 -1 188.5 -86.5t67.5 -243.5v-762q0 -172 -79 -259t-231 -87q-210 0 -278 168q-68 -168 -278 -168q-152 0 -231 87t-79 259zM668 1334q67 83 68 152v70h64v-76 q-1 -87 -96 -170z" />
<glyph unicode="&#x47d;" horiz-adv-x="1200" vert-adv-y="2444" d="M902 1054q118 0 183.5 -84t66.5 -238v-412q-1 -168 -76.5 -254t-215.5 -86q-194 0 -259 164q-65 -164 -261 -164q-140 0 -215 86t-75 254v412q0 154 66 238t182 84v-62q-88 -1 -134.5 -67t-47.5 -195v-410q1 -276 224 -278q226 2 226 272v248h70v-248q-1 -270 224 -272 q225 2 226 278v410q-1 260 -184 262v62zM294 1290v10q-1 76 49.5 119t136.5 43q50 0 103 -18t93.5 -39t105 -39t134.5 -18h44v-58h-42q-76 0 -143.5 17.5t-107.5 38.5t-90.5 38.5t-96.5 17.5q-62 1 -95 -26.5t-33 -79.5v-6h-58zM540 1004q66 84 66 152v70h64v-76 q0 -86 -94 -170z" />
<glyph unicode="&#x47e;" horiz-adv-x="1564" vert-adv-y="2444" d="M750 1700h-322v54h712v-54h-324v-162h-66v162zM198 320v1128h66v-1128q0 -276 242 -276q244 0 244 276v578h66v-578q0 -276 240 -276q246 0 246 276v1128h66v-1128q0 -168 -80 -254t-232 -86q-205 0 -273 163q-69 -163 -277 -163q-151 0 -229.5 85.5t-78.5 254.5z" />
<glyph unicode="&#x47f;" horiz-adv-x="1066" vert-adv-y="2444" d="M504 1362h-322v56h714v-56h-326v-160h-66v160zM-20 314v766h70v-766q-1 -270 220 -272q227 2 226 272v766h70v-766q0 -270 222 -272q225 2 224 272v766h70v-766q0 -165 -76 -249.5t-218 -84.5q-192 0 -257 164q-66 -164 -261 -164q-140 0 -215 84.5t-75 249.5z" />
<glyph unicode="&#x480;" horiz-adv-x="1148" vert-adv-y="2444" d="M612 44v-438h-70v375q-222 14 -354.5 169t-131.5 422v306q-1 280 144.5 435t389.5 155q229 0 365 -129.5t137 -328.5h-70q-1 83 -29.5 155t-81.5 125.5t-135 83.5t-184 30q-218 -1 -342.5 -137.5t-123.5 -388.5v-306q-1 -252 122 -390t334 -138h30z" />
<glyph unicode="&#x481;" horiz-adv-x="974" vert-adv-y="2444" d="M520 42v-434h-70v374q-164 17 -265.5 160.5t-102.5 359.5v52q1 248 118 398.5t310 149.5q108 0 195.5 -47.5t138.5 -135.5t52 -201h-68q-1 144 -91 233.5t-227 88.5q-164 -1 -261 -133t-97 -353v-52q0 -201 93.5 -330t242.5 -130h32z" />
<glyph unicode="&#x482;" horiz-adv-x="1144" vert-adv-y="2444" d="M712 850l-234 -426l314 -192l-28 -52l-316 192l-204 -372h-70l222 404l-306 186l28 54l308 -188l234 426l-306 186l28 52l306 -186l206 370h68l-222 -402l316 -192l-28 -52z" />
<glyph unicode="&#x483;" horiz-adv-x="0" vert-adv-y="2444" d="M-308 1304h-412v-122h-66v176h414l2 106h62v-160z" />
<glyph unicode="&#x484;" horiz-adv-x="0" vert-adv-y="2444" d="M-772 1362q63 0 125 17t103 38t92 38t94 17q72 0 112 -38.5t40 -109.5v-20h-58v16q-1 93 -98 94q-40 0 -87.5 -17.5t-86 -38t-101.5 -37.5t-131 -17h-16v58h12z" />
<glyph unicode="&#x485;" horiz-adv-x="0" vert-adv-y="2444" d="M-528 1316l-78 118v100h68l-2 -106l44 -86z" />
<glyph unicode="&#x486;" horiz-adv-x="0" vert-adv-y="2444" d="M-406 1434l-80 -118l-30 26l42 86v106h66z" />
<glyph unicode="&#x487;" horiz-adv-x="0" vert-adv-y="2444" d="M-308 1362h102v-58h-108q-43 0 -94.5 27t-109 55t-114.5 28q-50 -1 -76.5 -24.5t-25.5 -69.5v-16h-60v20q1 70 43 109t119 39q48 0 96.5 -17t81.5 -38t73 -38t73 -17z" />
<glyph unicode="&#x488;" horiz-adv-x="0" vert-adv-y="2444" d="M-658 1248q-1 67 44 109.5t122 42.5q75 0 119.5 -42.5t44.5 -109.5h-54q0 46 -28.5 73.5t-81.5 26.5q-54 1 -82.5 -26.5t-29.5 -73.5h-54zM-1366 488q-1 68 44 110.5t120 41.5q77 1 121.5 -41.5t44.5 -110.5h-54q-1 46 -29.5 73.5t-82.5 28.5q-53 -1 -81.5 -28.5 t-28.5 -73.5h-54zM-1210 -16q0 68 44.5 110.5t121.5 43.5q76 -1 120.5 -43.5t43.5 -110.5h-54q0 46 -28.5 74t-81.5 28q-54 0 -82.5 -28t-29.5 -74h-54zM-1200 974q0 69 45 111.5t121 42.5q77 0 121.5 -42.5t44.5 -111.5h-56q1 47 -27.5 74.5t-82.5 27.5q-53 0 -81.5 -27.5 t-28.5 -74.5h-56zM-654 -292q0 67 44.5 109.5t121.5 42.5q75 0 120 -42.5t44 -109.5h-54q0 45 -29 73t-81 27q-54 1 -82.5 -27t-27.5 -73h-56zM-106 -14q1 67 45.5 109.5t120.5 42.5q77 0 121.5 -42t44.5 -110h-54q-1 46 -29.5 73.5t-82.5 28.5q-53 -1 -81.5 -28.5 t-28.5 -73.5h-56zM-96 978q0 68 44.5 110.5t121.5 43.5q76 -1 120.5 -43.5t45.5 -110.5h-56q0 46 -28.5 74t-81.5 28t-82 -28t-28 -74h-56zM80 488q0 68 45 110.5t121 41.5q76 1 121 -41.5t45 -110.5h-56q0 46 -28.5 73.5t-81.5 28.5q-53 -1 -81.5 -28.5t-28.5 -73.5h-56z " />
<glyph unicode="&#x489;" horiz-adv-x="0" vert-adv-y="2444" d="M-608 1094l-10 14l104 328h44l-84 -342h-54zM-1446 560v44l342 -84v-54l-12 -10zM-1280 -76l302 184l38 -38l-2 -16l-306 -160zM-1168 1164l30 30l182 -302l-38 -38l-16 2zM-630 -406l84 342h52l10 -14l-104 -328h-42zM-202 948l2 16l306 160l30 -32l-300 -182zM-160 90 l38 38l16 -2l160 -308l-30 -30zM-4 522v54l14 10l330 -104v-44z" />
<glyph unicode="&#x48a;" horiz-adv-x="1490" vert-adv-y="2444" d="M196 1448h66v-1326h8l958 1326h64v-1396h66l-104 -342h-56l78 290h-50v1326h-6l-958 -1326h-66v1448zM566 1810h62q1 -57 31 -88t87 -30q57 -1 86.5 30.5t29.5 87.5h64q-1 -81 -49 -128.5t-131 -47.5q-84 0 -132 47.5t-48 128.5z" />
<glyph unicode="&#x48b;" horiz-adv-x="1146" vert-adv-y="2444" d="M230 78l648 1008h88v-1034h64l-104 -342h-56l78 290h-46v1008l-650 -1008h-88v1086h66v-1008zM386 1448h62q1 -57 31 -88t87 -30q57 -1 86.5 30.5t29.5 87.5h64q-1 -81 -49 -128.5t-131 -47.5q-84 0 -132 47.5t-48 128.5z" />
<glyph unicode="&#x48c;" horiz-adv-x="1258" vert-adv-y="2444" d="M740 768q192 1 304.5 -99.5t111.5 -270.5q1 -184 -110.5 -291t-305.5 -107h-544v1114h-240v60h240v274h66v-274h244v-60h-244v-346h478zM262 62h478q165 1 257.5 91.5t92.5 248.5q2 136 -94 220t-256 84h-478v-644z" />
<glyph unicode="&#x48d;" horiz-adv-x="1032" vert-adv-y="2444" d="M656 1382v-64h-402v-692h308q175 1 271 -77t97 -233q-1 -157 -97 -236.5t-271 -79.5h-372v1318h-218v64h218v292h64v-292h402zM254 62h308q145 1 224 62t78 190q1 127 -78.5 188.5t-223.5 61.5h-308v-502z" />
<glyph unicode="&#x48e;" horiz-adv-x="1178" vert-adv-y="2444" d="M784 900l98 -148q104 101 104 266q0 162 -100 264.5t-264 103.5h-368v-732h368q122 0 211 59l-101 155zM188 0v1448h436q192 0 310 -120.5t118 -309.5q0 -202 -133 -322l105 -160l-54 -34l-101 156q-106 -68 -245 -68h-370v-590h-66z" />
<glyph unicode="&#x48f;" horiz-adv-x="1168" vert-adv-y="2444" d="M736 274l104 -106q110 141 108 372q1 219 -98 360t-266 140q-166 1 -264.5 -139.5t-97.5 -360.5q-1 -218 98 -359t264 -141q123 0 213 82l-105 108zM156 -408v1494h64v-260h8q44 126 137 201.5t223 74.5q127 0 224.5 -72.5t149.5 -200t52 -289.5q-2 -261 -129 -418 l129 -132l-44 -46l-128 132q-106 -98 -254 -98q-130 -1 -224 75t-136 203h-6v-664h-66z" />
<glyph unicode="&#x490;" horiz-adv-x="1092" vert-adv-y="2444" d="M196 0v1448h732v300h66v-362h-732v-1386h-66z" />
<glyph unicode="&#x491;" horiz-adv-x="868" vert-adv-y="2444" d="M776 1320v-296h-546v-1024h-66v1086h548v234h64z" />
<glyph unicode="&#x492;" horiz-adv-x="1096" vert-adv-y="2444" d="M1000 1448v-62h-738v-618h246v-60h-246v-708h-66v708h-238v60h238v680h804z" />
<glyph unicode="&#x493;" horiz-adv-x="866" vert-adv-y="2444" d="M774 1086v-62h-544v-450h242v-60h-242v-514h-66v514h-242v60h242v512h610z" />
<glyph unicode="&#x494;" horiz-adv-x="1154" vert-adv-y="2444" d="M1000 1448v-62h-738v-584h222q279 -1 424 -139t144 -405q0 -229 -105 -363.5t-285 -134.5l-4 62q155 0 242.5 117.5t87.5 318.5q-1 482 -504 480h-222v-738h-66v1448h804z" />
<glyph unicode="&#x495;" horiz-adv-x="966" vert-adv-y="2444" d="M774 1086v-62h-544v-424h64q278 0 417.5 -105t138.5 -299q-2 -177 -104.5 -295.5t-265.5 -122.5l-18 62q147 4 235 104.5t87 253.5q0 339 -490 338h-64v-536h-66v1086h610z" />
<glyph unicode="&#x496;" horiz-adv-x="1734" vert-adv-y="2444" d="M900 1448v-678h198l430 678h80l-452 -704l494 -688v10h64v-420h-64v354h-40l-506 708h-204v-708h-66v708h-204l-508 -708h-78l534 744l-452 704h80l430 -678h198v678h66z" />
<glyph unicode="&#x497;" horiz-adv-x="1538" vert-adv-y="2444" d="M96 0l540 544l-532 542h86l500 -512h46v512h66v-512h44l502 512h84l-530 -542l482 -487v9h64v-420h-64v354h-30l-508 512h-44v-512h-66v512h-44l-508 -512h-88z" />
<glyph unicode="&#x498;" horiz-adv-x="1212" vert-adv-y="2444" d="M160 362h66q1 -139 111.5 -229t274.5 -89q170 -1 278 95.5t110 240.5q-1 149 -120.5 242t-307.5 92h-38v64h38q165 0 273 86.5t109 229.5q-1 135 -96.5 223.5t-247.5 88.5q-151 0 -250 -89.5t-100 -230.5h-66q1 167 119.5 274.5t298.5 107.5q178 0 292.5 -107t115.5 -267 q-1 -125 -74.5 -216t-199.5 -126v-6q147 -34 232.5 -132t85.5 -236q0 -160 -115.5 -272t-296.5 -125l-6 -31q69 -11 107.5 -54t38.5 -112q0 -153 -206 -158l-4 56q78 1 113.5 25.5t36.5 76.5q-2 117 -158 116l17 80q-186 7 -308 114t-123 268z" />
<glyph unicode="&#x499;" horiz-adv-x="926" vert-adv-y="2444" d="M158 278q6 -109 88.5 -174t217.5 -64q140 -1 224.5 69t85.5 185q-1 103 -65.5 169.5t-152.5 70.5h-194v62h188q200 31 200 202q0 109 -75.5 175t-198.5 65q-124 1 -205.5 -65.5t-86.5 -172.5h-66q6 133 106.5 216.5t251.5 83.5q153 0 246.5 -84.5t93.5 -215.5 q0 -85 -45 -144.5t-121 -83.5v-10q79 -14 133.5 -90t54.5 -178q0 -134 -94.5 -221t-252.5 -94l-5 -29q69 -11 107.5 -54t38.5 -112q0 -153 -206 -158l-4 56q78 1 113.5 25.5t36.5 76.5q-2 117 -158 116l16 79q-149 8 -241 89.5t-97 209.5h66z" />
<glyph unicode="&#x49a;" horiz-adv-x="1174" vert-adv-y="2444" d="M1018 0l-518 712h-236v-712h-68v1448h68v-676h236l440 676h80l-464 -706l484 -663v37h64v-420h-64v304h-22z" />
<glyph unicode="&#x49b;" horiz-adv-x="936" vert-adv-y="2444" d="M164 0v1086h66v-512h146l406 512h84l-430 -544l396 -481v19h64v-420h-64v340h-34l-422 510h-146v-510h-66z" />
<glyph unicode="&#x49c;" horiz-adv-x="1208" vert-adv-y="2444" d="M462 1012h64v-242h116l366 678h76l-384 -708l464 -740h-76l-444 706h-118v-240h-64v240h-200v-706h-66v1448h66v-678h200v242z" />
<glyph unicode="&#x49d;" horiz-adv-x="1054" vert-adv-y="2444" d="M164 0v1086h66v-512h170v216h62v-216h58l400 512h80l-406 -520l420 -566h-78l-380 510h-94v-206h-62v206h-170v-510h-66z" />
<glyph unicode="&#x4a0;" horiz-adv-x="1270" vert-adv-y="2444" d="M434 1448v-676h236l440 676h80l-464 -706l542 -742h-80l-518 712h-236v-712h-68v1386h-382v62h450z" />
<glyph unicode="&#x4a1;" horiz-adv-x="1244" vert-adv-y="2444" d="M552 1086v-512h146l406 512h84l-430 -544l446 -542h-84l-422 510h-146v-510h-66v1024h-394v62h460z" />
<glyph unicode="&#x4a2;" horiz-adv-x="1470" vert-adv-y="2444" d="M196 0v1448h66v-692h900v692h66v-1382h60v-420h-64v354h-62v692h-900v-692h-66z" />
<glyph unicode="&#x4a3;" horiz-adv-x="1106" vert-adv-y="2444" d="M230 1086v-512h654v512h66v-1020h60v-420h-64v354h-62v512h-654v-512h-66v1086h66z" />
<glyph unicode="&#x4a4;" horiz-adv-x="1888" vert-adv-y="2444" d="M1790 1448v-62h-562v-1386h-66v692h-900v-692h-66v1448h66v-692h900v692h628z" />
<glyph unicode="&#x4a5;" horiz-adv-x="1416" vert-adv-y="2444" d="M1362 1086v-62h-412v-1024h-66v512h-654v-512h-66v1086h66v-512h654v512h478z" />
<glyph unicode="&#x4a6;" horiz-adv-x="1932" vert-adv-y="2444" d="M1084 1448v-644h218q279 -1 424 -139t144 -405q0 -229 -105 -363.5t-285 -134.5l-4 62q155 0 242.5 117.5t87.5 318.5q-1 482 -504 480h-218v-740h-66v1386h-856v-1386h-66v1448h988z" />
<glyph unicode="&#x4a7;" horiz-adv-x="1736" vert-adv-y="2444" d="M166 0v1086h774v-510h136q279 0 419.5 -99.5t140.5 -292.5q-2 -163 -103 -275.5t-269 -118.5l-18 62q151 5 238 97.5t86 236.5q0 327 -494 328h-136v-514h-66v1024h-644v-1024h-64z" />
<glyph unicode="&#x4a8;" horiz-adv-x="1490" vert-adv-y="2444" d="M1326 -30q-188 0 -343 64q-117 -54 -263 -54q-260 0 -407.5 174.5t-148.5 479.5v224q0 184 47.5 323t135.5 215.5t205 77.5v-66q-145 0 -233 -149.5t-87 -394.5v-230q-1 -278 128 -433.5t360 -156.5q100 0 185 29q-148 86 -229.5 231.5t-81.5 333.5v284q0 259 94.5 404.5 t263.5 145.5q170 0 264.5 -146t95.5 -408v-284q-1 -189 -67.5 -333t-188.5 -226q121 -41 270 -41v-64zM660 638q0 -184 83.5 -322t236.5 -211q127 69 196 205.5t70 323.5v290q-1 230 -78.5 356.5t-215.5 125.5q-138 1 -215 -126t-77 -356v-286z" />
<glyph unicode="&#x4a9;" horiz-adv-x="1016" vert-adv-y="2444" d="M976 -2q-158 0 -280 39q-94 -57 -224 -57q-202 0 -316.5 137.5t-113.5 384.5v110q-1 217 74.5 350.5t195.5 135.5v-64q-89 1 -147.5 -117t-58.5 -305v-110q0 -218 97.5 -339t268.5 -121q78 0 144 26q-254 125 -254 440v156q0 215 69 325.5t205 110.5q270 0 270 -444v-158 q0 -278 -147 -414q97 -24 217 -24v-62zM426 506q0 -298 259 -400q156 114 157 392v158q-1 193 -51.5 287t-156.5 95q-105 1 -156.5 -93.5t-51.5 -280.5v-158z" />
<glyph unicode="&#x4aa;" horiz-adv-x="1398" vert-adv-y="2444" d="M1216 996q-14 74 -53.5 145.5t-100.5 130.5t-149 95.5t-189 36.5q-110 0 -207.5 -45.5t-171.5 -129.5t-117.5 -214.5t-43.5 -290.5q0 -161 43.5 -292t118 -214.5t171.5 -128.5t207 -45q101 0 189 36t149 95.5t100.5 130.5t53.5 146h68q-14 -82 -55 -161.5t-105.5 -148 t-162 -113t-211.5 -48.5l-6 -33q69 -11 107.5 -54t38.5 -112q0 -153 -206 -158l-4 56q78 1 113.5 25.5t36.5 76.5q-2 117 -158 116l17 83q-255 14 -412.5 217.5t-158.5 525.5q1 334 169 539t437 205q120 0 222 -42.5t170 -112t110.5 -150.5t57.5 -167h-68z" />
<glyph unicode="&#x4ab;" horiz-adv-x="1060" vert-adv-y="2444" d="M102 540q0 159 58.5 287t164 201.5t237.5 73.5q151 1 261 -92t135 -242h-68q-21 120 -111.5 196.5t-214.5 75.5q-171 1 -284 -141t-114 -359q1 -214 112.5 -357t285.5 -143q126 0 217.5 76.5t110.5 201.5h68q-22 -149 -128 -242.5t-255 -97.5l-5 -28q69 -11 107.5 -54 t38.5 -112q0 -153 -206 -158l-4 56q78 1 113.5 25.5t36.5 76.5q-2 117 -158 116l17 80q-184 19 -299.5 175.5t-115.5 384.5z" />
<glyph unicode="&#x4ac;" horiz-adv-x="1188" vert-adv-y="2444" d="M96 1386v62h996v-62h-464v-1320h62v-420h-64v354h-64v1386h-466z" />
<glyph unicode="&#x4ad;" horiz-adv-x="982" vert-adv-y="2444" d="M92 1024v62h798v-62h-364v-1024h-64v1024h-370zM534 -364v420h64v-420h-64z" />
<glyph unicode="&#x4ae;" horiz-adv-x="1196" vert-adv-y="2444" d="M44 1448h80l470 -704h8l470 704h80l-522 -776v-672h-66v672z" />
<glyph unicode="&#x4af;" horiz-adv-x="1000" vert-adv-y="2444" d="M76 1086h68l358 -956l354 956h68l-390 -1052v-442h-64v442z" />
<glyph unicode="&#x4b0;" horiz-adv-x="1196" vert-adv-y="2444" d="M44 1448h80l470 -704h8l470 704h80l-522 -776v-56h242v-60h-242v-556h-66v556h-242v60h242v56z" />
<glyph unicode="&#x4b1;" horiz-adv-x="1000" vert-adv-y="2444" d="M76 1086h68l358 -956l354 956h68l-380 -1024h230v-60h-240v-410h-64v410h-246v60h236z" />
<glyph unicode="&#x4b2;" horiz-adv-x="1140" vert-adv-y="2444" d="M126 1448l442 -668h6l442 668h80l-482 -724l444 -667v9h64v-420h-64v354h-42l-442 668h-6l-444 -668h-80l484 724l-484 724h82z" />
<glyph unicode="&#x4b3;" horiz-adv-x="966" vert-adv-y="2444" d="M172 1086l310 -492l310 492h76l-346 -542l308 -484v6h64v-420h-64v354h-36l-312 490l-310 -490h-76l346 544l-346 542h76z" />
<glyph unicode="&#x4b4;" horiz-adv-x="1682" vert-adv-y="2444" d="M996 1448v-62h-418v-1322h854v1384h64v-1384h90l-20 -406h-52v342h-1002v1386h-416v62h900z" />
<glyph unicode="&#x4b5;" horiz-adv-x="1344" vert-adv-y="2444" d="M746 1086v-62h-322v-962h644v1024h64v-1024h116l-20 -376h-50v314h-820v1024h-290v62h678z" />
<glyph unicode="&#x4b6;" horiz-adv-x="1330" vert-adv-y="2444" d="M172 1448h66v-474q1 -356 372 -356q224 0 462 83v747h60v-1382h64v-420h-64v354h-60v635q-260 -81 -460 -81q-216 2 -327.5 107t-112.5 313v474z" />
<glyph unicode="&#x4b7;" horiz-adv-x="1072" vert-adv-y="2444" d="M912 1086v-1028h64v-420h-64v362h-64v439q-180 -59 -314 -59q-184 1 -276.5 85.5t-93.5 260.5v366h66v-366q0 -149 74 -216t226 -66q142 -1 318 60v582h64z" />
<glyph unicode="&#x4b8;" horiz-adv-x="1330" vert-adv-y="2444" d="M666 942v-323q200 11 406 82v747h60v-1448h-60v635q-230 -71 -406 -80v-237h-62v236q-213 4 -322 109t-110 311v474h66v-474q1 -353 366 -356v324h62z" />
<glyph unicode="&#x4b9;" horiz-adv-x="1082" vert-adv-y="2444" d="M564 742v-297q126 4 284 59v582h64v-1086h-64v439q-163 -54 -284 -58v-107h-64v107q-167 8 -251 92.5t-85 252.5v366h66v-366q0 -142 66.5 -209t203.5 -72v297h64z" />
<glyph unicode="&#x4ba;" horiz-adv-x="1330" vert-adv-y="2444" d="M1158 0h-66v474q-1 356 -372 356q-224 0 -462 -83v-747h-60v1448h60v-635q260 81 460 81q216 -2 327.5 -107t112.5 -313v-474z" />
<glyph unicode="&#x4bb;" horiz-adv-x="1096" vert-adv-y="2444" d="M230 718v-718h-66v1448h66v-534h6q40 86 126 136t200 50q164 0 267 -103.5t103 -272.5v-724h-66v722q1 141 -85.5 228.5t-226.5 87.5q-142 0 -233 -89.5t-91 -230.5z" />
<glyph unicode="&#x4bc;" horiz-adv-x="1502" vert-adv-y="2444" d="M182 1052q-1 -116 61.5 -183t178.5 -77v38q0 298 130.5 468t359.5 170q221 0 336.5 -161.5t115.5 -468.5v-110h-876v-110q1 -274 124 -425.5t344 -148.5q159 1 316 92l24 -58q-163 -98 -348 -98q-245 0 -385.5 168.5t-140.5 463.5v119q-144 10 -223.5 94t-78.5 227h62z M488 790h810v62q0 270 -98 411t-288 141q-200 0 -311.5 -152.5t-112.5 -423.5v-38z" />
<glyph unicode="&#x4bd;" horiz-adv-x="1374" vert-adv-y="2444" d="M164 792q-2 -102 46.5 -148.5t159.5 -47.5q16 221 143 364t311 142q123 0 225.5 -66.5t162.5 -185.5t60 -266v-50h-840q2 -139 50 -250.5t143 -177.5t221 -66q67 0 124.5 18.5t96.5 49.5t64 60.5t41 59.5h70q-37 -100 -142.5 -175.5t-253.5 -74.5q-141 0 -250.5 72 t-168 198.5t-59.5 285.5q-137 2 -202.5 66t-63.5 192h62zM433 596h773q1 186 -110.5 315.5t-271.5 128.5q-156 1 -268 -126.5t-123 -317.5z" />
<glyph unicode="&#x4be;" horiz-adv-x="1502" vert-adv-y="2444" d="M182 1052q-1 -116 61.5 -183t178.5 -77v38q0 298 130.5 468t359.5 170q221 0 336.5 -161.5t115.5 -468.5v-110h-876v-110q1 -274 124 -425.5t344 -148.5q159 1 316 92l24 -58q-144 -88 -312 -97v-373h-64v373q-233 10 -365.5 177.5t-132.5 453.5v119q-144 10 -223.5 94 t-78.5 227h62zM488 790h810v62q0 270 -98 411t-288 141q-200 0 -311.5 -152.5t-112.5 -423.5v-38z" />
<glyph unicode="&#x4bf;" horiz-adv-x="1374" vert-adv-y="2444" d="M164 792q-2 -102 46.5 -148.5t159.5 -47.5q16 221 143 364t311 142q123 0 225.5 -66.5t162.5 -185.5t60 -266v-50h-840q2 -139 50 -250.5t143 -177.5t221 -66q67 0 124.5 18.5t96.5 49.5t64 60.5t41 59.5h70q-17 -46 -51 -89.5t-83 -80t-117 -58.5t-144 -22l-5 -28 q69 -11 107.5 -54t38.5 -112q0 -153 -206 -158l-4 56q78 1 113.5 25.5t36.5 76.5q-2 117 -158 116l17 81q-189 22 -303 175t-116 378q-137 2 -202.5 66t-63.5 192h62zM433 596h773q1 186 -110.5 315.5t-271.5 128.5q-156 1 -268 -126.5t-123 -317.5z" />
<glyph unicode="&#x4c0;" horiz-adv-x="460" vert-adv-y="2444" d="M262 1448v-1448h-66v1448h66z" />
<glyph unicode="&#x4c1;" horiz-adv-x="1734" vert-adv-y="2444" d="M900 1448v-678h198l430 678h80l-452 -704l534 -744h-80l-506 708h-204v-708h-66v708h-204l-508 -708h-78l534 744l-452 704h80l430 -678h198v678h66zM686 1810h62q1 -57 31 -88t87 -30q57 -1 86.5 30.5t29.5 87.5h64q-1 -81 -49 -128.5t-131 -47.5q-84 0 -132 47.5 t-48 128.5z" />
<glyph unicode="&#x4c2;" horiz-adv-x="1538" vert-adv-y="2444" d="M96 0l540 544l-532 542h86l500 -512h46v512h66v-512h44l502 512h84l-530 -542l538 -544h-86l-508 512h-44v-512h-66v512h-44l-508 -512h-88zM590 1448h62q1 -57 31 -88t87 -30q57 -1 86.5 30.5t29.5 87.5h64q-1 -81 -49 -128.5t-131 -47.5q-84 0 -132 47.5t-48 128.5z " />
<glyph unicode="&#x4c3;" horiz-adv-x="1266" vert-adv-y="2444" d="M262 740v-740h-66v1448h66v-646h238l556 646h86l-561 -646q265 -7 403.5 -146.5t137.5 -399.5q-1 -229 -106.5 -363t-285.5 -135l-4 64q153 0 241.5 117t88.5 319q-1 239 -128.5 360.5t-375.5 121.5h-290z" />
<glyph unicode="&#x4c4;" horiz-adv-x="1064" vert-adv-y="2444" d="M164 0v1086h66v-512h122l468 512h88l-468 -513q261 -7 392.5 -106t129.5 -283q-1 -166 -103.5 -276t-266.5 -114l-16 60q147 4 234.5 97.5t87.5 236.5q-1 322 -494 322h-174v-510h-66z" />
<glyph unicode="&#x4c5;" horiz-adv-x="1360" vert-adv-y="2444" d="M42 0v64h32q132 0 192.5 142t71.5 474l26 768h800v-1396h62l-104 -342h-56l78 290h-46v1386h-670l-26 -728q-11 -354 -88 -506t-252 -152h-20z" />
<glyph unicode="&#x4c6;" horiz-adv-x="1136" vert-adv-y="2444" d="M42 0v62h26q47 0 79.5 8.5t55.5 37t35.5 53.5t21 90.5t12 113t9.5 152.5q1 13 1 19l30 550h638v-1034h64l-104 -342h-56l78 290h-46v1024h-514l-26 -500q-13 -242 -31 -324q-29 -130 -109 -172q-52 -28 -136 -28h-28z" />
<glyph unicode="&#x4c7;" horiz-adv-x="1424" vert-adv-y="2444" d="M1160 0h2v692h-900v-692h-66v1448h66v-692h900v692h66v-1604q-1 -120 -56 -184.5t-154 -65.5q-41 2 -60 6v62q17 -4 50 -6q153 2 152 188v156z" />
<glyph unicode="&#x4c8;" horiz-adv-x="1118" vert-adv-y="2444" d="M948 -152q1 -124 -54 -190t-158 -66q-35 0 -64 8l4 62q20 -8 56 -6q75 -1 113.5 47.5t38.5 144.5v664h-654v-512h-66v1086h66v-512h654v512h66v-1086h-2v-152z" />
<glyph unicode="&#x4c9;" horiz-adv-x="1436" vert-adv-y="2444" d="M196 0v1448h66v-692h900v692h66v-1396h64l-104 -342h-56l78 290h-48v692h-900v-692h-66z" />
<glyph unicode="&#x4ca;" horiz-adv-x="1134" vert-adv-y="2444" d="M230 1086v-512h654v512h66v-1034h64l-104 -342h-56l78 290h-48v512h-654v-512h-66v1086h66z" />
<glyph unicode="&#x4cb;" horiz-adv-x="1330" vert-adv-y="2444" d="M172 1448h66v-474q1 -356 372 -356q224 0 462 83v747h60v-1382h64v-420h-64v354h-60v635q-260 -81 -460 -81q-216 2 -327.5 107t-112.5 313v474z" />
<glyph unicode="&#x4cc;" horiz-adv-x="1082" vert-adv-y="2444" d="M912 1086v-1086h-64v-366h-64v420h64v385q-180 -59 -314 -59q-184 1 -276.5 85.5t-93.5 260.5v366h66v-366q0 -149 74 -216t226 -66q142 -1 318 60v582h64z" />
<glyph unicode="&#x4cd;" horiz-adv-x="1686" vert-adv-y="2444" d="M196 1448h68l576 -1350h6l576 1350h66v-1396h64l-104 -342h-56l78 290h-46v1274h-6l-544 -1274h-62l-544 1274h-6v-1274h-66v1448z" />
<glyph unicode="&#x4ce;" horiz-adv-x="1408" vert-adv-y="2444" d="M694 100l452 986h76v-1034h64l-104 -342h-56l78 290h-46v968l-442 -968h-46l-440 967v-967h-66v1086h78z" />
<glyph unicode="&#x4cf;" horiz-adv-x="460" vert-adv-y="2444" d="M262 1448v-1448h-66v1448h66z" />
<glyph unicode="&#x4d0;" horiz-adv-x="1204" vert-adv-y="2444" d="M112 0h-70l518 1448h82l520 -1448h-70l-170 476h-640zM304 540h596l-294 824h-8zM422 1810h62q1 -57 31 -88t87 -30q57 -1 86.5 30.5t29.5 87.5h64q-1 -81 -49 -128.5t-131 -47.5q-84 0 -132 47.5t-48 128.5z" />
<glyph unicode="&#x4d1;" horiz-adv-x="1042" vert-adv-y="2444" d="M704 1448q-1 -81 -49 -128.5t-131 -47.5q-84 0 -132 47.5t-48 128.5h62q1 -57 31 -88t87 -30q57 -1 86.5 30.5t29.5 87.5h64zM106 296q0 64 20.5 117t64.5 97.5t120.5 73t180.5 36.5q282 21 316 23v131q0 121 -81 194t-217 74q-118 -1 -202.5 -53.5t-105.5 -144.5h-68 q19 119 124 189t252 69q159 1 261 -89t101 -243v-770h-64v210h-6q-49 -106 -142.5 -169.5t-215.5 -64.5q-143 1 -240 86.5t-98 233.5zM172 296q0 -116 78 -186.5t198 -71.5q155 1 257.5 117.5t102.5 296.5v133q-137 -12 -298 -23q-338 -26 -338 -266z" />
<glyph unicode="&#x4d2;" horiz-adv-x="1204" vert-adv-y="2444" d="M112 0h-70l518 1448h82l520 -1448h-70l-170 476h-640zM304 540h596l-294 824h-8zM400 1700q0 22 16.5 38.5t39.5 17.5q23 -1 39.5 -17.5t16.5 -38.5q0 -23 -16.5 -40t-39.5 -16q-22 -1 -39 16t-17 40zM692 1700q1 22 17.5 38.5t38.5 17.5q24 -1 40.5 -17.5t15.5 -38.5 q1 -23 -15.5 -40t-40.5 -16q-22 -1 -38.5 16t-17.5 40z" />
<glyph unicode="&#x4d3;" horiz-adv-x="1042" vert-adv-y="2444" d="M376 1282q-23 -1 -39.5 16t-16.5 40q0 22 16.5 38.5t39.5 17.5q23 -1 39.5 -17.5t16.5 -38.5q0 -23 -16.5 -40t-39.5 -16zM106 296q0 64 20.5 117t64.5 97.5t120.5 73t180.5 36.5q282 21 316 23v131q0 121 -81 194t-217 74q-118 -1 -202.5 -53.5t-105.5 -144.5h-68 q19 119 124 189t252 69q159 1 261 -89t101 -243v-770h-64v210h-6q-49 -106 -142.5 -169.5t-215.5 -64.5q-143 1 -240 86.5t-98 233.5zM172 296q0 -116 78 -186.5t198 -71.5q155 1 257.5 117.5t102.5 296.5v133q-137 -12 -298 -23q-338 -26 -338 -266zM612 1338 q1 22 17.5 38.5t38.5 17.5q24 -1 40.5 -17.5t15.5 -38.5q1 -23 -15.5 -40t-40.5 -16q-22 -1 -38.5 16t-17.5 40z" />
<glyph unicode="&#x4d4;" horiz-adv-x="1876" vert-adv-y="2444" d="M42 0l732 1448h964v-62h-722v-630h678v-64h-678v-628h740v-64h-808v476h-592l-240 -476h-74zM388 540h560v846h-134z" />
<glyph unicode="&#x4d5;" horiz-adv-x="1810" vert-adv-y="2444" d="M1282 -22q-154 -1 -267.5 85t-165.5 231h-5q-47 -157 -157 -237t-243 -81q-143 1 -240 86.5t-98 233.5q1 126 88.5 191.5t297.5 82.5l316 24v180q0 121 -81 194t-217 74q-118 -1 -202.5 -53.5t-105.5 -144.5h-68q19 119 124 189t252 69q144 1 240.5 -74t116.5 -201 q57 128 160.5 202t232.5 73q188 1 318.5 -147.5t129.5 -370.5v-50h-838q1 -139 49 -250.5t142.5 -177.5t220.5 -66q67 0 125 18.5t97.5 50t64.5 60.5t43 61l56 -28q-20 -39 -51.5 -75.5t-78 -71.5t-113.5 -56t-143 -21zM172 296q0 -116 78 -186.5t198 -71.5 q155 1 257.5 117.5t102.5 296.5v83q-137 -12 -298 -23q-191 -15 -264.5 -64t-73.5 -152zM871 596h773q0 122 -51 224t-139 161t-194 59q-156 1 -267 -126.5t-122 -317.5z" />
<glyph unicode="&#x4d6;" vert-adv-y="2444" d="M196 0v1448h790v-62h-724v-630h680v-64h-680v-628h742v-64h-808zM416 1810h62q1 -57 31 -88t87 -30q57 -1 86.5 30.5t29.5 87.5h64q-1 -81 -49 -128.5t-131 -47.5q-84 0 -132 47.5t-48 128.5z" />
<glyph unicode="&#x4d7;" horiz-adv-x="1108" vert-adv-y="2444" d="M580 -22q-142 0 -251.5 73t-168 200.5t-58.5 288.5q0 159 58.5 287.5t163.5 201.5t234 73q123 0 225.5 -66.5t162.5 -185.5t60 -266v-50h-840q2 -139 50 -250.5t143 -177.5t221 -66q67 0 124.5 18.5t96.5 49.5t64 60.5t41 59.5h70q-37 -100 -142.5 -175.5t-253.5 -74.5z M167 596h773q1 186 -110.5 315.5t-271.5 128.5q-156 1 -268 -126.5t-123 -317.5zM376 1448h62q1 -57 31 -88t87 -30q57 -1 86.5 30.5t29.5 87.5h64q-1 -81 -49 -128.5t-131 -47.5q-84 0 -132 47.5t-48 128.5z" />
<glyph unicode="&#x4d8;" horiz-adv-x="1310" vert-adv-y="2444" d="M612 1468q281 0 438.5 -198t157.5 -542v-56q0 -314 -151 -503t-403 -189q-253 0 -402.5 188t-149.5 506v38h1036v16q0 316 -137 495.5t-391 180.5q-175 -1 -306 -92l-36 50q142 106 344 106zM174 642q-1 -269 129.5 -433t350.5 -165q220 1 349 164.5t135 441.5h-964v-8z " />
<glyph unicode="&#x4d9;" horiz-adv-x="1108" vert-adv-y="2444" d="M528 1108q142 0 251.5 -73t168 -200.5t58.5 -288.5q0 -159 -58.5 -287.5t-163.5 -201.5t-234 -73q-123 0 -225.5 66.5t-162.5 185.5t-60 266v50h840q-2 139 -50 250.5t-143 177.5t-221 66q-67 0 -124.5 -18.5t-96.5 -49.5t-64 -60.5t-41 -59.5h-70q37 100 142.5 175.5 t253.5 74.5zM168 490q-1 -186 110.5 -315.5t271.5 -128.5q156 -1 268 126.5t123 317.5h-773z" />
<glyph unicode="&#x4da;" horiz-adv-x="1310" vert-adv-y="2444" d="M612 1468q281 0 438.5 -198t157.5 -542v-56q0 -314 -151 -503t-403 -189q-253 0 -402.5 188t-149.5 506v38h1036v16q0 316 -137 495.5t-391 180.5q-175 -1 -306 -92l-36 50q142 106 344 106zM174 642q-1 -269 129.5 -433t350.5 -165q220 1 349 164.5t135 441.5h-964v-8z M454 1700q0 22 16.5 38.5t39.5 17.5q23 -1 39.5 -17.5t16.5 -38.5q0 -23 -16.5 -40t-39.5 -16q-23 -1 -39.5 16t-16.5 40zM746 1700q1 22 17.5 38.5t38.5 17.5q24 -1 40.5 -17.5t15.5 -38.5q1 -23 -15.5 -40t-40.5 -16q-22 -1 -38.5 16t-17.5 40z" />
<glyph unicode="&#x4db;" horiz-adv-x="1108" vert-adv-y="2444" d="M528 1108q142 0 251.5 -73t168 -200.5t58.5 -288.5q0 -159 -58.5 -287.5t-163.5 -201.5t-234 -73q-123 0 -225.5 66.5t-162.5 185.5t-60 266v50h840q-2 139 -50 250.5t-143 177.5t-221 66q-67 0 -124.5 -18.5t-96.5 -49.5t-64 -60.5t-41 -59.5h-70q37 100 142.5 175.5 t253.5 74.5zM168 490q-1 -186 110.5 -315.5t271.5 -128.5q156 -1 268 126.5t123 317.5h-773zM374 1338q0 22 16.5 38.5t39.5 17.5q23 -1 39.5 -17.5t16.5 -38.5q0 -23 -16.5 -40t-39.5 -16q-23 -1 -39.5 16t-16.5 40zM666 1338q1 22 17.5 38.5t38.5 17.5q24 -1 40.5 -17.5 t15.5 -38.5q1 -23 -15.5 -40t-40.5 -16q-22 -1 -38.5 16t-17.5 40z" />
<glyph unicode="&#x4dc;" horiz-adv-x="1734" vert-adv-y="2444" d="M900 1448v-678h198l430 678h80l-452 -704l534 -744h-80l-506 708h-204v-708h-66v708h-204l-508 -708h-78l534 744l-452 704h80l430 -678h198v678h66zM664 1700q0 22 16.5 38.5t39.5 17.5q23 -1 39.5 -17.5t16.5 -38.5q0 -23 -16.5 -40t-39.5 -16q-23 -1 -39.5 16 t-16.5 40zM956 1700q1 22 17.5 38.5t38.5 17.5q24 -1 40.5 -17.5t15.5 -38.5q1 -23 -15.5 -40t-40.5 -16q-22 -1 -38.5 16t-17.5 40z" />
<glyph unicode="&#x4dd;" horiz-adv-x="1538" vert-adv-y="2444" d="M96 0l540 544l-532 542h86l500 -512h46v512h66v-512h44l502 512h84l-530 -542l538 -544h-86l-508 512h-44v-512h-66v512h-44l-508 -512h-88zM566 1338q0 22 16.5 38.5t39.5 17.5q23 -1 39.5 -17.5t16.5 -38.5q0 -23 -16.5 -40t-39.5 -16q-22 -1 -39 16t-17 40zM858 1338 q1 22 17.5 38.5t38.5 17.5q24 -1 40.5 -17.5t15.5 -38.5q1 -23 -15.5 -40t-40.5 -16q-22 -1 -38.5 16t-17.5 40z" />
<glyph unicode="&#x4de;" horiz-adv-x="1212" vert-adv-y="2444" d="M612 -20q-193 0 -322 108t-130 274h66q1 -139 111.5 -229t274.5 -89q170 -1 278 95.5t110 240.5q-1 149 -120.5 242t-307.5 92h-38v64h38q165 0 273 86.5t109 229.5q-1 135 -96.5 223.5t-247.5 88.5q-151 0 -250 -89.5t-100 -230.5h-66q1 167 119.5 274.5t298.5 107.5 q178 0 292.5 -107t115.5 -267q-1 -125 -74.5 -216t-199.5 -126v-6q147 -34 232.5 -132t85.5 -236q0 -170 -127.5 -284t-324.5 -114zM418 1700q0 22 16.5 38.5t39.5 17.5q23 -1 39.5 -17.5t16.5 -38.5q0 -23 -16.5 -40t-39.5 -16q-23 -1 -39.5 16t-16.5 40zM710 1700 q1 22 17.5 38.5t38.5 17.5q24 -1 40.5 -17.5t15.5 -38.5q1 -23 -15.5 -40t-40.5 -16q-22 -1 -38.5 16t-17.5 40z" />
<glyph unicode="&#x4df;" horiz-adv-x="926" vert-adv-y="2444" d="M158 278q6 -109 88.5 -174t217.5 -64q140 -1 224.5 69t85.5 185q-1 103 -65.5 169.5t-152.5 70.5h-194v62h188q200 31 200 202q0 109 -75.5 175t-198.5 65q-124 1 -205.5 -65.5t-86.5 -172.5h-66q6 133 106.5 216.5t251.5 83.5q153 0 246.5 -84.5t93.5 -215.5 q0 -85 -45 -144.5t-121 -83.5v-10q79 -14 133.5 -90t54.5 -178q0 -139 -102.5 -228t-271.5 -88q-162 -1 -264.5 82t-107.5 218h66zM266 1338q0 22 16.5 38.5t39.5 17.5q23 -1 39.5 -17.5t16.5 -38.5q0 -23 -16.5 -40t-39.5 -16q-22 -1 -39 16t-17 40zM558 1338 q1 22 17.5 38.5t38.5 17.5q24 -1 40.5 -17.5t15.5 -38.5q1 -23 -15.5 -40t-40.5 -16q-22 -1 -38.5 16t-17.5 40z" />
<glyph unicode="&#x4e0;" horiz-adv-x="1212" vert-adv-y="2444" d="M226 362q1 -139 111 -229t273 -89q88 0 162 28.5t122.5 77.5t75 114t26.5 138q1 165 -129.5 265.5t-374.5 100.5h-20l-2 62l454 548l2 8h-704v62h800v-52l-464 -564v-6q227 -10 365.5 -123t138.5 -301q0 -179 -124.5 -300.5t-327.5 -121.5q-191 0 -320.5 107.5 t-131.5 274.5h68z" />
<glyph unicode="&#x4e1;" horiz-adv-x="1212" vert-adv-y="2444" d="M226 0q1 -139 111 -229t273 -89q88 0 162 28.5t122.5 77.5t75 114t26.5 138q1 165 -129.5 265.5t-374.5 100.5h-20l-2 62l454 548l2 8h-704v62h800v-52l-464 -564v-6q227 -10 365.5 -123t138.5 -301q0 -179 -124.5 -300.5t-327.5 -121.5q-191 0 -320.5 107.5 t-131.5 274.5h68z" />
<glyph unicode="&#x4e2;" horiz-adv-x="1490" vert-adv-y="2444" d="M196 1448h66v-1326h8l958 1326h64v-1448h-66v1326h-6l-958 -1326h-66v1448zM504 1668v62h484v-62h-484z" />
<glyph unicode="&#x4e3;" horiz-adv-x="1132" vert-adv-y="2444" d="M230 78l648 1008h88v-1086h-64v1008l-650 -1008h-88v1086h66v-1008zM324 1306v62h484v-62h-484z" />
<glyph unicode="&#x4e4;" horiz-adv-x="1490" vert-adv-y="2444" d="M196 1448h66v-1326h8l958 1326h64v-1448h-66v1326h-6l-958 -1326h-66v1448zM542 1700q0 22 16.5 38.5t39.5 17.5q23 -1 39.5 -17.5t16.5 -38.5q0 -23 -16.5 -40t-39.5 -16q-22 -1 -39 16t-17 40zM834 1700q1 22 17.5 38.5t38.5 17.5q24 -1 40.5 -17.5t15.5 -38.5 q1 -23 -15.5 -40t-40.5 -16q-22 -1 -38.5 16t-17.5 40z" />
<glyph unicode="&#x4e5;" horiz-adv-x="1132" vert-adv-y="2444" d="M230 78l648 1008h88v-1086h-64v1008l-650 -1008h-88v1086h66v-1008zM364 1338q0 22 16.5 38.5t39.5 17.5q23 -1 39.5 -17.5t16.5 -38.5q0 -23 -16.5 -40t-39.5 -16q-23 -1 -39.5 16t-16.5 40zM656 1338q1 22 17.5 38.5t38.5 17.5q24 -1 40.5 -17.5t15.5 -38.5 q1 -23 -15.5 -40t-40.5 -16q-22 -1 -38.5 16t-17.5 40z" />
<glyph unicode="&#x4e6;" horiz-adv-x="1450" vert-adv-y="2444" d="M1330 724q0 -220 -76 -389.5t-214 -262t-316 -92.5t-315.5 93t-214 262.5t-76.5 388.5q0 220 76.5 389.5t214 262t315.5 92.5t316 -92.5t214 -262t76 -389.5zM184 724q0 -305 149.5 -492t390.5 -188q241 1 391.5 188t150.5 492q-1 306 -151 493t-391 187 q-240 0 -390 -186.5t-150 -493.5zM522 1700q0 22 16.5 38.5t39.5 17.5q23 -1 39.5 -17.5t16.5 -38.5q0 -23 -16.5 -40t-39.5 -16q-23 -1 -39.5 16t-16.5 40zM814 1700q1 22 17.5 38.5t38.5 17.5q24 -1 40.5 -17.5t15.5 -38.5q1 -23 -15.5 -40t-40.5 -16q-22 -1 -38.5 16 t-17.5 40z" />
<glyph unicode="&#x4e7;" horiz-adv-x="1116" vert-adv-y="2444" d="M558 -22q-196 -1 -326 159.5t-130 402.5t130 402.5t326 159.5q196 1 326.5 -159.5t131.5 -402.5q0 -159 -59.5 -288t-164 -201.5t-234.5 -72.5zM166 540q0 -140 50 -254.5t140 -180t202 -65.5q170 -1 281 142.5t111 357.5q0 213 -111 357t-281 143q-111 0 -201 -66 t-140.5 -180.5t-50.5 -253.5zM356 1338q0 22 16.5 38.5t39.5 17.5q23 -1 39.5 -17.5t16.5 -38.5q0 -23 -16.5 -40t-39.5 -16q-22 -1 -39 16t-17 40zM648 1338q1 22 17.5 38.5t38.5 17.5q24 -1 40.5 -17.5t15.5 -38.5q1 -23 -15.5 -40t-40.5 -16q-22 -1 -38.5 16t-17.5 40z " />
<glyph unicode="&#x4e8;" horiz-adv-x="1450" vert-adv-y="2444" d="M1330 724q0 -220 -76 -389.5t-214 -262t-316 -92.5t-315.5 93t-214 262.5t-76.5 388.5q0 220 76.5 389.5t214 262t315.5 92.5t316 -92.5t214 -262t76 -389.5zM184 692q9 -292 157 -469.5t383 -178.5q235 1 384 178.5t158 469.5h-1082zM184 756h1081q-9 293 -158 470.5 t-383 177.5q-233 0 -382 -177t-158 -471z" />
<glyph unicode="&#x4e9;" horiz-adv-x="1116" vert-adv-y="2444" d="M558 -22q-196 -1 -326 159.5t-130 402.5t130 402.5t326 159.5q196 1 326.5 -159.5t131.5 -402.5q0 -159 -59.5 -288t-164 -201.5t-234.5 -72.5zM167 512q8 -204 118 -338.5t273 -133.5q164 -1 273.5 133.5t117.5 338.5h-782zM167 574h782q-9 201 -118.5 334t-272.5 132 q-162 1 -271.5 -132t-119.5 -334z" />
<glyph unicode="&#x4ea;" horiz-adv-x="1450" vert-adv-y="2444" d="M1330 724q0 -220 -76 -389.5t-214 -262t-316 -92.5t-315.5 93t-214 262.5t-76.5 388.5q0 220 76.5 389.5t214 262t315.5 92.5t316 -92.5t214 -262t76 -389.5zM184 692q9 -292 157 -469.5t383 -178.5q235 1 384 178.5t158 469.5h-1082zM184 756h1081q-9 293 -158 470.5 t-383 177.5q-233 0 -382 -177t-158 -471zM522 1700q0 22 16.5 38.5t39.5 17.5q23 -1 39.5 -17.5t16.5 -38.5q0 -23 -16.5 -40t-39.5 -16q-23 -1 -39.5 16t-16.5 40zM814 1700q1 22 17.5 38.5t38.5 17.5q24 -1 40.5 -17.5t15.5 -38.5q1 -23 -15.5 -40t-40.5 -16 q-22 -1 -38.5 16t-17.5 40z" />
<glyph unicode="&#x4eb;" horiz-adv-x="1116" vert-adv-y="2444" d="M558 -22q-196 -1 -326 159.5t-130 402.5t130 402.5t326 159.5q196 1 326.5 -159.5t131.5 -402.5q0 -159 -59.5 -288t-164 -201.5t-234.5 -72.5zM167 512q8 -204 118 -338.5t273 -133.5q164 -1 273.5 133.5t117.5 338.5h-782zM167 574h782q-9 201 -118.5 334t-272.5 132 q-162 1 -271.5 -132t-119.5 -334zM356 1338q0 22 16.5 38.5t39.5 17.5q23 -1 39.5 -17.5t16.5 -38.5q0 -23 -16.5 -40t-39.5 -16q-22 -1 -39 16t-17 40zM648 1338q1 22 17.5 38.5t38.5 17.5q24 -1 40.5 -17.5t15.5 -38.5q1 -23 -15.5 -40t-40.5 -16q-22 -1 -38.5 16 t-17.5 40z" />
<glyph unicode="&#x4ec;" horiz-adv-x="1246" vert-adv-y="2444" d="M186 434q34 -191 141.5 -291t282.5 -99q147 0 250 76.5t151.5 205.5t48.5 298v66h-670v62h670v70q0 171 -50 301t-153.5 205.5t-250.5 75.5q-171 0 -279 -100.5t-141 -289.5h-68q31 208 159 331t331 123q164 0 283 -83.5t177.5 -226.5t59.5 -330v-208q-1 -188 -59.5 -331 t-176.5 -226t-280 -83q-207 0 -334.5 122.5t-159.5 331.5h68zM422 1700q0 22 16.5 38.5t39.5 17.5q23 -1 39.5 -17.5t16.5 -38.5q0 -23 -16.5 -40t-39.5 -16q-22 -1 -39 16t-17 40zM714 1700q1 22 17.5 38.5t38.5 17.5q24 -1 40.5 -17.5t15.5 -38.5q1 -23 -15.5 -40 t-40.5 -16q-22 -1 -38.5 16t-17.5 40z" />
<glyph unicode="&#x4ed;" horiz-adv-x="1014" vert-adv-y="2444" d="M482 1036q-124 -1 -220 -82t-96 -188h-64q0 88 53.5 165.5t141.5 122t185 44.5q124 0 223.5 -73t153 -195t53.5 -268v-40q0 -147 -54.5 -271t-153.5 -197.5t-222 -73.5q-101 0 -188.5 48t-139.5 131.5t-52 180.5h64q0 -119 94.5 -208t221.5 -88q101 0 184.5 63t131.5 170 t50 235h-500v62h500q-5 194 -108.5 327.5t-257.5 134.5zM304 1338q0 22 16.5 38.5t39.5 17.5q23 -1 39.5 -17.5t16.5 -38.5q0 -23 -16.5 -40t-39.5 -16q-23 -1 -39.5 16t-16.5 40zM596 1338q1 22 17.5 38.5t38.5 17.5q24 -1 40.5 -17.5t15.5 -38.5q1 -23 -15.5 -40 t-40.5 -16q-22 -1 -38.5 16t-17.5 40z" />
<glyph unicode="&#x4ee;" horiz-adv-x="1114" vert-adv-y="2444" d="M206 -20v64h46q108 -1 164.5 38.5t95.5 139.5l26 64l-494 1162h70l458 -1078l430 1078h68l-498 -1248q-48 -121 -116.5 -170.5t-199.5 -49.5h-50zM320 1668v62h484v-62h-484z" />
<glyph unicode="&#x4ef;" horiz-adv-x="1010" vert-adv-y="2444" d="M200 -408q-5 0 -16.5 0.5t-15.5 1.5v62q14 -2 30 -2q25 0 45.5 3t46.5 14t47 30t43 52t38 79l54 150l-396 1104h68l358 -1004h6l356 1004h70l-458 -1278q-76 -215 -276 -216zM262 1306v62h484v-62h-484z" />
<glyph unicode="&#x4f0;" horiz-adv-x="1114" vert-adv-y="2444" d="M206 -20v64h46q108 -1 164.5 38.5t95.5 139.5l26 64l-494 1162h70l458 -1078l430 1078h68l-498 -1248q-48 -121 -116.5 -170.5t-199.5 -49.5h-50zM360 1700q0 22 16.5 38.5t39.5 17.5q23 -1 39.5 -17.5t16.5 -38.5q0 -23 -16.5 -40t-39.5 -16q-23 -1 -39.5 16t-16.5 40z M652 1700q1 22 17.5 38.5t38.5 17.5q24 -1 40.5 -17.5t15.5 -38.5q1 -23 -15.5 -40t-40.5 -16q-22 -1 -38.5 16t-17.5 40z" />
<glyph unicode="&#x4f1;" horiz-adv-x="1010" vert-adv-y="2444" d="M200 -408q-5 0 -16.5 0.5t-15.5 1.5v62q14 -2 30 -2q25 0 45.5 3t46.5 14t47 30t43 52t38 79l54 150l-396 1104h68l358 -1004h6l356 1004h70l-458 -1278q-76 -215 -276 -216zM302 1338q0 22 16.5 38.5t39.5 17.5q23 -1 39.5 -17.5t16.5 -38.5q0 -23 -16.5 -40t-39.5 -16 q-22 -1 -39 16t-17 40zM594 1338q1 22 17.5 38.5t38.5 17.5q24 -1 40.5 -17.5t15.5 -38.5q1 -23 -15.5 -40t-40.5 -16q-22 -1 -38.5 16t-17.5 40z" />
<glyph unicode="&#x4f2;" horiz-adv-x="1114" vert-adv-y="2444" d="M206 -20v64h46q108 -1 164.5 38.5t95.5 139.5l26 64l-494 1162h70l458 -1078l430 1078h68l-498 -1248q-48 -121 -116.5 -170.5t-199.5 -49.5h-50zM378 1562l192 306h76l-210 -306h-58zM598 1562l250 306h76l-264 -306h-62z" />
<glyph unicode="&#x4f3;" horiz-adv-x="1010" vert-adv-y="2444" d="M200 -408q-5 0 -16.5 0.5t-15.5 1.5v62q14 -2 30 -2q25 0 45.5 3t46.5 14t47 30t43 52t38 79l54 150l-396 1104h68l358 -1004h6l356 1004h70l-458 -1278q-76 -215 -276 -216zM320 1200l192 306h76l-210 -306h-58zM540 1200l250 306h76l-264 -306h-62z" />
<glyph unicode="&#x4f4;" horiz-adv-x="1330" vert-adv-y="2444" d="M172 1448h66v-474q1 -356 372 -356q224 0 462 83v747h60v-1448h-60v635q-260 -81 -460 -81q-216 2 -327.5 107t-112.5 313v474zM450 1700q0 22 16.5 38.5t39.5 17.5q23 -1 39.5 -17.5t16.5 -38.5q0 -23 -16.5 -40t-39.5 -16q-23 -1 -39.5 16t-16.5 40zM742 1700 q1 22 17.5 38.5t38.5 17.5q24 -1 40.5 -17.5t15.5 -38.5q1 -23 -15.5 -40t-40.5 -16q-22 -1 -38.5 16t-17.5 40z" />
<glyph unicode="&#x4f5;" horiz-adv-x="1082" vert-adv-y="2444" d="M912 1086v-1086h-64v439q-180 -59 -314 -59q-184 1 -276.5 85.5t-93.5 260.5v366h66v-366q0 -149 74 -216t226 -66q142 -1 318 60v582h64zM344 1338q0 22 16.5 38.5t39.5 17.5q23 -1 39.5 -17.5t16.5 -38.5q0 -23 -16.5 -40t-39.5 -16q-23 -1 -39.5 16t-16.5 40z M636 1338q1 22 17.5 38.5t38.5 17.5q24 -1 40.5 -17.5t15.5 -38.5q1 -23 -15.5 -40t-40.5 -16q-22 -1 -38.5 16t-17.5 40z" />
<glyph unicode="&#x4f6;" horiz-adv-x="1096" vert-adv-y="2444" d="M1000 1448v-62h-738v-1320h64v-420h-64v354h-66v1448h804z" />
<glyph unicode="&#x4f7;" horiz-adv-x="866" vert-adv-y="2444" d="M774 1086v-62h-544v-968h62v-420h-64v364h-64v1086h610z" />
<glyph unicode="&#x4f8;" horiz-adv-x="1410" vert-adv-y="2444" d="M730 768q192 1 304.5 -99.5t111.5 -270.5q1 -184 -110.5 -291t-305.5 -107h-544v1448h66v-680h478zM252 62h478q165 1 257.5 91.5t92.5 248.5q2 136 -94 220t-256 84h-478v-644zM582 1638q0 22 16.5 38.5t39.5 17.5q23 -1 39.5 -17.5t16.5 -38.5q0 -23 -16.5 -40 t-39.5 -16q-23 -1 -39.5 16t-16.5 40zM874 1638q1 22 17.5 38.5t38.5 17.5q24 -1 40.5 -17.5t15.5 -38.5q1 -23 -15.5 -40t-40.5 -16q-22 -1 -38.5 16t-17.5 40zM1362 0v1448h66v-1448h-66z" />
<glyph unicode="&#x4f9;" horiz-adv-x="1342" vert-adv-y="2444" d="M540 626q176 1 272 -77t96 -233q0 -157 -96.5 -236.5t-271.5 -79.5h-372v1086h66v-460h306zM234 62h306q303 2 304 252q-1 127 -80 188.5t-224 61.5h-306v-502zM468 1338q0 22 16.5 38.5t39.5 17.5q23 -1 39.5 -17.5t16.5 -38.5q0 -23 -16.5 -40t-39.5 -16q-22 -1 -39 16 t-17 40zM760 1338q1 22 17.5 38.5t38.5 17.5q24 -1 40.5 -17.5t15.5 -38.5q1 -23 -15.5 -40t-40.5 -16q-22 -1 -38.5 16t-17.5 40zM1108 0v1086h64v-1086h-64z" />
<glyph unicode="&#x4fa;" horiz-adv-x="1096" vert-adv-y="2444" d="M1000 1448v-62h-738v-618h246v-60h-246v-644h64v-228q0 -122 -54 -189t-156 -67q-34 0 -70 8l8 62q26 -6 58 -6q148 0 150 192v164h-66v708h-238v60h238v680h804z" />
<glyph unicode="&#x4fb;" horiz-adv-x="866" vert-adv-y="2444" d="M774 1086v-62h-544v-440h238v-60h-238v-688q0 -122 -54 -189t-156 -67q-34 0 -70 8l8 62q26 -6 58 -6q148 0 150 192v164h-2v524h-246v60h246v502h610z" />
<glyph unicode="&#x4fc;" horiz-adv-x="1140" vert-adv-y="2444" d="M126 1448l442 -668h6l442 668h80l-482 -724l439 -660h57v-228q0 -122 -54 -189t-156 -67q-34 0 -70 8l8 62q26 -6 58 -6q148 0 150 192v164h-30l-442 668h-6l-444 -668h-80l484 724l-484 724h82z" />
<glyph unicode="&#x4fd;" horiz-adv-x="986" vert-adv-y="2444" d="M96 0l346 544l-346 542h76l310 -492l310 492h76l-346 -542l194 -306q94 -147 132 -234.5t38 -161.5q-2 -106 -65 -178t-161 -72q-43 0 -74 14l2 60q34 -10 70 -10q71 0 118.5 55.5t43.5 142.5q-1 61 -35 137.5t-121 214.5l-182 282l-310 -488h-76z" />
<glyph unicode="&#x4fe;" horiz-adv-x="1140" vert-adv-y="2444" d="M126 1448l442 -668h6l442 668h80l-462 -694h212v-60h-212l462 -694h-80l-442 668h-6l-444 -668h-80l464 694h-212v60h212l-464 694h82z" />
<glyph unicode="&#x4ff;" horiz-adv-x="966" vert-adv-y="2444" d="M172 1086l310 -492l310 492h76l-327 -512h217v-60h-217l327 -514h-74l-312 490l-310 -490h-76l327 514h-215v60h215l-327 512h76z" />
<glyph unicode="&#x2000;" horiz-adv-x="983" vert-adv-y="0" />
<glyph unicode="&#x2001;" horiz-adv-x="1966" vert-adv-y="0" />
<glyph unicode="&#x2002;" horiz-adv-x="983" vert-adv-y="0" />
<glyph unicode="&#x2003;" horiz-adv-x="1966" vert-adv-y="0" />
<glyph unicode="&#x2004;" horiz-adv-x="655" vert-adv-y="0" />
<glyph unicode="&#x2005;" horiz-adv-x="491" vert-adv-y="0" />
<glyph unicode="&#x2006;" horiz-adv-x="327" vert-adv-y="0" />
<glyph unicode="&#x2007;" horiz-adv-x="327" vert-adv-y="0" />
<glyph unicode="&#x2008;" horiz-adv-x="245" vert-adv-y="0" />
<glyph unicode="&#x2009;" horiz-adv-x="393" vert-adv-y="0" />
<glyph unicode="&#x200a;" horiz-adv-x="109" vert-adv-y="0" />
<glyph unicode="&#x2010;" horiz-adv-x="838" vert-adv-y="2444" d="M696 652v-62h-554v62h554z" />
<glyph unicode="&#x2011;" horiz-adv-x="838" vert-adv-y="2444" d="M696 652v-62h-554v62h554z" />
<glyph unicode="&#x2012;" horiz-adv-x="838" vert-adv-y="2444" d="M696 652v-62h-554v62h554z" />
<glyph unicode="&#x2013;" horiz-adv-x="952" vert-adv-y="2444" d="M974 652v-62h-996v62h996z" />
<glyph unicode="&#x2014;" horiz-adv-x="1948" vert-adv-y="2444" d="M1970 652v-62h-1992v62h1992z" />
<glyph unicode="&#x2018;" horiz-adv-x="306" vert-adv-y="2444" d="M62 982l128 466h54l-114 -466h-68z" />
<glyph unicode="&#x2019;" horiz-adv-x="306" vert-adv-y="2444" d="M244 1448l-128 -466h-54l114 466h68z" />
<glyph unicode="&#x201a;" horiz-adv-x="306" vert-adv-y="2444" d="M244 180l-128 -466h-54l114 466h68z" />
<glyph unicode="&#x201c;" horiz-adv-x="634" vert-adv-y="2444" d="M84 982l128 466h54l-114 -466h-68zM350 982l128 466h54l-114 -466h-68z" />
<glyph unicode="&#x201d;" horiz-adv-x="634" vert-adv-y="2444" d="M550 1448l-128 -466h-54l114 466h68zM102 982l114 466h68l-128 -466h-54z" />
<glyph unicode="&#x201e;" horiz-adv-x="572" vert-adv-y="2444" d="M510 98l-128 -466h-54l114 466h68zM62 -368l114 466h68l-128 -466h-54z" />
<glyph unicode="&#x2022;" horiz-adv-x="918" vert-adv-y="2444" d="M458 438q-58 0 -99 41t-41 99q0 57 41 97.5t99 40.5q57 0 98 -40.5t40 -97.5q1 -58 -40 -99t-98 -41z" />
<glyph unicode="&#x2026;" horiz-adv-x="1404" vert-adv-y="2444" d="M234 -8q-26 -1 -44.5 17.5t-19.5 44.5q1 26 19.5 44.5t44.5 19.5q26 -1 44.5 -19.5t17.5 -44.5q1 -26 -17.5 -44.5t-44.5 -17.5zM638 54q1 26 19.5 44.5t44.5 19.5q26 -1 44.5 -19.5t17.5 -44.5q1 -26 -17.5 -44.5t-44.5 -17.5q-26 -1 -44.5 17.5t-19.5 44.5zM1106 54 q1 26 19.5 44.5t44.5 19.5q26 -1 44.5 -19.5t17.5 -44.5q1 -26 -17.5 -44.5t-44.5 -17.5q-26 -1 -44.5 17.5t-19.5 44.5z" />
<glyph unicode="&#x202f;" horiz-adv-x="393" vert-adv-y="0" />
<glyph unicode="&#x2039;" horiz-adv-x="646" vert-adv-y="2444" d="M492 156h-68l-286 424v20l286 424h68l-287 -434z" />
<glyph unicode="&#x203a;" horiz-adv-x="646" vert-adv-y="2444" d="M152 156l287 434l-287 434h70l284 -424v-20l-284 -424h-70z" />
<glyph unicode="&#x205f;" horiz-adv-x="491" vert-adv-y="0" />
<glyph unicode="&#x20ac;" horiz-adv-x="1312" vert-adv-y="2444" d="M990 910l-28 -60h-685q-7 -70 -7 -126t7 -126h571l-30 -60h-531q43 -226 181 -359.5t332 -134.5q199 1 344 146l28 -62q-154 -148 -372 -148q-222 0 -378.5 152t-201.5 406h-176l26 60h141q-7 72 -7 126t7 126h-167l26 60h150q45 254 201.5 406t378.5 152q220 0 376 -154 l-26 -60q-147 150 -350 150q-194 0 -332 -133.5t-181 -360.5h703z" />
<glyph unicode="&#x2122;" horiz-adv-x="1116" vert-adv-y="2444" d="M770 928l-176 416v-416h-52v520h64l188 -448l188 448h64v-520h-52v416l-176 -416h-48zM58 1398v50h368v-50h-158v-470h-52v470h-158z" />
</font>
</defs>
</svg>
