<?xml version="1.0" standalone="no"?>
<!DOCTYPE svg PUBLIC "-//W3C//DTD SVG 1.1//EN" "http://www.w3.org/Graphics/SVG/1.1/DTD/svg11.dtd" >
<svg xmlns="http://www.w3.org/2000/svg" xmlns:xlink="http://www.w3.org/1999/xlink" version="1.1">
<metadata></metadata>
<defs>
<font id="pretendardbold" horiz-adv-x="1176" >
<font-face units-per-em="2048" ascent="1638" descent="-410" />
<missing-glyph horiz-adv-x="500" />
<glyph horiz-adv-x="0" />
<glyph horiz-adv-x="682" />
<glyph unicode="!" horiz-adv-x="628" d="M148 150q-1 69 48 118t120 48q67 1 116.5 -48t49.5 -118t-49.5 -118.5t-116.5 -49.5q-71 0 -120 49t-48 119zM160 1448h308l-26 -1014h-256z" />
<glyph unicode="&#x22;" horiz-adv-x="770" d="M94 900v548h214v-548h-214zM460 900v548h214v-548h-214z" />
<glyph unicode="#" horiz-adv-x="1278" d="M14 362l38 222h198l46 280h-198l36 224h199l59 360h224l-59 -360h284l59 360h224l-59 -360h199l-38 -224h-198l-46 -280h200l-38 -222h-198l-60 -362h-222l59 362h-285l-60 -362h-224l60 362h-200zM474 584h285l46 280h-285z" />
<glyph unicode="$" horiz-adv-x="1290" d="M74 452h292q7 -94 68 -149.5t162 -67.5v379l-90 22q-394 97 -394 394q-1 182 133.5 300.5t350.5 135.5v164h116v-164q218 -13 349.5 -131.5t134.5 -300.5h-288q-7 75 -58.5 121.5t-137.5 57.5v-358l70 -17q201 -46 317 -149.5t117 -274.5q-1 -190 -133.5 -305 t-370.5 -128v-163h-116v163q-240 13 -378 134t-144 337zM420 1050q-1 -62 46 -101.5t130 -64.5v328q-83 -13 -129 -56t-47 -106zM712 236q92 12 146 60t54 118q0 63 -49.5 103t-150.5 68v-349z" />
<glyph unicode="%" horiz-adv-x="1966" d="M160 1110q0 175 89 281.5t245 106.5q159 0 246 -106t88 -282q-1 -176 -88.5 -281t-245.5 -105q-159 0 -246.5 105.5t-87.5 280.5zM364 1110q1 -96 34.5 -151.5t95.5 -56.5q63 1 96 56.5t34 151.5q-1 98 -33 154t-97 56q-62 -1 -95.5 -58t-34.5 -152zM368 0l996 1448h224 l-996 -1448h-224zM1138 338q0 174 88.5 280.5t243.5 107.5q161 -1 248 -106.5t88 -281.5q-1 -176 -89 -281t-247 -105q-158 0 -245 105.5t-87 280.5zM1342 338q1 -96 34.5 -152t93.5 -56q64 0 97.5 55.5t34.5 152.5q-1 98 -33.5 153.5t-98.5 54.5q-61 1 -94 -56t-34 -152z " />
<glyph unicode="&#x26;" horiz-adv-x="1328" d="M74 384q0 118 65.5 203t199.5 177q-139 177 -139 332q0 160 109.5 265.5t284.5 106.5q169 -1 272 -99.5t102 -240.5q1 -196 -192 -334l-85 -62l242 -278q61 114 61 250h246q1 -280 -130 -454l218 -250h-310l-89 100q-150 -120 -371 -122q-220 1 -352 116t-132 290z M362 400q0 -79 58 -131t152 -51q102 0 197 60l-277 309l-10 -7q-120 -86 -120 -180zM454 1092q1 -73 94 -191l76 51q107 68 106 160q1 45 -36.5 81t-97.5 35q-62 0 -101.5 -39.5t-40.5 -96.5z" />
<glyph unicode="'" horiz-adv-x="404" d="M94 900v548h214v-548h-214z" />
<glyph unicode="(" horiz-adv-x="798" d="M160 552q1 526 308 958h282q-112 -161 -197 -432.5t-85 -525.5t85 -525.5t197 -434.5h-282q-307 433 -308 960z" />
<glyph unicode=")" horiz-adv-x="798" d="M48 -408q112 163 197 434.5t85 525.5t-85 525.5t-197 432.5h282q307 -432 308 -958q-1 -527 -308 -960h-282z" />
<glyph unicode="*" horiz-adv-x="1104" d="M152 918l248 122l-248 124l94 162l230 -154l-18 276h188l-18 -276l230 154l94 -162l-248 -124l248 -122l-94 -162l-230 154l18 -276h-188l18 276l-230 -154z" />
<glyph unicode="+" horiz-adv-x="1338" d="M170 454v250h374v374h250v-374h374v-250h-374v-374h-250v374h-374z" />
<glyph unicode="," horiz-adv-x="588" d="M54 -422l100 570h284l-172 -570h-212z" />
<glyph unicode="-" horiz-adv-x="920" d="M130 478v236h660v-236h-660z" />
<glyph unicode="." horiz-adv-x="578" d="M122 150q-1 69 48 118t120 48q67 1 116.5 -48t49.5 -118t-49.5 -118.5t-116.5 -49.5q-71 0 -120 49t-48 119z" />
<glyph unicode="/" horiz-adv-x="760" d="M20 -218l466 1734h256l-468 -1734h-254z" />
<glyph unicode="0" horiz-adv-x="1352" d="M94 724q0 353 155 548.5t427 195.5t427 -195.5t155 -548.5q0 -355 -154.5 -549.5t-427.5 -194.5q-274 0 -428 195t-154 549zM402 724q-1 -245 72 -370.5t202 -125.5t202 125.5t72 370.5q1 243 -72.5 370t-201.5 128q-128 -1 -201 -128t-73 -370z" />
<glyph unicode="1" horiz-adv-x="960" d="M96 954v266l358 228h284v-1448h-302v1162h-8z" />
<glyph unicode="2" horiz-adv-x="1250" d="M100 1004q-1 211 141.5 337.5t372.5 126.5q231 0 373.5 -119.5t142.5 -308.5q0 -127 -79.5 -249.5t-298.5 -320.5l-220 -214v-8h618v-248h-1036l-2 218l520 478q114 109 161 176.5t47 147.5q0 95 -64.5 152t-165.5 56q-103 1 -164 -59.5t-60 -164.5h-286z" />
<glyph unicode="3" horiz-adv-x="1308" d="M98 408h304q4 -80 74 -129.5t176 -50.5q109 1 178 56t68 142q1 90 -73.5 145.5t-200.5 56.5h-134v222h134q108 0 175.5 53.5t66.5 138.5q1 84 -57.5 135.5t-154.5 50.5q-98 1 -166 -49.5t-72 -132.5h-288q4 186 153 304t373 118q223 0 363 -116.5t139 -291.5 q1 -120 -74.5 -202t-199.5 -104v-12q158 -19 244 -109t84 -227q1 -186 -157 -306t-403 -120q-239 0 -393.5 119.5t-158.5 308.5z" />
<glyph unicode="4" horiz-adv-x="1346" d="M90 256v238l612 954h378v-950h184v-242h-184v-256h-286v256h-704zM394 498h404v620h-14l-390 -608v-12z" />
<glyph unicode="5" horiz-adv-x="1284" d="M118 408h292q5 -84 72.5 -137.5t163.5 -52.5q113 -1 185 71t71 185q1 115 -72 188t-188 74q-163 0 -228 -122h-272l78 834h892v-246h-644l-40 -366h12q41 55 119 89t171 33q200 1 332 -133.5t132 -342.5q0 -221 -152.5 -361.5t-395.5 -140.5q-227 0 -375.5 120.5 t-152.5 307.5z" />
<glyph unicode="6" horiz-adv-x="1316" d="M90 690q1 364 161.5 571t434.5 207q214 0 356 -119.5t164 -302.5h-296q-18 76 -77.5 120t-146.5 44q-145 0 -222.5 -122.5t-79.5 -339.5h14q50 96 149.5 150t220.5 54q197 0 326 -132t128 -336q1 -222 -151.5 -363.5t-396.5 -140.5q-93 0 -176 22.5t-159 75.5t-130.5 133 t-86.5 202.5t-32 276.5zM414 476q2 -108 75.5 -183.5t182.5 -74.5q111 -1 184.5 73.5t73.5 184.5q0 109 -72 183t-182 75q-110 -1 -185 -76t-77 -182z" />
<glyph unicode="7" horiz-adv-x="1178" d="M70 1202v246h1022v-250l-610 -1198h-312l610 1192v10h-710z" />
<glyph unicode="8" horiz-adv-x="1318" d="M90 390q0 135 91.5 236t228.5 122v10q-118 22 -191.5 111.5t-72.5 208.5q0 111 65.5 200.5t183 139.5t263.5 50q222 0 367.5 -110.5t146.5 -279.5q-1 -119 -75 -208t-189 -112v-10q134 -21 226 -122.5t92 -235.5q0 -177 -160.5 -293.5t-407.5 -116.5q-163 0 -293 53 t-202.5 146.5t-72.5 210.5zM404 420q-1 -93 69.5 -152t184.5 -58q114 -1 184.5 58t69.5 152q1 94 -71.5 155.5t-182.5 62.5q-111 -1 -183 -62.5t-71 -155.5zM440 1048q-1 -87 60.5 -142t157.5 -56q96 1 157.5 56t62.5 142q-1 85 -62 138.5t-158 53.5t-158 -53.5t-60 -138.5z " />
<glyph unicode="9" horiz-adv-x="1316" d="M94 966q0 220 152.5 361.5t395.5 140.5q94 0 176.5 -22.5t158.5 -75.5t130.5 -132t86.5 -201t32 -275q1 -366 -160 -574t-436 -208q-214 0 -356 120.5t-164 307.5h296q19 -80 78 -125t146 -45q146 0 223.5 123t78.5 343h-12q-51 -95 -150.5 -149.5t-221.5 -54.5 q-195 0 -324 132t-130 334zM388 974q0 -108 71.5 -181t182.5 -73q109 0 184.5 75.5t75.5 180.5q-2 105 -75.5 180t-182.5 76q-111 -1 -184.5 -75.5t-71.5 -182.5z" />
<glyph unicode=":" horiz-adv-x="578" d="M122 150q-1 69 48 118t120 48q67 1 116.5 -48t49.5 -118t-49.5 -118.5t-116.5 -49.5q-71 0 -120 49t-48 119zM122 912q-1 69 48 118t120 48q67 1 116.5 -48t49.5 -118t-49.5 -118.5t-116.5 -49.5q-71 0 -120 49t-48 119z" />
<glyph unicode=";" horiz-adv-x="578" d="M54 -422l100 570h284l-172 -570h-212zM124 912q-1 69 48 118t120 48q67 1 116.5 -48t49.5 -118t-49.5 -118.5t-116.5 -49.5q-71 0 -120 49t-48 119z" />
<glyph unicode="&#x3c;" horiz-adv-x="1338" d="M174 456v244l992 440v-282l-674 -273v-12l674 -273v-282z" />
<glyph unicode="=" horiz-adv-x="1338" d="M184 222v246h972v-246h-972zM184 690v246h972v-246h-972z" />
<glyph unicode="&#x3e;" horiz-adv-x="1338" d="M174 18v282l674 273v12l-674 273v282l992 -440v-244z" />
<glyph unicode="?" horiz-adv-x="1102" d="M70 1052q4 202 135.5 309t334.5 107q213 0 344.5 -105t131.5 -287q0 -118 -55.5 -201.5t-160.5 -146.5q-88 -52 -125.5 -111t-38.5 -161v-22h-264v22q0 120 24 198.5t60.5 119t103.5 82.5q73 48 113 97t39 113q1 73 -49 119t-125 47q-74 -1 -127.5 -48.5t-56.5 -131.5 h-284zM342 150q-1 69 48 118t120 48q67 1 116.5 -48t49.5 -118t-49.5 -118.5t-116.5 -49.5q-71 0 -120 49t-48 119z" />
<glyph unicode="@" horiz-adv-x="1790" d="M94 612q0 176 59.5 327.5t164.5 259.5t254.5 169.5t323.5 61.5q232 0 415 -98t284 -272t101 -392q0 -223 -103.5 -347.5t-280.5 -124.5q-102 1 -174 42.5t-90 107.5h-8q-26 -57 -81.5 -98t-140.5 -42q-139 1 -229.5 107.5t-90.5 298.5q0 194 92 298.5t228 105.5 q83 -1 137 -40.5t79 -93.5h8v112h216v-506q2 -48 20.5 -71.5t55.5 -22.5q68 -1 108.5 72t41.5 196q0 250 -160.5 401t-427.5 151q-266 0 -427 -168t-161 -434q0 -287 150 -446t434 -158q202 0 366 42v-208q-162 -50 -366 -50q-250 0 -431 101.5t-274 285.5t-93 433zM748 612 q-1 -92 38.5 -147.5t109.5 -54.5q72 -1 111.5 53t40.5 149q-1 94 -40 147.5t-112 54.5q-70 -1 -109.5 -56t-38.5 -146z" />
<glyph unicode="A" horiz-adv-x="1470" d="M40 0l502 1448h386l500 -1448h-322l-109 334h-524l-109 -334h-324zM549 568h372l-181 554h-10z" />
<glyph unicode="B" horiz-adv-x="1304" d="M122 0v1448h576q233 0 357 -101.5t123 -270.5q1 -123 -71 -203.5t-189 -106.5v-14q129 -6 223 -102t95 -250q-1 -179 -131.5 -289.5t-368.5 -110.5h-614zM422 248h254h5q123 0 183 47q62 48 60 133q1 92 -64.5 150t-175.5 58h-262v-388zM422 842h232h4q94 0 154 50 q62 51 62 136q1 80 -56 128t-158 48h-238v-362z" />
<glyph unicode="C" horiz-adv-x="1482" d="M94 724q0 174 51.5 315.5t142 234.5t214 143.5t266.5 50.5q255 0 425.5 -139t200.5 -385h-304q-18 119 -103 188t-213 70q-171 -1 -272.5 -127t-101.5 -351q0 -229 101 -353t271 -125q125 1 211 66.5t107 181.5l304 -2q-13 -102 -61 -193.5t-125.5 -163t-191.5 -113.5 t-248 -42q-145 0 -268.5 50.5t-213.5 144t-141 235t-51 314.5z" />
<glyph unicode="D" horiz-adv-x="1436" d="M122 0v1448h516q328 0 515.5 -192t186.5 -530q1 -340 -187.5 -533t-520.5 -193h-510zM422 258h198q210 0 315 114t105 354q0 238 -104.5 351t-313.5 113h-200v-932z" />
<glyph unicode="E" horiz-adv-x="1206" d="M122 0v1448h972v-248h-672v-352h622v-248h-622v-352h674v-248h-974z" />
<glyph unicode="F" horiz-adv-x="1152" d="M122 0v1448h954v-248h-654v-352h592v-248h-592v-600h-300z" />
<glyph unicode="G" horiz-adv-x="1500" d="M94 722q0 172 52 314t143 236t214.5 145t266.5 51q244 0 416 -136t202 -350h-304q-31 103 -111 161t-197 59q-171 -1 -273.5 -126.5t-102.5 -349.5q0 -227 101.5 -353t276.5 -127q154 1 242.5 81.5t91.5 218.5h-314v226h604v-180q0 -187 -80.5 -326.5t-222 -212.5 t-323.5 -73q-307 0 -494.5 200.5t-187.5 541.5z" />
<glyph unicode="H" horiz-adv-x="1474" d="M122 0v1448h300v-600h628v600h302v-1448h-302v600h-628v-600h-300z" />
<glyph unicode="I" horiz-adv-x="544" d="M122 0v1448h300v-1448h-300z" />
<glyph unicode="J" horiz-adv-x="1120" d="M42 404h300q1 -86 49.5 -134t130.5 -48q87 0 132.5 55t45.5 161v1010h298v-1010q0 -209 -135 -333.5t-355 -124.5q-100 0 -184 26.5t-147.5 78t-99 133t-35.5 186.5z" />
<glyph unicode="K" horiz-adv-x="1358" d="M122 0v1448h300v-642h20l526 642h362l-540 -648l546 -800h-360l-402 598l-152 -184v-414h-300z" />
<glyph unicode="L" horiz-adv-x="1118" d="M122 0v1448h300v-1200h624v-248h-924z" />
<glyph unicode="M" horiz-adv-x="1808" d="M122 0v1448h372l402 -982h16l402 982h372v-1448h-292v948h-12l-378 -942h-200l-378 946h-12v-952h-292z" />
<glyph unicode="N" horiz-adv-x="1452" d="M122 0v1448h264l632 -920h14v920h298v-1448h-260l-636 920h-12v-920h-300z" />
<glyph unicode="O" horiz-adv-x="1542" d="M94 724q0 174 51.5 315.5t142.5 234.5t215 143.5t269 50.5q144 0 267.5 -50.5t214.5 -143.5t142.5 -234.5t51.5 -315.5t-51.5 -315.5t-142.5 -234.5t-214.5 -143.5t-267.5 -50.5q-145 0 -269 50.5t-215 144t-142.5 235t-51.5 314.5zM400 724q0 -228 100 -352.5 t272 -125.5q171 1 271 125.5t99 352.5q1 228 -99 352.5t-271 125.5q-172 -1 -272 -125t-100 -353z" />
<glyph unicode="P" horiz-adv-x="1276" d="M122 0v1448h568q242 0 380 -135t138 -353q0 -221 -139.5 -354.5t-386.5 -133.5h-260v-472h-300zM422 714h212q130 0 197.5 66.5t66.5 179.5q1 111 -66.5 176t-197.5 66h-212v-488z" />
<glyph unicode="Q" horiz-adv-x="1544" d="M94 724q0 174 51.5 315.5t142.5 234.5t215 143.5t269 50.5q144 0 267.5 -50.5t214.5 -143.5t142.5 -234.5t51.5 -315.5q0 -190 -60.5 -338t-169.5 -246l206 -260h-282l-116 144q-118 -44 -254 -44q-145 0 -269 50.5t-215 144t-142.5 235t-51.5 314.5zM400 724 q0 -228 100 -352.5t272 -125.5q44 0 83 9l-189 247h258l110 -141q109 127 108 363q1 228 -99 352.5t-271 125.5q-172 -1 -272 -125t-100 -353z" />
<glyph unicode="R" horiz-adv-x="1294" d="M122 0v1448h568q244 0 381 -127t137 -345q0 -148 -66 -254t-190 -159l308 -563h-332l-277 514h-229v-514h-300zM422 758h212q133 0 199 54.5t65 163.5q1 110 -65 167.5t-199 58.5h-212v-444z" />
<glyph unicode="S" horiz-adv-x="1290" d="M74 452h292q7 -107 84.5 -163.5t201.5 -56.5q118 0 189 50.5t71 131.5q0 70 -60.5 111.5t-187.5 72.5l-158 38q-394 97 -394 397q0 193 154 313q154 122 394 122q239 0 386 -120.5t150 -313.5h-288q-9 86 -74.5 134t-175.5 48q-111 0 -174 -46t-64 -120q0 -38 17.5 -68 t51.5 -51t73 -35.5t90 -25.5l130 -32q201 -46 317 -149.5t117 -274.5q-2 -201 -150 -318q-147 -116 -406 -116h-4h-4q-264 0 -417 120q-154 122 -161 352z" />
<glyph unicode="T" horiz-adv-x="1316" d="M66 1200v248h1186v-248h-444v-1200h-298v1200h-444z" />
<glyph unicode="U" horiz-adv-x="1442" d="M122 508v940h300v-916q1 -126 83 -206.5t215 -81.5q135 1 217 81.5t81 206.5v916h302v-940q0 -238 -166 -384q-164 -145 -430 -144h-4h-4q-267 0 -430 144q-164 146 -164 384z" />
<glyph unicode="V" horiz-adv-x="1470" d="M40 1448h336l352 -1104h14l354 1104h332l-500 -1448h-386z" />
<glyph unicode="W" horiz-adv-x="2046" d="M32 1448h328l244 -1012h12l266 1012h282l266 -1014h12l244 1014h328l-414 -1448h-294l-276 956h-12l-278 -956h-294z" />
<glyph unicode="X" horiz-adv-x="1404" d="M50 0l454 724l-446 724h342l296 -498h10l298 498h340l-442 -724l452 -724h-348l-300 498h-10l-300 -498h-346z" />
<glyph unicode="Y" horiz-adv-x="1424" d="M34 1448h338l334 -624h14l332 624h338l-528 -932v-516h-300v516z" />
<glyph unicode="Z" horiz-adv-x="1312" d="M102 1200v248h1104v-180l-724 -1020h726v-248h-1104v180l726 1020h-728z" />
<glyph unicode="[" horiz-adv-x="798" d="M206 -408v1918h552v-222h-268v-1474h268v-222h-552z" />
<glyph unicode="\" horiz-adv-x="760" d="M20 1516h254l468 -1734h-256z" />
<glyph unicode="]" horiz-adv-x="798" d="M40 -186h268v1474h-268v222h552v-1918h-552v222z" />
<glyph unicode="^" horiz-adv-x="956" d="M60 792l298 624h240l298 -624h-258l-154 348h-12l-154 -348h-258z" />
<glyph unicode="_" horiz-adv-x="934" d="M-8 0h950v-226h-950v226z" />
<glyph unicode="`" horiz-adv-x="978" d="M276 1548h276l150 -322h-210z" />
<glyph unicode="a" horiz-adv-x="1142" d="M64 304q0 87 33 151.5t92 102t127 56.5t152 24q110 7 270 14v88q-1 68 -46 105.5t-128 38.5q-75 -1 -121.5 -32.5t-58.5 -87.5h-282q14 147 137.5 241.5t332.5 94.5q92 0 172.5 -21t146 -64t103.5 -115.5t38 -167.5v-732h-280v150h-8q-42 -79 -122 -125q-78 -45 -191 -45 h-5h-4q-160 0 -258 84q-100 84 -100 240zM348 312q0 -61 44.5 -94t117.5 -34q100 1 164.5 59t63.5 145v79q-134 -6 -222 -13q-79 -7 -123.5 -43.5t-44.5 -98.5z" />
<glyph unicode="b" horiz-adv-x="1252" d="M122 0v1448h296v-544h8q91 196 310 196q190 0 315.5 -145.5t126.5 -412.5q-1 -264 -125 -412t-317 -148q-121 0 -196 55.5t-114 136.5h-12v-174h-292zM412 544q-1 -149 60.5 -237t169.5 -89q111 1 172 90t60 236q1 146 -59.5 233t-172.5 87q-109 0 -170 -86t-60 -234z " />
<glyph unicode="c" horiz-adv-x="1154" d="M72 540q-1 251 143 405.5t389 154.5q210 0 341.5 -112.5t140.5 -299.5h-278q-14 83 -66 132t-134 50q-108 -1 -172 -87t-64 -239q0 -156 63.5 -243t172.5 -87q79 0 132.5 47.5t67.5 132.5h278q-10 -187 -139.5 -301t-342.5 -115q-247 1 -390 155.5t-142 406.5z" />
<glyph unicode="d" horiz-adv-x="1252" d="M74 542q0 136 35 243.5t96 175.5t140.5 103.5t170.5 35.5q65 0 118.5 -17.5t90 -48t60 -62t39.5 -68.5h10v544h296v-1448h-292v174h-14q-37 -81 -112 -136.5t-196 -55.5q-193 0 -317.5 148t-124.5 412zM378 544q-1 -147 59.5 -236t170.5 -90q110 1 171 89t61 237 q0 148 -61 234t-171 86q-111 0 -171 -87.5t-59 -232.5z" />
<glyph unicode="e" d="M72 538q-1 252 142.5 407t381.5 155q108 0 200 -34.5t161.5 -101t109 -173t39.5 -241.5v-84h-742q0 -123 67.5 -194t182.5 -72q74 1 127 30.5t75 79.5h282q-32 -152 -161.5 -241.5t-328.5 -90.5q-249 1 -393 151.5t-143 408.5zM364 652h462q-2 100 -64 164 q-62 63 -157 62h-3.5h-2.5q-97 0 -163 -64q-66 -66 -72 -162z" />
<glyph unicode="f" horiz-adv-x="752" d="M28 864v222h154v82q0 169 94.5 258.5t261.5 89.5q98 0 176 -18v-224q-12 1 -90 6q-73 -1 -109.5 -31t-36.5 -97v-66h216v-222h-216v-864h-296v864h-154z" />
<glyph unicode="g" horiz-adv-x="1246" d="M74 550q0 134 35 240.5t96 173t140.5 101.5t170.5 35q65 0 119 -17.5t90.5 -48t60 -62t40.5 -68.5h12v182h294v-1098q-1 -202 -145 -310t-383 -108q-222 0 -355.5 92t-146.5 248h292q23 -126 216 -126q229 0 230 210v198h-14q-33 -75 -111 -126q-77 -50 -194 -50h-5 q-93 0 -172.5 33t-140 97.5t-95 168t-34.5 235.5zM378 546q-1 -143 59 -225t171 -83q111 1 171.5 82t60.5 226q0 147 -61 232.5t-171 85.5q-111 0 -171 -87t-59 -231z" />
<glyph unicode="h" horiz-adv-x="1228" d="M116 0v1448h288v-552h12q38 97 120.5 150.5t203.5 53.5q172 0 274 -109t102 -299v-692h-296v640q0 101 -51.5 157.5t-144.5 56.5q-95 0 -153.5 -60t-58.5 -166v-628h-296z" />
<glyph unicode="i" horiz-adv-x="526" d="M102 1378q0 63 47.5 107t114.5 45q66 -1 113.5 -45t46.5 -107q1 -61 -46.5 -105.5t-113.5 -44.5q-67 0 -114.5 44t-47.5 106zM116 0v1086h296v-1086h-296z" />
<glyph unicode="j" horiz-adv-x="526" d="M-56 -174q7 0 20 -0.5t20 -1.5q70 1 101 31.5t31 94.5v1136h296v-1140q-1 -352 -408 -354l-60 2v232zM100 1378q0 63 47.5 107t114.5 45q66 -1 113.5 -45t46.5 -107q1 -61 -46.5 -105.5t-113.5 -44.5q-67 0 -114.5 44t-47.5 106z" />
<glyph unicode="k" horiz-adv-x="1142" d="M116 0v1448h296v-778h16l352 416h340l-405 -470l427 -616h-348l-299 442l-83 -94v-348h-296z" />
<glyph unicode="l" horiz-adv-x="526" d="M116 0v1448h296v-1448h-296z" />
<glyph unicode="m" horiz-adv-x="1800" d="M116 0v1086h282v-190h12q35 96 114 150t188 54q111 0 190 -55t106 -149h10q34 93 122 148.5t206 55.5q154 0 248 -98t94 -272v-730h-296v672q1 90 -46.5 137t-123.5 47q-82 0 -129.5 -52.5t-46.5 -139.5v-664h-288v680q1 80 -45.5 128t-122.5 48q-77 0 -128 -56.5 t-50 -147.5v-652h-296z" />
<glyph unicode="n" horiz-adv-x="1224" d="M116 0v1086h282v-190h12q37 95 122 149.5t204 54.5q171 0 273 -109.5t101 -298.5v-692h-294v640q-1 101 -52.5 157.5t-143.5 56.5q-94 0 -151 -60t-57 -166v-628h-296z" />
<glyph unicode="o" horiz-adv-x="1208" d="M72 540q-1 253 143.5 406.5t388.5 153.5q245 0 389 -153.5t145 -406.5q-1 -254 -145 -407.5t-389 -154.5q-245 1 -389 154.5t-143 407.5zM372 540q0 -148 60.5 -239.5t173.5 -92.5q110 1 170.5 93t59.5 239q1 148 -59.5 241t-170.5 93q-113 0 -173.5 -92.5t-60.5 -241.5z " />
<glyph unicode="p" horiz-adv-x="1246" d="M116 -408v1494h292v-182h12q91 196 310 196q91 0 170 -35.5t140 -103.5t95.5 -175.5t34.5 -243.5q0 -133 -33.5 -240t-93 -176.5t-139.5 -106.5t-174 -37q-121 0 -196.5 55.5t-113.5 136.5h-8v-582h-296zM406 544q-1 -149 60 -237t170 -89q111 1 172 90t60 236 q1 146 -59.5 233t-172.5 87q-110 0 -170.5 -86t-59.5 -234z" />
<glyph unicode="q" horiz-adv-x="1246" d="M74 542q0 136 35 243.5t96 175.5t140.5 103.5t170.5 35.5q65 0 118.5 -17.5t90 -48t60 -62t39.5 -68.5h14v182h292v-1494h-296v582h-10q-37 -81 -112 -136.5t-196 -55.5q-193 0 -317.5 148t-124.5 412zM378 544q-1 -147 59.5 -236t170.5 -90q110 1 171 89t61 237 q0 148 -61 234t-171 86q-111 0 -171 -87.5t-59 -232.5z" />
<glyph unicode="r" horiz-adv-x="798" d="M116 0v1086h286v-188h12q29 98 99 151t163 53q51 0 94 -10v-264q-50 16 -126 16q-101 0 -167 -63.5t-65 -162.5v-618h-296z" />
<glyph unicode="s" horiz-adv-x="1104" d="M66 322h298q21 -128 192 -130q82 1 131 31.5t49 82.5q0 82 -148 112l-180 36q-155 31 -234 109t-78 199q-1 156 123 247t335 91q204 0 326 -90t134 -246h-278q-10 57 -57 91t-121 35q-73 -1 -121 -32t-47 -80q-2 -79 140 -108l194 -40q159 -33 236 -105t78 -189 q-1 -161 -133 -259t-349 -99q-217 1 -344 92t-146 252z" />
<glyph unicode="t" horiz-adv-x="758" d="M38 864v222h150v260h296v-260h204v-222h-204v-530q-1 -61 25.5 -84.5t76.5 -25.5q46 0 118 6v-234q-66 -10 -144 -10h-14h-4q-164 0 -259 76q-96 77 -95 230v572h-150z" />
<glyph unicode="u" horiz-adv-x="1222" d="M116 394v692h296v-640q0 -96 51.5 -152.5t138.5 -57.5q87 1 148.5 61t61.5 165v624h296v-1086h-284v196h-12q-38 -97 -124 -153.5t-206 -56.5q-165 0 -265.5 110t-100.5 298z" />
<glyph unicode="v" horiz-adv-x="1152" d="M30 1086h312l228 -780h12l228 780h314l-382 -1086h-332z" />
<glyph unicode="w" horiz-adv-x="1678" d="M34 1086h300l170 -734h10l178 734h294l180 -730h10l168 730h300l-298 -1086h-312l-188 690h-14l-188 -690h-314z" />
<glyph unicode="x" horiz-adv-x="1128" d="M44 0l324 544l-312 542h306l202 -382l206 382h306l-318 -542l326 -544h-304l-216 378l-212 -378h-308z" />
<glyph unicode="y" horiz-adv-x="1152" d="M30 1086h310l228 -800h12l230 800h314l-424 -1206q-49 -139 -147.5 -213t-262.5 -75q-111 2 -150 6v230q51 -4 120 -4q26 0 42.5 2.5t36 12t35 30.5t28.5 55l18 46z" />
<glyph unicode="z" horiz-adv-x="1124" d="M108 0v178l536 664v8h-518v236h874v-194l-502 -648v-8h520v-236h-910z" />
<glyph unicode="{" horiz-adv-x="798" d="M56 418v268h8q115 1 162 48.5t46 157.5v224q0 101 24.5 173t64 114.5t104.5 67t132 32t161 7.5v-222q-120 0 -161 -46t-41 -156v-272q0 -45 -11 -80.5t-37.5 -69t-77 -58.5t-124.5 -40v-29q74 -15 124.5 -40t77 -58.5t37.5 -69t11 -79.5v-272q0 -110 41 -156.5t161 -47.5 v-222q-94 0 -161 8t-132 32.5t-104.5 67t-64 115t-24.5 173.5v224q1 110 -47.5 158t-168.5 48z" />
<glyph unicode="|" horiz-adv-x="728" d="M224 -204v1856h280v-1856h-280z" />
<glyph unicode="}" horiz-adv-x="798" d="M40 -186q120 1 161 47.5t41 156.5v272q0 44 11 79.5t37.5 69t77 58.5t124.5 40v29q-74 15 -124.5 40t-77 58.5t-37.5 69t-11 80.5v272q0 110 -41 156t-161 46v222q94 0 161 -7.5t132 -32t104.5 -67t64 -114.5t24.5 -173v-224q-1 -110 46 -157.5t162 -48.5h8v-268 q-120 0 -168.5 -48t-47.5 -158v-224q0 -101 -24.5 -173.5t-64 -115t-104.5 -67t-132 -32.5t-161 -8v222z" />
<glyph unicode="~" horiz-adv-x="1338" d="M190 398v244q102 108 248 110q55 0 119.5 -18t114.5 -39.5t114.5 -39t119.5 -17.5q143 0 242 110v-244q-104 -110 -248 -110q-55 0 -119.5 17.5t-114.5 39t-114.5 39.5t-119.5 18q-143 -2 -242 -110z" />
<glyph unicode="&#xa2;" horiz-adv-x="1154" d="M72 724q-1 235 126 386.5t346 170.5v167h116v-166q187 -16 302.5 -126.5t123.5 -283.5h-278q-12 68 -50 114.5t-98 61.5v-644q58 14 97 59t51 115h278q-9 -174 -122.5 -286t-303.5 -128v-164h-116v165q-221 20 -347 171.5t-125 387.5zM372 728q0 -131 45.5 -214 t126.5 -107v638q-81 -24 -126.5 -106.5t-45.5 -210.5z" />
<glyph unicode="&#xa3;" horiz-adv-x="1322" d="M128 576v238h157l-7 224q-5 135 54 233.5t162 147.5t236 49q217 0 340 -116.5t114 -301.5l-282 8q4 86 -43.5 127t-124.5 41q-71 0 -116 -48.5t-44 -139.5l8 -224h318v-238h-309l5 -140q3 -118 -58 -188h644v-248h-1050v248h92q78 16 74 172l-5 156h-165z" />
<glyph unicode="&#xa5;" horiz-adv-x="1124" d="M22 1448h310l230 -561l232 561h308l-323 -702h215v-174h-286v-106h286v-174h-286v-292h-298v292h-310v174h310v106h-310v174h244z" />
<glyph unicode="&#xa8;" horiz-adv-x="1060" d="M168 1378q-1 59 42 101t104 43q62 -1 104 -42.5t42 -101.5q0 -58 -42.5 -100t-103.5 -42q-60 0 -103.5 42t-42.5 100zM600 1378q-1 59 42 101t104 43q62 -1 104 -42.5t42 -101.5q0 -58 -42.5 -100t-103.5 -42q-60 0 -103.5 42t-42.5 100z" />
<glyph unicode="&#xa9;" horiz-adv-x="1682" d="M94 724q1 203 101.5 375t272.5 271.5t374 99.5q203 0 374.5 -99.5t271.5 -271.5t100 -375q0 -152 -58.5 -290t-158.5 -238t-238.5 -159t-290.5 -59q-202 0 -374.5 99.5t-273 272t-100.5 374.5zM326 724q0 -104 41 -199t110 -164t164.5 -110t200.5 -41q140 0 258 69 t187 187t69 258q-1 140 -70 258.5t-187 187t-257 68.5t-257.5 -69t-188 -187.5t-70.5 -257.5zM448 724q0 109 53 201t145 145.5t200 53.5q145 0 254 -92.5t126 -229.5h-210q-10 53 -58.5 87.5t-111.5 34.5q-82 0 -140.5 -58.5t-57.5 -141.5q-1 -82 57.5 -140.5t140.5 -59.5 q62 1 107.5 35t56.5 87h208q-16 -137 -121.5 -229t-250.5 -93q-165 1 -282 118t-116 282z" />
<glyph unicode="&#xab;" horiz-adv-x="1226" d="M110 580v20l286 424h268l-270 -434l270 -434h-268zM572 580v20l286 424h268l-270 -434l270 -434h-268z" />
<glyph unicode="&#xad;" horiz-adv-x="920" d="M130 478v236h660v-236h-660z" />
<glyph unicode="&#xae;" horiz-adv-x="1308" d="M88 902q0 115 45 220t121 180.5t180.5 120.5t219.5 45t220 -45t180.5 -120.5t120.5 -180.5t45 -220t-45 -219.5t-120.5 -180.5t-180.5 -121t-220 -45t-219.5 45t-180.5 121t-121 180.5t-45 219.5zM238 902q-1 -172 121.5 -294.5t294.5 -121.5q114 0 210 55.5t152 151.5 t56 209q0 173 -122.5 295.5t-295.5 122.5q-113 0 -209 -56t-151.5 -152t-55.5 -210zM450 648v522h256q76 0 128 -46.5t52 -125.5q0 -101 -83 -150l99 -200h-148l-81 174h-89v-174h-134zM584 920h86q32 1 53 21t21 57q0 36 -21 54t-51 18h-88v-150z" />
<glyph unicode="&#xb4;" horiz-adv-x="978" d="M372 1226l150 322h276l-216 -322h-210z" />
<glyph unicode="&#xb8;" horiz-adv-x="722" d="M212 -324q189 0 190 90q2 42 -32 65t-108 31l30 144h140l-12 -62q75 -11 120 -55t46 -117q0 -105 -98 -167t-272 -61z" />
<glyph unicode="&#xbb;" horiz-adv-x="1234" d="M96 156l270 434l-270 434h268l286 -424v-20l-286 -424h-268zM564 156l270 434l-270 434h268l286 -424v-20l-286 -424h-268z" />
<glyph unicode="&#x2c6;" horiz-adv-x="1094" d="M152 1216v10l284 310h222l284 -310v-10h-252l-142 174l-144 -174h-252z" />
<glyph unicode="&#x2da;" horiz-adv-x="742" d="M128 1436q1 97 72 166t172 70q100 -1 170.5 -70.5t69.5 -165.5q1 -97 -69 -165t-171 -67q-102 -1 -172.5 66.5t-71.5 165.5zM260 1436q0 -44 32.5 -76t79.5 -32q47 1 78.5 33t31.5 75q0 44 -32 76.5t-78 31.5q-47 0 -79.5 -32t-32.5 -76z" />
<glyph unicode="&#x2dc;" horiz-adv-x="984" d="M122 1222q0 130 65 204t165 74q44 0 84 -16t64.5 -36t54.5 -36t57 -16q40 0 62.5 29.5t23.5 78.5l164 -4q-2 -130 -66.5 -203.5t-163.5 -74.5q-48 0 -88 16t-63 36t-52.5 37t-58.5 17q-36 -1 -58.5 -30.5t-23.5 -77.5z" />
<glyph unicode="&#x400;" horiz-adv-x="1206" d="M122 0v1448h972v-248h-672v-352h622v-248h-622v-352h674v-248h-974zM290 1910h276l150 -322h-210z" />
<glyph unicode="&#x401;" horiz-adv-x="1206" d="M122 0v1448h972v-248h-672v-352h622v-248h-622v-352h674v-248h-974zM248 1740q-1 59 42 101t104 43q62 -1 104 -42.5t42 -101.5q0 -58 -42.5 -100t-103.5 -42q-60 0 -103.5 42t-42.5 100zM680 1740q-1 59 42 101t104 43q62 -1 104 -42.5t42 -101.5q0 -58 -42.5 -100 t-103.5 -42q-60 0 -103.5 42t-42.5 100z" />
<glyph unicode="&#x402;" horiz-adv-x="1678" d="M66 1200v248h1186v-248h-444v-357q127 27 242 27q163 0 285.5 -46.5t195.5 -147t73 -246.5q0 -97 -30.5 -176.5t-95.5 -143t-178.5 -97.5t-267.5 -31l-2 230q130 -1 199 54.5t69 155.5q0 104 -71.5 166.5t-192.5 61.5q-97 1 -226 -23v-627h-298v1200h-444z" />
<glyph unicode="&#x403;" horiz-adv-x="1144" d="M122 0v1448h958v-248h-658v-1200h-300zM504 1588l150 322h276l-216 -322h-210z" />
<glyph unicode="&#x404;" horiz-adv-x="1372" d="M94 662v88q0 327 165 522.5t441 195.5q252 0 410 -135.5t174 -370.5h-294q-6 120 -86.5 190.5t-203.5 69.5q-133 1 -217.5 -105.5t-95.5 -286.5h457v-242h-457q11 -168 95 -267.5t216 -98.5q123 -1 203.5 67.5t86.5 184.5h296q-10 -229 -168.5 -361.5t-417.5 -132.5 q-275 0 -439.5 185.5t-164.5 496.5z" />
<glyph unicode="&#x405;" horiz-adv-x="1290" d="M74 452h292q7 -107 84.5 -163.5t201.5 -56.5q118 0 189 50.5t71 131.5q0 70 -60.5 111.5t-187.5 72.5l-158 38q-394 97 -394 394q-1 195 153.5 316.5t394.5 121.5q239 0 386 -120.5t150 -313.5h-288q-9 86 -74.5 134t-175.5 48q-111 0 -174 -46t-64 -120q0 -38 17.5 -68 t51.5 -51t73 -35.5t90 -25.5l130 -32q201 -46 317 -149.5t117 -274.5q-1 -201 -149.5 -318t-410.5 -116q-267 -1 -421 120.5t-161 351.5z" />
<glyph unicode="&#x406;" horiz-adv-x="544" d="M122 0v1448h300v-1448h-300z" />
<glyph unicode="&#x407;" horiz-adv-x="544" d="M-88 1740q-1 59 42 101t104 43q62 -1 104 -42.5t42 -101.5q0 -58 -42.5 -100t-103.5 -42q-60 0 -103.5 42t-42.5 100zM122 0v1448h300v-1448h-300zM344 1740q-1 59 42 101t104 43q62 -1 104 -42.5t42 -101.5q0 -58 -42.5 -100t-103.5 -42q-60 0 -103.5 42t-42.5 100z" />
<glyph unicode="&#x408;" horiz-adv-x="1120" d="M42 404h300q1 -86 49.5 -134t130.5 -48q87 0 132.5 55t45.5 161v1010h298v-1010q0 -209 -135 -333.5t-355 -124.5q-100 0 -184 26.5t-147.5 78t-99 133t-35.5 186.5z" />
<glyph unicode="&#x409;" horiz-adv-x="2220" d="M84 0v244l38 2q56 2 93.5 25t68.5 82t48.5 169t23.5 280l24 646h970v-538h242q256 0 405 -121.5t149 -326.5q0 -208 -150 -335t-404 -127h-542v1204h-388l-24 -504q-13 -268 -65.5 -420t-150.5 -216t-264 -64h-74zM1350 242h242q119 1 187.5 64.5t68.5 157.5 q0 90 -68 149t-188 59h-242v-430z" />
<glyph unicode="&#x40a;" horiz-adv-x="2216" d="M122 0v1448h300v-538h624v538h300v-538h242q256 0 405 -121.5t149 -326.5q0 -208 -150 -335t-404 -127h-542v672h-624v-672h-300zM1346 242h242q119 1 187.5 64.5t68.5 157.5q0 90 -68 149t-188 59h-242v-430z" />
<glyph unicode="&#x40b;" horiz-adv-x="1750" d="M66 1206v242h1112v-242h-468v-295q142 29 292 29q270 0 420 -116.5t150 -355.5v-468h-292v468q0 124 -66 177t-212 53q-159 0 -292 -26v-672h-296v1206h-348z" />
<glyph unicode="&#x40c;" horiz-adv-x="1358" d="M122 0v1448h300v-642h20l526 642h362l-540 -648l546 -800h-360l-402 598l-152 -184v-414h-300zM572 1588l150 322h276l-216 -322h-210z" />
<glyph unicode="&#x40d;" horiz-adv-x="1452" d="M122 0v1448h300v-920h12l632 920h264v-1448h-300v920h-10l-638 -920h-260zM408 1910h276l150 -322h-210z" />
<glyph unicode="&#x40e;" horiz-adv-x="1320" d="M34 1448h312l344 -720l288 720h308l-500 -1166q-31 -68 -61.5 -116t-77.5 -93.5t-113.5 -69t-151.5 -23.5h-108v246h80q83 0 124 31t64 99l18 48zM310 1826h206q0 -54 34.5 -90t105.5 -36t105.5 36t34.5 90h208q0 -128 -94.5 -206t-253.5 -78q-158 0 -252.5 78t-93.5 206 z" />
<glyph unicode="&#x40f;" horiz-adv-x="1434" d="M122 0v1448h292v-1206h602v1206h296v-1448h-448v-350h-294v350h-448z" />
<glyph unicode="&#x410;" horiz-adv-x="1470" d="M40 0l502 1448h386l500 -1448h-322l-109 334h-524l-109 -334h-324zM549 568h372l-181 554h-10z" />
<glyph unicode="&#x411;" horiz-adv-x="1286" d="M122 0v1448h958v-248h-658v-290h242q256 0 405 -121.5t149 -326.5q0 -208 -150 -335t-404 -127h-542zM422 242h242q119 1 187.5 64.5t68.5 157.5q0 90 -68 149t-188 59h-242v-430z" />
<glyph unicode="&#x412;" horiz-adv-x="1304" d="M122 0v1448h576q233 0 357 -101.5t123 -270.5q1 -123 -71 -203.5t-189 -106.5v-14q129 -6 223 -102t95 -250q-1 -179 -131.5 -289.5t-368.5 -110.5h-614zM422 248h254q126 -1 187.5 47t60.5 133q1 92 -64.5 150t-175.5 58h-262v-388zM422 842h232q96 -1 158.5 50 t61.5 136q1 80 -56 128t-158 48h-238v-362z" />
<glyph unicode="&#x413;" horiz-adv-x="1144" d="M122 0v1448h958v-248h-658v-1200h-300z" />
<glyph unicode="&#x414;" horiz-adv-x="1554" d="M40 240h100q54 40 92 102t69.5 187.5t42.5 306.5l42 612h954v-1208h158v-588h-288v348h-880v-350h-290v590zM486 240h564v960h-394l-22 -364q-26 -397 -148 -596z" />
<glyph unicode="&#x415;" horiz-adv-x="1206" d="M122 0v1448h972v-248h-672v-352h622v-248h-622v-352h674v-248h-974z" />
<glyph unicode="&#x416;" horiz-adv-x="2138" d="M50 0l456 764l-436 684h370l328 -598h154v598h294v-598h160l320 598h368l-424 -682l446 -766h-358l-310 572h-202v-572h-294v572h-198l-318 -572h-356z" />
<glyph unicode="&#x417;" horiz-adv-x="1308" d="M98 408h304q4 -80 74 -129.5t176 -50.5q109 1 178 56t68 142q1 90 -73.5 145.5t-200.5 56.5h-134v222h134q108 0 175.5 53.5t66.5 138.5q1 84 -57.5 135.5t-154.5 50.5q-98 1 -166 -49.5t-72 -132.5h-288q4 186 153 304t373 118q223 0 363 -116.5t139 -291.5 q1 -120 -74.5 -202t-199.5 -104v-12q158 -19 244 -109t84 -227q1 -186 -157 -306t-403 -120q-239 0 -393.5 119.5t-158.5 308.5z" />
<glyph unicode="&#x418;" horiz-adv-x="1452" d="M122 0v1448h300v-920h12l632 920h264v-1448h-300v920h-10l-638 -920h-260z" />
<glyph unicode="&#x419;" horiz-adv-x="1452" d="M122 0v1448h300v-920h12l632 920h264v-1448h-300v920h-10l-638 -920h-260zM380 1826h206q0 -54 34.5 -90t105.5 -36t105.5 36t34.5 90h208q0 -128 -94.5 -206t-253.5 -78q-158 0 -252.5 78t-93.5 206z" />
<glyph unicode="&#x41a;" horiz-adv-x="1392" d="M122 0v1448h302v-580h86l460 580h374l-566 -700l592 -748h-372l-486 620h-88v-620h-302z" />
<glyph unicode="&#x41b;" horiz-adv-x="1440" d="M40 0v242l42 4q120 10 171.5 131.5t62.5 424.5l24 646h978v-1448h-292v1206h-408l-22 -506q-9 -189 -35 -315.5t-81 -215.5t-142.5 -129t-217.5 -40h-80z" />
<glyph unicode="&#x41c;" horiz-adv-x="1808" d="M122 0v1448h372l402 -982h16l402 982h372v-1448h-292v948h-12l-378 -942h-200l-378 946h-12v-952h-292z" />
<glyph unicode="&#x41d;" horiz-adv-x="1474" d="M122 0v1448h300v-600h628v600h302v-1448h-302v600h-628v-600h-300z" />
<glyph unicode="&#x41e;" horiz-adv-x="1542" d="M94 724q0 174 51.5 315.5t142.5 234.5t215 143.5t269 50.5q144 0 267.5 -50.5t214.5 -143.5t142.5 -234.5t51.5 -315.5t-51.5 -315.5t-142.5 -234.5t-214.5 -143.5t-267.5 -50.5q-145 0 -269 50.5t-215 144t-142.5 235t-51.5 314.5zM400 724q0 -228 100 -352.5 t272 -125.5q171 1 271 125.5t99 352.5q1 228 -99 352.5t-271 125.5q-172 -1 -272 -125t-100 -353z" />
<glyph unicode="&#x41f;" horiz-adv-x="1506" d="M160 0v1448h1186v-1448h-298v1202h-590v-1202h-298z" />
<glyph unicode="&#x420;" horiz-adv-x="1276" d="M122 0v1448h568q242 0 380 -135t138 -353q0 -221 -139.5 -354.5t-386.5 -133.5h-260v-472h-300zM422 714h212q130 0 197.5 66.5t66.5 179.5q1 111 -66.5 176t-197.5 66h-212v-488z" />
<glyph unicode="&#x421;" horiz-adv-x="1482" d="M94 724q0 174 51.5 315.5t142 234.5t214 143.5t266.5 50.5q255 0 425.5 -139t200.5 -385h-304q-18 119 -103 188t-213 70q-171 -1 -272.5 -127t-101.5 -351q0 -229 101 -353t271 -125q125 1 211 66.5t107 181.5l304 -2q-13 -102 -61 -193.5t-125.5 -163t-191.5 -113.5 t-248 -42q-145 0 -268.5 50.5t-213.5 144t-141 235t-51 314.5z" />
<glyph unicode="&#x422;" horiz-adv-x="1316" d="M66 1200v248h1186v-248h-444v-1200h-298v1200h-444z" />
<glyph unicode="&#x423;" horiz-adv-x="1320" d="M34 1448h312l344 -720l288 720h308l-500 -1166q-31 -68 -61.5 -116t-77.5 -93.5t-113.5 -69t-151.5 -23.5h-108v246h80q83 0 124 31t64 99l18 48z" />
<glyph unicode="&#x424;" horiz-adv-x="1702" d="M94 700q0 266 168 429t430 163h16v182h286v-182h18q172 0 307 -72.5t211 -208t76 -311.5q0 -171 -76 -302.5t-211 -202.5t-307 -71h-18v-184h-286v184h-16q-265 0 -431.5 157.5t-166.5 418.5zM374 700q0 -157 86.5 -240.5t231.5 -83.5h16v664h-16q-147 0 -232.5 -87 t-85.5 -253zM994 376h20q144 0 228 84t84 240q0 165 -84 252.5t-228 87.5h-20v-664z" />
<glyph unicode="&#x425;" horiz-adv-x="1404" d="M50 0l454 724l-446 724h342l296 -498h10l298 498h340l-442 -724l452 -724h-348l-300 498h-10l-300 -498h-346z" />
<glyph unicode="&#x426;" horiz-adv-x="1566" d="M122 0v1448h290v-1206h608v1206h292v-1206h198l-18 -584h-286v342h-1084z" />
<glyph unicode="&#x427;" horiz-adv-x="1458" d="M178 980v468h292v-468q0 -124 66 -177t212 -53q159 0 292 26v672h296v-1448h-296v537q-142 -29 -292 -29q-270 0 -420 116.5t-150 355.5z" />
<glyph unicode="&#x428;" horiz-adv-x="1958" d="M122 0v1448h294v-1206h420v1206h292v-1206h416v1206h292v-1448h-1714z" />
<glyph unicode="&#x429;" horiz-adv-x="2102" d="M122 0v1448h294v-1206h420v1206h292v-1206h416v1206h292v-1214h212l-20 -574h-274v340h-1632z" />
<glyph unicode="&#x42a;" horiz-adv-x="1620" d="M66 1214v234h684v-538h242q256 0 405 -121.5t149 -326.5q0 -208 -150 -335t-404 -127h-542v1214h-384zM750 242h242q119 1 187.5 64.5t68.5 157.5q0 90 -68 149t-188 59h-242v-430z" />
<glyph unicode="&#x42b;" horiz-adv-x="1764" d="M122 0v1448h300v-538h242q256 0 405 -121.5t149 -326.5q0 -208 -150 -335t-404 -127h-542zM422 242h242q119 1 187.5 64.5t68.5 157.5q0 90 -68 149t-188 59h-242v-430zM1342 0v1448h300v-1448h-300z" />
<glyph unicode="&#x42c;" horiz-adv-x="1292" d="M122 0v1448h300v-538h242q256 0 405 -121.5t149 -326.5q0 -208 -150 -335t-404 -127h-542zM422 242h242q119 1 187.5 64.5t68.5 157.5q0 90 -68 149t-188 59h-242v-430z" />
<glyph unicode="&#x42d;" horiz-adv-x="1378" d="M94 962q11 109 52 199.5t112 160t179 108t243 38.5q277 0 440.5 -185.5t163.5 -500.5v-120q0 -316 -160.5 -499t-439.5 -183q-262 0 -417 135t-171 359h300q8 -127 79 -190t209 -64q147 1 218.5 94.5t83.5 273.5h-462v242h463q-8 193 -84.5 293t-222.5 99 q-146 1 -210.5 -64t-75.5 -196h-300z" />
<glyph unicode="&#x42e;" horiz-adv-x="2088" d="M122 0v1448h300v-630h220q18 203 110.5 351.5t237.5 223.5t326 75q144 0 267.5 -50.5t214.5 -143.5t142.5 -234.5t51.5 -315.5t-51.5 -315.5t-142.5 -234.5t-214.5 -143.5t-267.5 -50.5q-264 0 -447 160t-222 442h-225v-582h-300zM944 724q0 -228 100 -352.5t272 -125.5 q171 1 271 125.5t99 352.5q1 228 -99 352.5t-271 125.5q-172 -1 -272 -125t-100 -353z" />
<glyph unicode="&#x42f;" horiz-adv-x="1350" d="M90 0l308 564q-123 53 -189 158.5t-67 253.5q1 218 138 345t382 127h566v-1448h-300v514h-229l-275 -514h-334zM452 976q0 -218 264 -218h212v444h-210q-266 -1 -266 -226z" />
<glyph unicode="&#x430;" horiz-adv-x="1142" d="M64 304q0 87 33 151.5t92 102t127 56.5t152 24q110 7 270 14v88q-1 68 -46 105.5t-128 38.5q-75 -1 -121.5 -32.5t-58.5 -87.5h-282q14 147 137.5 241.5t332.5 94.5q92 0 172.5 -21t146 -64t103.5 -115.5t38 -167.5v-732h-280v150h-8q-42 -79 -122 -125t-196 -45 q-162 -1 -261.5 83.5t-100.5 240.5zM348 312q0 -61 44.5 -94t117.5 -34q100 1 164.5 59t63.5 145v79q-134 -6 -222 -13q-79 -7 -123.5 -43.5t-44.5 -98.5z" />
<glyph unicode="&#x431;" horiz-adv-x="1202" d="M72 586v88q-1 769 596 774q50 1 92 0.5t80.5 0.5t69 4t57 11t45.5 22l90 -194q-64 -53 -151.5 -69t-272.5 -19q-186 -2 -272 -90.5t-106 -289.5h12q102 207 356 206q210 1 336.5 -135t127.5 -373q-1 -250 -143 -396.5t-387 -147.5q-249 1 -390 158t-140 450zM372 512 q0 -141 62 -222t170 -82q105 1 166 82t60 222q1 140 -60 217t-168 77t-168 -77t-62 -217z" />
<glyph unicode="&#x432;" horiz-adv-x="1136" d="M116 0v1086h462q202 0 317 -77t115 -217q0 -87 -65 -146t-181 -80q141 -10 223 -85t83 -185q-1 -139 -110.5 -217.5t-309.5 -78.5h-534zM392 222h258q63 1 99 31t37 83q-1 59 -37 93.5t-99 34.5h-258v-242zM392 638h192q68 1 107.5 30.5t38.5 81.5q1 51 -40 80t-112 28 h-186v-220z" />
<glyph unicode="&#x433;" horiz-adv-x="914" d="M116 0v1086h740v-234h-452v-852h-288z" />
<glyph unicode="&#x434;" horiz-adv-x="1318" d="M28 236h84q34 22 58 68.5t38.5 122.5t22 137.5t15.5 163.5l28 358h828v-850h168v-554h-282v318h-670v-318h-290v554zM408 236h414v622h-296l-12 -130q-13 -187 -36.5 -304t-69.5 -188z" />
<glyph unicode="&#x435;" d="M72 538q-1 252 142.5 407t381.5 155q108 0 200 -34.5t161.5 -101t109 -173t39.5 -241.5v-84h-742q0 -123 67.5 -194t182.5 -72q74 1 127 30.5t75 79.5h282q-32 -152 -161.5 -241.5t-328.5 -90.5q-249 1 -393 151.5t-143 408.5zM364 652h462q-1 100 -63.5 163.5 t-160.5 62.5q-100 1 -166.5 -64.5t-71.5 -161.5z" />
<glyph unicode="&#x436;" horiz-adv-x="1732" d="M44 0l382 564l-380 522h340l284 -426h48v426h296v-426h48l284 426h340l-380 -522l382 -564h-346l-284 426h-44v-426h-296v426h-44l-284 -426h-346z" />
<glyph unicode="&#x437;" horiz-adv-x="1032" d="M58 306h288q2 -54 48.5 -85.5t121.5 -30.5q77 -1 126.5 34.5t49.5 99.5q0 59 -44 96t-116 38h-156v196h156q70 -1 109 31.5t39 84.5q0 55 -39.5 89t-106.5 33q-69 1 -113.5 -30t-46.5 -80h-286q1 144 123.5 231t308.5 87q199 0 313.5 -82t114.5 -224q0 -85 -56 -143.5 t-158 -84.5v-10q102 -6 171 -75.5t69 -178.5q0 -150 -127 -236.5t-331 -87.5q-200 1 -326 87.5t-132 240.5z" />
<glyph unicode="&#x438;" horiz-adv-x="1204" d="M116 0v1086h282v-694l396 694h294v-1086h-282v696l-396 -696h-294z" />
<glyph unicode="&#x439;" horiz-adv-x="1204" d="M116 0v1086h282v-694l396 694h294v-1086h-282v696l-396 -696h-294zM254 1464h206q0 -54 34.5 -90t105.5 -36t105.5 36t34.5 90h208q0 -128 -94.5 -206t-253.5 -78q-158 0 -252.5 78t-93.5 206z" />
<glyph unicode="&#x43a;" horiz-adv-x="1150" d="M116 0v1086h296v-424h94l290 424h350l-388 -550l392 -536h-354l-278 388h-106v-388h-296z" />
<glyph unicode="&#x43b;" horiz-adv-x="1190" d="M48 236h36q79 -1 114 80.5t44 289.5l18 480h822v-1086h-284v852h-272l-18 -334q-13 -270 -103 -394t-265 -124h-90z" />
<glyph unicode="&#x43c;" horiz-adv-x="1516" d="M116 0v1086h350l290 -756l296 756h354v-1086h-278v699l-274 -699h-198l-258 677v-677h-282z" />
<glyph unicode="&#x43d;" horiz-adv-x="1166" d="M116 0v1086h282v-424h378v424h280v-1086h-280v428h-378v-428h-282z" />
<glyph unicode="&#x43e;" horiz-adv-x="1208" d="M72 540q-1 253 143.5 406.5t388.5 153.5q245 0 389 -153.5t145 -406.5q-1 -254 -145 -407.5t-389 -154.5q-245 1 -389 154.5t-143 407.5zM372 540q0 -148 60.5 -239.5t173.5 -92.5q110 1 170.5 93t59.5 239q1 148 -59.5 241t-170.5 93q-113 0 -173.5 -92.5t-60.5 -241.5z " />
<glyph unicode="&#x43f;" d="M116 0v1086h946v-1086h-284v852h-382v-852h-280z" />
<glyph unicode="&#x440;" horiz-adv-x="1246" d="M116 -408v1494h292v-182h12q91 196 310 196q91 0 170 -35.5t140 -103.5t95.5 -175.5t34.5 -243.5q0 -133 -33.5 -240t-93 -176.5t-139.5 -106.5t-174 -37q-121 0 -196.5 55.5t-113.5 136.5h-8v-582h-296zM406 544q-1 -149 60 -237t170 -89q111 1 172 90t60 236 q1 146 -59.5 233t-172.5 87q-110 0 -170.5 -86t-59.5 -234z" />
<glyph unicode="&#x441;" horiz-adv-x="1154" d="M72 540q-1 251 143 405.5t389 154.5q210 0 341.5 -112.5t140.5 -299.5h-278q-14 83 -66 132t-134 50q-108 -1 -172 -87t-64 -239q0 -156 63.5 -243t172.5 -87q79 0 132.5 47.5t67.5 132.5h278q-10 -187 -139.5 -301t-342.5 -115q-247 1 -390 155.5t-142 406.5z" />
<glyph unicode="&#x442;" horiz-adv-x="1096" d="M58 852v234h980v-234h-350v-852h-282v852h-348z" />
<glyph unicode="&#x443;" horiz-adv-x="1152" d="M30 1086h310l228 -800h12l230 800h314l-424 -1206q-49 -139 -147.5 -213t-262.5 -75q-111 2 -150 6v230q51 -4 120 -4q26 0 42.5 2.5t36 12t35 30.5t28.5 55l18 46z" />
<glyph unicode="&#x444;" horiz-adv-x="1560" d="M72 540q0 164 70.5 291.5t198 198t291.5 70.5v348h296v-348q248 0 404 -155.5t156 -404.5t-156 -405t-404 -157v-346h-296v346q-249 1 -405 157t-155 405zM374 540q1 -143 70 -236t188 -94v660q-119 -1 -188 -94.5t-70 -235.5zM928 210q119 1 187.5 94t68.5 236 q0 142 -68.5 235.5t-187.5 94.5v-660z" />
<glyph unicode="&#x445;" horiz-adv-x="1128" d="M44 0l324 544l-312 542h306l202 -382l206 382h306l-318 -542l326 -544h-304l-216 378l-212 -378h-308z" />
<glyph unicode="&#x446;" horiz-adv-x="1290" d="M114 0v1086h284v-852h382v852h280v-880h174v-556h-288v350h-832z" />
<glyph unicode="&#x447;" horiz-adv-x="1164" d="M116 718v370h280v-370q-1 -95 48.5 -133t169.5 -39q81 1 160 19v521h280v-1086h-280v330q-87 -18 -160 -18q-239 1 -368.5 100.5t-129.5 305.5z" />
<glyph unicode="&#x448;" horiz-adv-x="1694" d="M116 0v1086h282v-850h312v850h282v-850h310v850h284v-1086h-1470z" />
<glyph unicode="&#x449;" horiz-adv-x="1868" d="M116 0v1086h282v-850h312v850h282v-850h310v850h284v-852h226l-20 -546h-272v312h-1404z" />
<glyph unicode="&#x44a;" horiz-adv-x="1388" d="M66 850v236h280v-236h-280zM348 0v1086h282v-336h228q213 0 334 -101.5t122 -274.5q-1 -170 -122.5 -272t-333.5 -102h-510zM630 234h228q77 0 126 38.5t50 99.5q-1 63 -50.5 103.5t-125.5 40.5h-228v-282z" />
<glyph unicode="&#x44b;" horiz-adv-x="1612" d="M116 0v1086h282v-336h228q213 0 334 -101.5t122 -274.5q-1 -170 -122.5 -272t-333.5 -102h-510zM398 234h228q77 0 126 38.5t50 99.5q-1 63 -50.5 103.5t-125.5 40.5h-228v-282zM1200 0v1086h296v-1086h-296z" />
<glyph unicode="&#x44c;" horiz-adv-x="1156" d="M116 0v1086h282v-336h228q213 0 334 -101.5t122 -274.5q-1 -170 -122.5 -272t-333.5 -102h-510zM398 234h228q77 0 126 38.5t50 99.5q-1 63 -50.5 103.5t-125.5 40.5h-228v-282z" />
<glyph unicode="&#x44d;" horiz-adv-x="1088" d="M72 406h266q0 -77 49 -131t129 -55q97 1 148.5 67.5t64.5 168.5h-297v176h297q-6 49 -20.5 89.5t-39 73.5t-64 51.5t-89.5 19.5q-78 -2 -128 -46t-50 -114h-266q-1 173 127 285.5t317 112.5q158 0 273.5 -74t171.5 -196.5t57 -277.5v-28q0 -116 -33 -215.5t-95 -174 t-158 -116.5t-216 -42q-199 0 -322 115.5t-122 310.5z" />
<glyph unicode="&#x44e;" horiz-adv-x="1640" d="M58 0v1086h296v-432h170q31 204 167 325t347 121q238 0 379.5 -154t142.5 -404q-1 -251 -142.5 -407t-379.5 -157q-208 1 -343.5 121t-168.5 321h-172v-420h-296zM798 542q-1 -148 58.5 -235.5t181.5 -88.5q121 1 180 88.5t58 235.5q1 148 -57.5 235t-180.5 87 q-123 0 -182 -86.5t-58 -235.5z" />
<glyph unicode="&#x44f;" horiz-adv-x="1138" d="M60 0l235 439q-98 42 -151 118t-52 175q-1 160 122 257t332 97h482v-1086h-276v394h-197l-211 -394h-284zM374 724q0 -57 44 -93t124 -35h210v258h-206q-81 0 -126.5 -37.5t-45.5 -92.5z" />
<glyph unicode="&#x450;" d="M72 538q-1 252 142.5 407t381.5 155q108 0 200 -34.5t161.5 -101t109 -173t39.5 -241.5v-84h-742q0 -123 67.5 -194t182.5 -72q74 1 127 30.5t75 79.5h282q-32 -152 -161.5 -241.5t-328.5 -90.5q-249 1 -393 151.5t-143 408.5zM270 1548h276l150 -322h-210zM364 652h462 q-1 100 -63.5 163.5t-160.5 62.5q-100 1 -166.5 -64.5t-71.5 -161.5z" />
<glyph unicode="&#x451;" d="M72 538q-1 252 142.5 407t381.5 155q108 0 200 -34.5t161.5 -101t109 -173t39.5 -241.5v-84h-742q0 -123 67.5 -194t182.5 -72q74 1 127 30.5t75 79.5h282q-32 -152 -161.5 -241.5t-328.5 -90.5q-249 1 -393 151.5t-143 408.5zM228 1378q-1 59 42 101t104 43 q62 -1 104 -42.5t42 -101.5q0 -58 -42.5 -100t-103.5 -42q-60 0 -103.5 42t-42.5 100zM364 652h462q-1 100 -63.5 163.5t-160.5 62.5q-100 1 -166.5 -64.5t-71.5 -161.5zM660 1378q-1 59 42 101t104 43q62 -1 104 -42.5t42 -101.5q0 -58 -42.5 -100t-103.5 -42 q-60 0 -103.5 42t-42.5 100z" />
<glyph unicode="&#x452;" horiz-adv-x="1228" d="M-94 1166v176h210v106h288v-106h204v-176h-204v-270h12q38 97 120.5 150.5t203.5 53.5q172 0 274 -109t102 -299v-760q-1 -338 -370 -340q-88 1 -152 10v228q38 -6 74 -6q151 0 152 108v708q0 101 -51.5 157.5t-144.5 56.5q-95 0 -153.5 -60t-58.5 -166v-628h-296v1166 h-210z" />
<glyph unicode="&#x453;" horiz-adv-x="914" d="M116 0v1086h740v-234h-452v-852h-288zM380 1226l150 322h276l-216 -322h-210z" />
<glyph unicode="&#x454;" horiz-adv-x="1138" d="M58 544q0 248 141 402t381 154q190 0 320 -98.5t162 -265.5l-274 -46q-46 174 -208 174q-101 0 -159.5 -62t-73.5 -174h305v-176h-304q16 -110 74.5 -171.5t157.5 -62.5q81 1 131 43t71 113l278 -44q-36 -159 -165 -255t-315 -97q-240 1 -381 158t-141 408z" />
<glyph unicode="&#x455;" horiz-adv-x="1104" d="M66 322h298q21 -128 192 -130q82 1 131 31.5t49 82.5q0 82 -148 112l-180 36q-155 31 -234 109t-78 199q-1 156 123 247t335 91q204 0 326 -90t134 -246h-278q-10 57 -57 91t-121 35q-73 -1 -121 -32t-47 -80q-2 -79 140 -108l194 -40q159 -33 236 -105t78 -189 q-1 -161 -133 -259t-349 -99q-217 1 -344 92t-146 252z" />
<glyph unicode="&#x456;" horiz-adv-x="526" d="M102 1378q0 63 47.5 107t114.5 45q66 -1 113.5 -45t46.5 -107q1 -61 -46.5 -105.5t-113.5 -44.5q-67 0 -114.5 44t-47.5 106zM116 0v1086h296v-1086h-296z" />
<glyph unicode="&#x457;" horiz-adv-x="526" d="M-98 1378q-1 59 42 101t104 43q62 -1 104 -42.5t42 -101.5q0 -58 -42.5 -100t-103.5 -42q-60 0 -103.5 42t-42.5 100zM116 0v1086h296v-1086h-296zM334 1378q-1 59 42 101t104 43q62 -1 104 -42.5t42 -101.5q0 -58 -42.5 -100t-103.5 -42q-60 0 -103.5 42t-42.5 100z" />
<glyph unicode="&#x458;" horiz-adv-x="526" d="M-56 -174q7 0 20 -0.5t20 -1.5q70 1 101 31.5t31 94.5v1136h296v-1140q-1 -352 -408 -354l-60 2v232zM100 1378q0 63 47.5 107t114.5 45q66 -1 113.5 -45t46.5 -107q1 -61 -46.5 -105.5t-113.5 -44.5q-67 0 -114.5 44t-47.5 106z" />
<glyph unicode="&#x459;" horiz-adv-x="1882" d="M90 236h36q79 -1 114 80.5t42 289.5l20 480h538v-234h-272l-18 -334q-14 -270 -104 -394t-266 -124h-88zM842 0v1086h282v-336h228q213 0 334 -101.5t122 -274.5q-1 -170 -122.5 -272t-333.5 -102h-510zM1124 234h228q77 0 126 38.5t50 99.5q-1 63 -50.5 103.5 t-125.5 40.5h-228v-282z" />
<glyph unicode="&#x45a;" horiz-adv-x="1816" d="M116 0v1086h282v-406h378v406h282v-348h228q215 0 335 -96.5t121 -267.5q-1 -170 -122.5 -272t-333.5 -102h-510v448h-378v-448h-282zM1058 234h228q77 0 126 38.5t50 99.5q-1 62 -49 97t-127 35h-228v-270z" />
<glyph unicode="&#x45b;" horiz-adv-x="1228" d="M-94 1166v176h210v106h288v-106h204v-176h-204v-270h12q38 97 120.5 150.5t203.5 53.5q172 0 274 -109t102 -299v-692h-296v640q0 101 -51.5 157.5t-144.5 56.5q-95 0 -153.5 -60t-58.5 -166v-628h-296v1166h-210z" />
<glyph unicode="&#x45c;" horiz-adv-x="1150" d="M116 0v1086h296v-424h94l290 424h350l-388 -550l392 -536h-354l-278 388h-106v-388h-296zM468 1226l150 322h276l-216 -322h-210z" />
<glyph unicode="&#x45d;" horiz-adv-x="1204" d="M116 0v1086h282v-694l396 694h294v-1086h-282v696l-396 -696h-294zM282 1548h276l150 -322h-210z" />
<glyph unicode="&#x45e;" horiz-adv-x="1152" d="M30 1086h310l228 -800h12l230 800h314l-424 -1206q-49 -139 -147.5 -213t-262.5 -75q-111 2 -150 6v230q51 -4 120 -4q26 0 42.5 2.5t36 12t35 30.5t28.5 55l18 46zM228 1464h206q0 -54 34.5 -90t105.5 -36t105.5 36t34.5 90h208q0 -128 -94.5 -206t-253.5 -78 q-158 0 -252.5 78t-93.5 206z" />
<glyph unicode="&#x45f;" d="M114 0v1086h284v-852h382v852h280v-1086h-328v-350h-286v350h-332z" />
<glyph unicode="&#x460;" horiz-adv-x="1938" d="M122 460v988h300v-988q1 -115 52.5 -176t147.5 -62q96 1 147 61.5t51 176.5v988h298v-988q0 -116 50 -176.5t146 -61.5q96 1 148 61.5t52 176.5v988h302v-988q-1 -228 -141 -354t-361 -126q-225 0 -344 154q-122 -154 -348 -154q-224 0 -362 126t-138 354z" />
<glyph unicode="&#x461;" horiz-adv-x="1732" d="M116 444v642h282v-642q1 -109 42 -169.5t116 -60.5q86 0 131.5 59t44.5 171v642h282v-642q0 -230 166 -230q78 0 119 59t41 171v642h284v-642q-1 -222 -122.5 -343t-321.5 -121q-202 0 -308 144q-109 -144 -316 -144q-198 0 -319 121t-121 343z" />
<glyph unicode="&#x462;" horiz-adv-x="1292" d="M-50 1062v176h172v210h300v-210h230v-176h-230v-152h242q256 0 405 -121.5t149 -326.5q0 -208 -150 -335t-404 -127h-542v1062h-172zM422 242h242q119 1 187.5 64.5t68.5 157.5q0 90 -68 149t-188 59h-242v-430z" />
<glyph unicode="&#x463;" horiz-adv-x="1240" d="M42 1056v180h158v342h284v-342h262v-180h-262v-306h228q213 0 333.5 -101.5t120.5 -274.5q0 -170 -121 -272t-333 -102h-512v1056h-158zM484 234h228q76 0 125 38.5t49 99.5q0 63 -49 103.5t-125 40.5h-228v-282z" />
<glyph unicode="&#x464;" horiz-adv-x="1992" d="M122 0v1448h300v-608h220q32 293 209.5 460.5t440.5 167.5q227 0 394 -125t222 -349l-290 -38q-33 119 -119.5 181.5t-206.5 62.5q-141 0 -233.5 -90t-115.5 -270h427v-236h-427q23 -178 115.5 -266.5t233.5 -89.5q118 1 203 61t117 177l294 -38q-55 -218 -219.5 -343 t-394.5 -125q-263 0 -440.5 166t-209.5 458h-220v-604h-300z" />
<glyph unicode="&#x465;" horiz-adv-x="1652" d="M108 0v1086h296v-468h152q21 218 159.5 350t358.5 132q190 0 320 -98.5t164 -265.5l-276 -46q-44 174 -208 174q-103 0 -162 -65t-72 -181h324v-180h-320q19 -104 76.5 -161.5t153.5 -58.5q81 1 132 42.5t72 113.5l276 -44q-36 -159 -165 -255t-315 -97 q-213 1 -349.5 126.5t-165.5 333.5h-155v-438h-296z" />
<glyph unicode="&#x466;" horiz-adv-x="1456" d="M58 0l512 1448h318l512 -1448h-320l-134 406h-98v-406h-252v406h-85l-133 -406h-320zM580 614h298l-150 453z" />
<glyph unicode="&#x467;" horiz-adv-x="1274" d="M78 0l406 1080h302l410 -1080h-298l-93 258h-79v-258h-190v258h-66l-92 -258h-300zM537 446h201l-70 194l-31 138l-31 -138z" />
<glyph unicode="&#x468;" horiz-adv-x="2032" d="M108 0v1448h300v-834h407l295 834h318l512 -1448h-320l-134 406h-98v-406h-252v406h-85l-133 -406h-320l144 406h-334v-406h-300zM1120 614h298l-150 453z" />
<glyph unicode="&#x469;" horiz-adv-x="1700" d="M112 0v1086h294v-640h325l239 640h304l410 -1086h-298l-92 258h-88v-258h-180v258h-73l-91 -258h-298l98 262h-256v-262h-294zM1019 446h208l-71 200l-33 145l-33 -145z" />
<glyph unicode="&#x46a;" horiz-adv-x="1838" d="M134 0v326q-1 230 129 340t402 112l-393 670h1330l-396 -671q91 -3 165 -19t137 -49.5t105.5 -84.5t66.5 -126.5t24 -171.5v-326h-304v326q-1 112 -56 159t-182 47h-78v-532h-302v532h-106q-120 0 -179.5 -44t-60.5 -162v-326h-302zM736 1200l200 -366l202 366h-402z" />
<glyph unicode="&#x46b;" horiz-adv-x="1504" d="M110 0v178q-1 199 98 298.5t291 117.5l-293 492h1108l-294 -493q183 -20 278 -120t96 -295v-178h-294v178q0 110 -43 154t-143 44h-10v-376h-292v376h-20q-98 0 -143 -42.5t-45 -155.5v-178h-294zM628 898l133 -280l137 280h-270z" />
<glyph unicode="&#x46c;" horiz-adv-x="2436" d="M128 0v1448h300v-670h839l-393 670h1330l-396 -671q91 -3 165 -19t137 -49.5t105.5 -84.5t66.5 -126.5t24 -171.5v-326h-304v326q-1 112 -56 159t-182 47h-78v-532h-302v532h-106q-120 0 -179.5 -44t-60.5 -162v-326h-302v326q0 120 34 206h-342v-532h-300zM1338 1200 l200 -366l202 366h-402z" />
<glyph unicode="&#x46d;" horiz-adv-x="2062" d="M104 0v1086h296v-488h636l-290 488h1108l-294 -493q183 -20 278.5 -120t95.5 -295v-178h-292v178q-1 109 -44.5 153.5t-143.5 44.5h-10v-376h-292v376h-20q-97 0 -142 -42.5t-46 -155.5v-178h-294v178q0 123 38 208h-288v-386h-296zM1168 898l134 -282l138 282h-272z" />
<glyph unicode="&#x46e;" horiz-adv-x="1124" d="M94 -70q0 144 93.5 218t262.5 74h64q107 0 168.5 52.5t61.5 145.5q0 188 -274 190h-144v242h150q111 1 166.5 51t55.5 135q0 168 -228 168h-260v242h260q253 0 387 -92.5t135 -273.5q-1 -123 -61.5 -211.5t-175.5 -135.5q281 -83 281 -343q0 -189 -137.5 -300.5 t-366.5 -111.5h-60q-55 0 -83 -24.5t-27 -65.5q-1 -51 37.5 -87t104.5 -65l-82 -174q-152 32 -240 126.5t-88 239.5zM238 1852v10h246l154 -138l152 138h242v-10l-304 -274h-182z" />
<glyph unicode="&#x46f;" horiz-adv-x="1050" d="M32 -68q-1 125 83.5 192t244.5 68h56q107 -1 162 34.5t54 103.5q0 132 -232 132h-158v178h166q86 0 133 33.5t47 92.5q-1 59 -50 84t-154 24h-258v212h258q245 0 372 -70.5t126 -211.5q-2 -169 -176 -247q221 -63 222 -245q0 -147 -126 -239.5t-340 -92.5h-50 q-63 0 -95 -23t-31 -69q-2 -89 126 -150l-82 -158q-137 44 -217 138.5t-81 213.5zM136 1490v10h244l154 -136l156 136h240v-10l-306 -274h-180z" />
<glyph unicode="&#x470;" horiz-adv-x="1630" d="M122 972v476h292v-476q1 -148 67 -235t195 -108v819h296v-820q241 37 242 344v476h294v-476q1 -258 -143.5 -410t-392.5 -176v-386h-296v385q-256 19 -405 172t-149 415z" />
<glyph unicode="&#x471;" horiz-adv-x="1580" d="M116 574v512h282v-516q1 -290 270 -344v860h282v-858q278 59 278 356q-1 115 -31 251t-77 251h258q57 -89 94 -224t36 -278q0 -89 -17.5 -167.5t-59 -152t-104.5 -129.5t-159 -95t-218 -53v-451h-282v452q-263 30 -407.5 174.5t-144.5 411.5z" />
<glyph unicode="&#x472;" horiz-adv-x="1542" d="M94 724q0 174 51.5 315.5t142.5 234.5t215 143.5t269 50.5q144 0 267.5 -50.5t214.5 -143.5t142.5 -234.5t51.5 -315.5t-51.5 -315.5t-142.5 -234.5t-214.5 -143.5t-267.5 -50.5q-145 0 -269 50.5t-215 144t-142.5 235t-51.5 314.5zM405 626q22 -182 118.5 -280.5 t248.5 -99.5q151 1 247.5 99.5t117.5 280.5h-732zM405 822h732q-21 183 -117.5 281t-247.5 99q-152 -1 -249 -99t-118 -281z" />
<glyph unicode="&#x473;" horiz-adv-x="1208" d="M72 540q-1 253 143.5 406.5t388.5 153.5q245 0 389 -153.5t145 -406.5q-1 -254 -145 -407.5t-389 -154.5q-245 1 -389 154.5t-143 407.5zM378 454q16 -113 74.5 -179t153.5 -67q93 1 151 67.5t73 178.5h-452zM379 632h451q-17 111 -74.5 176.5t-149.5 65.5 q-94 0 -152 -65.5t-75 -176.5z" />
<glyph unicode="&#x474;" horiz-adv-x="1500" d="M40 1448h336l352 -1104h14l252 776q55 182 146 265t242 83h76v-266h-34q-46 1 -71 -26t-47 -90l-378 -1086h-386z" />
<glyph unicode="&#x475;" horiz-adv-x="1220" d="M30 1086h312l228 -780h12l152 508q78 286 348 286q68 0 108 -14l-18 -234q-20 9 -54 10q-47 -1 -70.5 -32t-51.5 -112l-254 -718h-332z" />
<glyph unicode="&#x476;" horiz-adv-x="1500" d="M40 1448h336l352 -1104h14l252 776q55 182 146 265t242 83h76v-266h-34q-46 1 -71 -26t-47 -90l-378 -1086h-386zM260 1910h280l152 -322h-212zM676 1910h272l86 -322h-206z" />
<glyph unicode="&#x477;" horiz-adv-x="1220" d="M30 1086h312l228 -780h12l152 508q78 286 348 286q68 0 108 -14l-18 -234q-20 9 -54 10q-47 -1 -70.5 -32t-51.5 -112l-254 -718h-332zM120 1548h280l152 -322h-212zM536 1548h272l86 -322h-206z" />
<glyph unicode="&#x478;" horiz-adv-x="2694" d="M94 724q0 174 51.5 315.5t142.5 234.5t215 143.5t269 50.5q144 0 267.5 -50.5t214.5 -143.5t142.5 -234.5t51.5 -315.5t-51.5 -315.5t-142.5 -234.5t-214.5 -143.5t-267.5 -50.5q-145 0 -269 50.5t-215 144t-142.5 235t-51.5 314.5zM400 724q0 -228 100 -352.5 t272 -125.5q171 1 271 125.5t99 352.5q1 228 -99 352.5t-271 125.5q-172 -1 -272 -125t-100 -353zM1572 1086h310l228 -800h12l230 800h314l-424 -1206q-49 -139 -147.5 -213t-262.5 -75q-111 2 -150 6v230q51 -4 120 -4q26 0 42.5 2.5t36 12t35 30.5t28.5 55l18 46z" />
<glyph unicode="&#x479;" horiz-adv-x="2324" d="M72 540q-1 253 143.5 406.5t388.5 153.5q245 0 389 -153.5t145 -406.5q-1 -254 -145 -407.5t-389 -154.5q-245 1 -389 154.5t-143 407.5zM372 540q0 -148 60.5 -239.5t173.5 -92.5q110 1 170.5 93t59.5 239q1 148 -59.5 241t-170.5 93q-113 0 -173.5 -92.5t-60.5 -241.5z M1202 1086h310l228 -800h12l230 800h314l-424 -1206q-49 -139 -147.5 -213t-262.5 -75q-111 2 -150 6v230q51 -4 120 -4q26 0 42.5 2.5t36 12t35 30.5t28.5 55l18 46z" />
<glyph unicode="&#x47a;" horiz-adv-x="1500" d="M94 722q0 317 156 512.5t408 227.5v144h186v-144q251 -32 406 -227.5t156 -512.5q-1 -316 -156 -510t-406 -226v-146h-186v146q-123 16 -226 72.5t-178.5 149t-117.5 224.5t-42 290zM396 722q0 -203 70 -317.5t192 -145.5v143h186v-143q121 31 190 145.5t70 317.5 q-1 204 -70 320t-190 147v-145h-186v145q-122 -31 -192 -147.5t-70 -319.5z" />
<glyph unicode="&#x47b;" horiz-adv-x="1210" d="M72 542q1 226 118 375t318 177v82h162v-80q207 -25 326.5 -175t119.5 -379t-120 -381.5t-326 -177.5v-103h-162v104q-201 29 -318 180.5t-118 377.5zM354 542q2 -253 154 -309v107h162v-111q83 26 123 108t39 205q1 124 -39 205t-123 106v-123h-162v120 q-152 -56 -154 -308z" />
<glyph unicode="&#x47c;" horiz-adv-x="2026" d="M172 466v466q0 153 65.5 264.5t177 166t255.5 55.5v-246q-90 0 -141.5 -59.5t-52.5 -180.5v-466q1 -123 52.5 -183t141.5 -61q200 2 198 238v334h290v-334q0 -236 198 -238q91 1 143 61.5t53 182.5v466q-1 121 -53 180.5t-143 59.5v246q145 -1 256.5 -55.5t176.5 -166 t65 -264.5v-466q0 -155 -65 -266.5t-176.5 -165.5t-256.5 -54q-220 0 -342 149q-123 -149 -344 -149q-144 0 -255 54t-177 165.5t-66 266.5zM724 1526v36q1 107 61.5 160t170.5 52q52 0 114.5 -18t113.5 -40.5t123 -41t141 -18.5h18l-66 -130h-16q-46 0 -204.5 59.5 t-217.5 58.5q-47 1 -75.5 -24t-28.5 -74v-20h-134zM886 1296q69 83 70 146v94h168v-100q0 -53 -49.5 -109t-106.5 -85z" />
<glyph unicode="&#x47d;" horiz-adv-x="1644" d="M102 436v178q1 216 130 336t334 120v-232q-80 0 -128.5 -56.5t-49.5 -167.5v-178q1 -111 41.5 -166.5t106.5 -55.5q71 0 109.5 59t38.5 171v150h278v-150q1 -111 38.5 -170.5t107.5 -59.5q68 0 109.5 55.5t40.5 166.5v178q1 111 -48 167.5t-130 56.5v232q134 0 237.5 -51 t164 -155.5t60.5 -249.5v-178q1 -217 -120 -336.5t-314 -119.5q-184 0 -284 146q-102 -146 -288 -146q-192 0 -312.5 119.5t-121.5 336.5zM542 1200v36q0 107 60.5 159t171.5 51q51 0 113 -17.5t112.5 -39.5t123.5 -40.5t143 -18.5h34v-130h-38q-76 0 -155 18.5t-131 40.5 t-107.5 39.5t-92.5 17.5q-46 1 -74 -23.5t-28 -74.5v-18h-132zM710 974q66 82 66 148v94h172v-100q1 -51 -49.5 -108.5t-106.5 -85.5z" />
<glyph unicode="&#x47e;" horiz-adv-x="1934" d="M122 460v964h300v-964q1 -115 52.5 -176t147.5 -62q96 1 147 61.5t51 176.5v964h298v-964q0 -116 50 -176.5t146 -61.5q96 1 148.5 61.5t53.5 176.5v964h296v-964q0 -115 -38 -206.5t-105 -151t-157.5 -91t-197.5 -31.5q-225 0 -345 154q-124 -154 -347 -154 q-224 0 -362 126t-138 354zM526 1664v132h886l4 -132h-366v-126h-180v126h-344z" />
<glyph unicode="&#x47f;" horiz-adv-x="1796" d="M142 444v608h294v-608q0 -230 146 -230q170 0 170 230v608h294v-608q-2 -230 160 -230q148 0 148 230v608h294v-608q0 -222 -121 -343t-321 -121q-202 0 -308 143q-111 -143 -316 -143q-199 0 -320 121t-120 343zM456 1284v134h824l4 -134h-336v-122h-182v122h-310z" />
<glyph unicode="&#x480;" horiz-adv-x="1316" d="M106 562v322q0 268 148.5 426t417.5 158q246 0 393.5 -129t146.5 -365h-304q1 127 -62 188.5t-176 61.5q-139 0 -200.5 -87t-61.5 -251v-324q0 -156 67.5 -247.5t190.5 -92.5h198v-570h-302v336q-210 32 -333 187t-123 387z" />
<glyph unicode="&#x481;" horiz-adv-x="1128" d="M94 512v36q-1 160 55 283.5t170 196t273 72.5q203 0 324.5 -116.5t121.5 -325.5h-278q1 97 -44 153t-130 55q-57 0 -97.5 -25t-62.5 -71t-32 -100t-10 -122v-36q2 -298 210 -298h190v-566h-294v340q-191 33 -294 175.5t-102 348.5z" />
<glyph unicode="&#x482;" horiz-adv-x="1320" d="M130 554l70 124l294 -166l202 350l-292 164l76 128l290 -166l184 316h172l-228 -394l294 -166l-74 -122l-290 164l-206 -350l290 -168l-72 -124l-292 168l-180 -312h-174l224 388z" />
<glyph unicode="&#x483;" horiz-adv-x="0" d="M-970 1154l2 232h546l-2 104h176v-214h-544v-122h-178z" />
<glyph unicode="&#x484;" horiz-adv-x="0" d="M-964 1268v130h20q91 0 183 28.5t174 58t147 29.5q113 -1 175 -53t63 -157v-36h-136v16q-1 50 -29.5 74.5t-76.5 25.5q-37 0 -94 -18.5t-110.5 -40.5t-134 -39.5t-159.5 -17.5h-22z" />
<glyph unicode="&#x485;" horiz-adv-x="0" d="M-660 1460v142h190l-2 -160l58 -104l-80 -68z" />
<glyph unicode="&#x486;" horiz-adv-x="0" d="M-646 1338l58 104l-2 160h190v-142l-164 -190z" />
<glyph unicode="&#x487;" horiz-adv-x="0" d="M-1054 1268v36q0 96 75 152.5t205 57.5q71 0 133 -18.5t97.5 -40.5t76 -39.5t73.5 -17.5h162v-130h-176q-37 0 -72 11.5t-65 28.5t-62.5 34t-79 29.5t-99.5 12.5q-53 -1 -92 -26.5t-40 -73.5v-16h-136z" />
<glyph unicode="&#x488;" horiz-adv-x="2" d="M-1584 476q1 79 58 129.5t152 50.5q97 0 154.5 -50.5t57.5 -129.5h-112q0 41 -24.5 68t-75.5 28q-48 -1 -72 -28.5t-24 -67.5h-114zM-1418 -32q1 81 58.5 133t151.5 51q96 1 154 -51t58 -133h-114q1 43 -23 71.5t-75 28.5q-48 0 -72 -29t-24 -71h-114zM-1408 962 q1 81 58.5 132.5t153.5 51.5t153.5 -51.5t58.5 -132.5h-114q0 43 -23.5 71t-74.5 27q-50 1 -73 -27t-23 -71h-116zM-834 1234q-1 79 56.5 129.5t153.5 50.5t153.5 -50.5t56.5 -129.5h-110q0 41 -25 68.5t-75 27.5q-49 0 -73 -27.5t-25 -68.5h-112zM-830 -308q1 81 58 132.5 t152 51.5q97 0 154.5 -51.5t57.5 -132.5h-112q0 42 -24.5 70.5t-75.5 27.5q-48 1 -72 -27.5t-24 -70.5h-114zM-254 -32q1 81 58.5 133t153.5 51q95 1 152.5 -50.5t57.5 -133.5h-110q0 43 -25 71.5t-75 28.5q-49 0 -73.5 -28.5t-24.5 -71.5h-114zM-244 962q1 81 58 132.5 t152 51.5q97 0 155.5 -51.5t58.5 -132.5h-114q0 44 -24 71.5t-76 26.5q-48 1 -71 -27t-23 -71h-116zM-56 476q0 79 57.5 129.5t152.5 50.5q97 0 154.5 -50.5t57.5 -129.5h-112q0 41 -24.5 68t-75.5 28q-48 -1 -72 -28t-24 -68h-114z" />
<glyph unicode="&#x489;" horiz-adv-x="0" d="M-1512 528v98l346 -68v-136l-14 -12zM-1318 -80l294 196l98 -96l-2 -14l-320 -150zM-1232 1156l66 66l198 -292l-98 -92h-18zM-692 -402l70 342h138l10 -14l-124 -328h-94zM-692 1108l122 328h96l-70 -342h-136zM-242 976l2 14l324 150l68 -68l-296 -192zM-200 60l96 96 h16l152 -318l-68 -70zM0 478v136l14 12l332 -120v-96z" />
<glyph unicode="&#x48a;" horiz-adv-x="1452" d="M122 0v1448h300v-920h12l632 920h264v-1284h236l-170 -542h-214l67 378h-219v920h-10l-638 -920h-260zM380 1826h206q0 -54 34.5 -90t105.5 -36t105.5 36t34.5 90h208q0 -128 -94.5 -206t-253.5 -78q-158 0 -252.5 78t-93.5 206z" />
<glyph unicode="&#x48b;" horiz-adv-x="1380" d="M116 0v1086h282v-694l396 694h294v-922h236l-170 -542h-214l67 378h-201v696l-396 -696h-294zM254 1464h206q0 -54 34.5 -90t105.5 -36t105.5 36t34.5 90h208q0 -128 -94.5 -206t-253.5 -78q-158 0 -252.5 78t-93.5 206z" />
<glyph unicode="&#x48c;" horiz-adv-x="1292" d="M-50 1062v176h172v210h300v-210h230v-176h-230v-152h242q256 0 405 -121.5t149 -326.5q0 -208 -150 -335t-404 -127h-542v1062h-172zM422 242h242q119 1 187.5 64.5t68.5 157.5q0 90 -68 149t-188 59h-242v-430z" />
<glyph unicode="&#x48d;" horiz-adv-x="1240" d="M42 1236v182h158v160h284v-160h262v-182h-262v-486h228q213 0 333.5 -101.5t120.5 -274.5q0 -170 -121 -272t-333 -102h-512v1236h-158zM484 234h228q76 0 125 38.5t49 99.5q0 63 -49 103.5t-125 40.5h-228v-282z" />
<glyph unicode="&#x48e;" horiz-adv-x="1302" d="M128 0v1448h568q242 0 380 -135t138 -353q0 -137 -56 -244t-162 -169l94 -145l-128 -84l-111 172q-75 -18 -163 -18h-260v-472h-300zM428 714h212q30 0 63 5l-97 149l128 82l107 -165q63 63 63 175q1 111 -66.5 176t-197.5 66h-212v-488z" />
<glyph unicode="&#x48f;" horiz-adv-x="1206" d="M122 -408v1494h292v-182h12q91 196 310 196q91 0 170 -35.5t140 -103.5t95.5 -175.5t34.5 -243.5q1 -300 -160 -452l74 -88l-106 -86l-82 99q-76 -33 -166 -33q-121 0 -196.5 55.5t-113.5 136.5h-8v-582h-296zM412 544q-1 -149 60 -237t170 -89q42 0 78 14l-118 142 l102 84l117 -139q53 86 53 225q1 146 -59.5 233t-172.5 87q-110 0 -170.5 -86t-59.5 -234z" />
<glyph unicode="&#x490;" horiz-adv-x="1150" d="M122 0v1448h676v350h286v-598h-662v-1200h-300z" />
<glyph unicode="&#x491;" horiz-adv-x="948" d="M116 0v1086h502v274h272v-508h-486v-852h-288z" />
<glyph unicode="&#x492;" horiz-adv-x="1144" d="M-80 676v176h202v596h958v-248h-658v-348h200v-176h-200v-676h-300v676h-202z" />
<glyph unicode="&#x493;" horiz-adv-x="914" d="M-92 496v176h208v414h740v-234h-452v-180h206v-176h-206v-496h-288v496h-208z" />
<glyph unicode="&#x494;" horiz-adv-x="1348" d="M122 0v1448h958v-248h-658v-388h250q138 0 247.5 -34t190 -103t123.5 -178.5t43 -254.5q0 -85 -17.5 -164.5t-58.5 -156t-102.5 -133.5t-156.5 -91.5t-213 -34.5v222q65 0 114 24t76.5 60t44 84.5t21.5 89.5t4 84q3 350 -316 352h-250v-578h-300z" />
<glyph unicode="&#x495;" horiz-adv-x="1136" d="M116 0v1086h740v-234h-452v-202h62q257 -1 411.5 -123.5t154.5 -352.5q2 -143 -96.5 -266t-273.5 -186l-122 190q209 96 210 262q1 118 -76.5 181t-207.5 63h-62v-418h-288z" />
<glyph unicode="&#x496;" horiz-adv-x="2138" d="M50 0l456 764l-436 684h370l328 -598h154v598h294v-598h160l320 598h368l-424 -682l326 -560h248v-556h-288v350h-198l-310 572h-202v-572h-294v572h-198l-318 -572h-356z" />
<glyph unicode="&#x497;" horiz-adv-x="1732" d="M44 0l382 564l-380 522h340l284 -426h48v426h296v-426h48l284 426h340l-380 -522l242 -358h284v-556h-288v350h-202l-284 426h-44v-426h-296v426h-44l-284 -426h-346z" />
<glyph unicode="&#x498;" horiz-adv-x="1308" d="M98 408h304q4 -80 74 -129.5t176 -50.5q109 1 178 56t68 142q1 90 -73.5 145.5t-200.5 56.5h-134v222h134q108 0 175.5 53.5t66.5 138.5q1 84 -57.5 135.5t-154.5 50.5q-98 1 -166 -49.5t-72 -132.5h-288q4 186 153 304t373 118q223 0 363 -116.5t139 -291.5 q1 -120 -74.5 -202t-199.5 -104v-12q158 -19 244 -109t84 -227q1 -170 -132.5 -286.5t-349.5 -136.5l-8 -39q75 -11 120 -55t46 -117q0 -105 -98 -167t-272 -61l-4 132q189 0 190 90q2 42 -32 65t-108 31l25 120q-215 17 -350 133.5t-139 292.5z" />
<glyph unicode="&#x499;" horiz-adv-x="1032" d="M58 306h288q2 -54 48.5 -85.5t121.5 -30.5q77 -1 126.5 34.5t49.5 99.5q0 59 -44 96t-116 38h-156v196h156q70 -1 109 31.5t39 84.5q0 55 -39.5 89t-106.5 33q-69 1 -113.5 -30t-46.5 -80h-286q1 144 123.5 231t308.5 87q199 0 313.5 -82t114.5 -224q0 -85 -56 -143.5 t-158 -84.5v-10q102 -6 171 -75.5t69 -178.5q0 -137 -107.5 -221.5t-285.5 -99.5l-7 -37q75 -11 120 -55t46 -117q0 -105 -98 -167t-272 -61l-4 132q189 0 190 90q2 42 -32 65t-108 31l25 120q-170 16 -274 100.5t-109 223.5z" />
<glyph unicode="&#x49a;" horiz-adv-x="1458" d="M122 0v1448h302v-580h86l460 580h374l-566 -700l421 -532h201v-556h-288v340h-114l-486 620h-88v-620h-302z" />
<glyph unicode="&#x49b;" horiz-adv-x="1330" d="M116 0v1086h296v-424h94l290 424h350l-388 -550l241 -330h277v-556h-288v350h-192l-278 388h-106v-388h-296z" />
<glyph unicode="&#x49c;" horiz-adv-x="1400" d="M122 0v1448h298v-598h88v250h168v-250h34l278 598h354l-378 -684l414 -764h-360l-286 568h-56v-218h-168v218h-88v-568h-298z" />
<glyph unicode="&#x49d;" horiz-adv-x="1250" d="M116 0v1086h296v-424h86v176h150v-176h42l218 424h338l-300 -538l304 -548h-342l-194 388h-66v-174h-150v174h-86v-388h-296z" />
<glyph unicode="&#x4a0;" horiz-adv-x="1668" d="M24 1214v234h632v-580h86l460 580h374l-566 -700l592 -748h-372l-486 620h-88v-620h-302v1214h-330z" />
<glyph unicode="&#x4a1;" horiz-adv-x="1488" d="M58 850v236h692v-424h94l290 424h350l-388 -550l392 -536h-354l-278 388h-106v-388h-296v850h-396z" />
<glyph unicode="&#x4a2;" horiz-adv-x="1686" d="M122 0v1448h300v-600h628v600h302v-1242h280v-556h-288v350h-294v600h-628v-600h-300z" />
<glyph unicode="&#x4a3;" horiz-adv-x="1396" d="M116 0v1086h282v-424h378v424h280v-880h286v-556h-288v350h-278v428h-378v-428h-282z" />
<glyph unicode="&#x4a4;" horiz-adv-x="1990" d="M122 0v1448h300v-600h628v600h874v-248h-572v-1200h-302v600h-628v-600h-300z" />
<glyph unicode="&#x4a5;" horiz-adv-x="1456" d="M116 0v1086h282v-424h378v424h644v-234h-364v-852h-280v428h-378v-428h-282z" />
<glyph unicode="&#x4a6;" horiz-adv-x="2252" d="M120 0v1448h1186v-638h192q138 0 247.5 -34t190 -103t123.5 -178.5t43 -254.5q0 -85 -17.5 -164.5t-58.5 -156t-102.5 -133.5t-156.5 -91.5t-213 -34.5v222q65 0 114 24t76.5 60t44 84.5t21.5 89.5t4 84q3 350 -316 352h-192v-576h-298v1202h-590v-1202h-298z" />
<glyph unicode="&#x4a7;" horiz-adv-x="1830" d="M116 0v1086h946v-428h110q131 0 237.5 -29.5t184 -87.5t120 -149.5t42.5 -209.5q0 -61 -21.5 -124.5t-64 -126t-116 -116t-168.5 -85.5l-124 190q106 49 160 110.5t56 151.5q1 118 -83.5 180t-222.5 62h-110v-424h-284v852h-382v-852h-280z" />
<glyph unicode="&#x4a8;" horiz-adv-x="1690" d="M114 640v244q0 250 147.5 417.5t380.5 168.5v-256q-96 1 -156.5 -92.5t-59.5 -235.5v-246q-1 -178 106.5 -292t285.5 -114q18 0 52 2q-198 195 -198 482v216q0 150 53 271.5t152 192t225 70.5q206 0 335.5 -164t128.5 -422v-188q0 -267 -161 -459q79 -15 171 -15v-232 q-224 0 -407 66q-161 -74 -351 -74q-155 0 -287 51t-223 139.5t-142.5 210t-51.5 259.5zM948 716q1 -111 47.5 -205.5t134.5 -160.5q140 131 140 344v226q0 137 -44 216t-116 78q-72 1 -116.5 -75t-45.5 -203v-220z" />
<glyph unicode="&#x4a9;" horiz-adv-x="1466" d="M142 512v126q-1 199 118.5 330t311.5 132v-240q-59 -8 -96 -68.5t-38 -153.5v-126q1 -126 77.5 -216t192.5 -92q-102 129 -102 310v182q0 173 95 288.5t247 115.5q160 0 259 -129t99 -323v-174q0 -194 -137 -328q76 -14 159 -14v-160q-202 0 -353 53q-121 -45 -263 -45 q-253 0 -412 151t-158 381zM808 498q0 -134 103 -231q113 85 115 223v178q-1 86 -31 138t-79 52q-48 0 -78 -50t-30 -132v-178z" />
<glyph unicode="&#x4aa;" horiz-adv-x="1482" d="M94 724q0 174 51.5 315.5t142 234.5t214 143.5t266.5 50.5q255 0 425.5 -139t200.5 -385h-304q-18 119 -103 188t-213 70q-171 -1 -272.5 -127t-101.5 -351q0 -229 101 -353t271 -125q125 1 211 66.5t107 181.5l304 -2q-16 -129 -85.5 -238.5t-195 -184.5t-285.5 -87 l-8 -40q75 -11 120 -55t46 -117q0 -105 -98 -167t-272 -61l-4 132q189 0 190 90q2 42 -32 65t-108 31l26 124q-266 27 -430 223t-164 517z" />
<glyph unicode="&#x4ab;" horiz-adv-x="1154" d="M72 540q-1 251 143 405.5t389 154.5q210 0 341.5 -112.5t140.5 -299.5h-278q-14 83 -66 132t-134 50q-108 -1 -172 -87t-64 -239q0 -156 63.5 -243t172.5 -87q79 0 132.5 47.5t67.5 132.5h278q-9 -172 -120.5 -283.5t-298.5 -129.5l-7 -37q75 -11 120 -55t46 -117 q0 -105 -98 -167t-272 -61l-4 132q189 0 190 90q2 42 -32 65t-108 31l25 121q-213 25 -334.5 175.5t-120.5 381.5z" />
<glyph unicode="&#x4ac;" horiz-adv-x="1316" d="M66 1200v248h1186v-248h-444v-994h276v-556h-288v350h-286v1200h-444z" />
<glyph unicode="&#x4ad;" horiz-adv-x="1096" d="M58 852v234h980v-234h-350v-648h282v-556h-288v352h-276v852h-348z" />
<glyph unicode="&#x4ae;" horiz-adv-x="1424" d="M34 1448h338l334 -624h14l332 624h338l-528 -932v-516h-300v516z" />
<glyph unicode="&#x4af;" horiz-adv-x="1076" d="M30 1086h300l214 -754l204 754h298l-366 -1076v-418h-282v418z" />
<glyph unicode="&#x4b0;" horiz-adv-x="1424" d="M34 1448h338l334 -624h14l332 624h338l-452 -798h124v-176h-200v-474h-300v474h-202v176h126z" />
<glyph unicode="&#x4b1;" horiz-adv-x="1076" d="M30 1086h300l214 -754l204 754h298l-304 -894h148v-176h-208l-2 -6v-418h-282v418l-2 6h-208v176h148z" />
<glyph unicode="&#x4b2;" horiz-adv-x="1404" d="M50 0l454 724l-446 724h342l296 -498h10l298 498h340l-442 -724l323 -518h219v-556h-288v350h-150l-300 498h-10l-300 -498h-346z" />
<glyph unicode="&#x4b3;" horiz-adv-x="1128" d="M44 0l324 544l-312 542h306l202 -382l206 382h306l-318 -542l203 -338h227v-556h-288v350h-120l-216 378l-212 -378h-308z" />
<glyph unicode="&#x4b4;" horiz-adv-x="1842" d="M66 1214v234h960v-234h-336v-972h608v1206h292v-1206h198l-18 -584h-286v342h-1084v1214h-334z" />
<glyph unicode="&#x4b5;" horiz-adv-x="1458" d="M84 850v236h708v-236h-212v-616h382v852h280v-852h162l-18 -546h-274v312h-816v850h-212z" />
<glyph unicode="&#x4b6;" horiz-adv-x="1458" d="M178 980v468h292v-468q0 -124 66 -177t212 -53q159 0 292 26v672h296v-1242h284v-556h-288v350h-292v537q-142 -29 -292 -29q-270 0 -420 116.5t-150 355.5z" />
<glyph unicode="&#x4b7;" horiz-adv-x="1390" d="M116 718v370h280v-370q-1 -95 48.5 -133t169.5 -39q81 1 160 19v521h280v-882h282v-556h-288v352h-274v330q-87 -18 -160 -18q-239 1 -368.5 100.5t-129.5 305.5z" />
<glyph unicode="&#x4b8;" horiz-adv-x="1458" d="M178 980v468h292v-468q0 -101 43 -154t135 -69v279h168v-284q121 5 224 24v672h296v-1448h-296v537q-91 -20 -224 -27v-224h-168v226q-224 20 -347 136t-123 332z" />
<glyph unicode="&#x4b9;" horiz-adv-x="1164" d="M116 718v370h280v-370q-1 -68 23 -105.5t79 -53.5v249h170v-260q48 4 106 17v521h280v-1086h-280v330q-52 -10 -106 -15v-147h-170v151q-382 46 -382 399z" />
<glyph unicode="&#x4ba;" horiz-adv-x="1458" d="M122 0v1448h296v-537q142 29 292 29q270 0 420 -116.5t150 -355.5v-468h-292v468q0 124 -66 177t-212 53q-159 0 -292 -26v-672h-296z" />
<glyph unicode="&#x4bb;" horiz-adv-x="1228" d="M116 0v1448h288v-552h12q38 97 120.5 150.5t203.5 53.5q172 0 274 -109t102 -299v-692h-296v640q0 101 -51.5 157.5t-144.5 56.5q-95 0 -153.5 -60t-58.5 -166v-628h-296z" />
<glyph unicode="&#x4bc;" horiz-adv-x="1688" d="M100 1062h202q0 -158 120 -203q1 135 45 248.5t122.5 192.5t189.5 123.5t243 44.5q267 -1 417 -184t151 -508v-160h-876v-32q1 -163 99.5 -252t286.5 -90q180 2 358 60l50 -250q-66 -32 -185 -53.5t-233 -20.5q-312 -1 -490 160.5t-178 445.5v57q-153 25 -237.5 135 t-84.5 286zM714 860h582v40q1 141 -72 221.5t-202 80.5q-138 0 -222 -93t-86 -249z" />
<glyph unicode="&#x4bd;" horiz-adv-x="1500" d="M28 864h214q1 -100 38.5 -152.5t123.5 -58.5q32 205 170 326t346 121q108 0 200 -34.5t161.5 -101t109 -173t39.5 -241.5v-84h-742q0 -123 67.5 -194t182.5 -72q74 1 127 30.5t75 79.5h282q-32 -152 -161.5 -241.5t-328.5 -90.5q-231 1 -372 131.5t-161 357.5 q-182 8 -276 110t-95 287zM688 652h462q-1 100 -63.5 163.5t-160.5 62.5q-100 1 -166.5 -64.5t-71.5 -161.5z" />
<glyph unicode="&#x4be;" horiz-adv-x="1688" d="M100 1062h202q0 -158 120 -203q1 135 45 248.5t122.5 192.5t189.5 123.5t243 44.5q267 -1 417 -184t151 -508v-160h-876v-32q1 -163 99.5 -252t286.5 -90q180 2 358 60l50 -250q-112 -54 -320 -71v-449h-288v463q-227 45 -352.5 198.5t-125.5 390.5v57 q-153 25 -237.5 135t-84.5 286zM714 860h582v40q1 141 -72 221.5t-202 80.5q-138 0 -222 -93t-86 -249z" />
<glyph unicode="&#x4bf;" horiz-adv-x="1500" d="M28 864h214q1 -100 38.5 -152.5t123.5 -58.5q32 205 170 326t346 121q108 0 200 -34.5t161.5 -101t109 -173t39.5 -241.5v-84h-742q0 -123 67.5 -194t182.5 -72q74 1 127 30.5t75 79.5h282q-30 -142 -145.5 -230t-293.5 -100l-7 -36q75 -11 120 -55t46 -117 q0 -105 -98 -167t-272 -61l-4 132q189 0 190 90q2 42 -32 65t-108 31l25 122q-193 25 -310 152t-134 331q-182 8 -276 110t-95 287zM688 652h462q-1 100 -63.5 163.5t-160.5 62.5q-100 1 -166.5 -64.5t-71.5 -161.5z" />
<glyph unicode="&#x4c0;" horiz-adv-x="544" d="M122 0v1448h300v-1448h-300z" />
<glyph unicode="&#x4c1;" horiz-adv-x="2138" d="M50 0l456 764l-436 684h370l328 -598h154v598h294v-598h160l320 598h368l-424 -682l446 -766h-358l-310 572h-202v-572h-294v572h-198l-318 -572h-356zM722 1826h206q0 -54 34.5 -90t105.5 -36t105.5 36t34.5 90h208q0 -128 -94.5 -206t-253.5 -78q-158 0 -252.5 78 t-93.5 206z" />
<glyph unicode="&#x4c2;" horiz-adv-x="1732" d="M44 0l382 564l-380 522h340l284 -426h48v426h296v-426h48l284 426h340l-380 -522l382 -564h-346l-284 426h-44v-426h-296v426h-44l-284 -426h-346zM520 1464h206q0 -54 34.5 -90t105.5 -36t105.5 36t34.5 90h208q0 -128 -94.5 -206t-253.5 -78q-158 0 -252.5 78 t-93.5 206z" />
<glyph unicode="&#x4c3;" horiz-adv-x="1368" d="M122 0v1448h292v-598h104l412 598h356l-476 -662q227 -31 354 -175t128 -373q0 -271 -148 -426.5t-406 -155.5l-2 230q121 1 190.5 91t71.5 247q2 165 -81.5 260t-230.5 96h-272v-580h-292z" />
<glyph unicode="&#x4c4;" horiz-adv-x="1228" d="M116 0v1086h296v-424h86l298 424h350l-363 -510q173 -45 270 -156t97 -270q0 -145 -100.5 -267.5t-267.5 -182.5l-122 200q94 30 151.5 98.5t58.5 151.5q2 107 -82 172.5t-224 65.5h-152v-388h-296z" />
<glyph unicode="&#x4c5;" horiz-adv-x="1440" d="M40 0v242l42 4q120 10 171.5 131.5t62.5 424.5l24 646h978v-1284h234l-170 -542h-214l67 378h-209v1206h-408l-22 -506q-9 -189 -35 -315.5t-81 -215.5t-142.5 -129t-217.5 -40h-80z" />
<glyph unicode="&#x4c6;" horiz-adv-x="1374" d="M48 236h36q79 -1 114 80.5t44 289.5l18 480h822v-922h236l-170 -542h-214l67 378h-203v852h-272l-18 -334q-13 -270 -103 -394t-265 -124h-90z" />
<glyph unicode="&#x4c7;" horiz-adv-x="1474" d="M122 0v1448h300v-600h628v600h302v-1448h-2v-72q0 -48 -8 -91t-36.5 -93.5t-75.5 -87t-132.5 -60.5t-199.5 -24q-66 -1 -110 8v240q47 -4 84 -6q177 2 178 132v654h-628v-600h-300z" />
<glyph unicode="&#x4c8;" horiz-adv-x="1166" d="M116 0v1086h282v-424h378v424h280v-1132q0 -185 -100.5 -281.5t-279.5 -96.5q-82 0 -148 14l14 230q47 -12 102 -10q60 -1 95.5 36t34.5 108v46h2v428h-378v-428h-282z" />
<glyph unicode="&#x4c9;" horiz-adv-x="1644" d="M122 0v1448h300v-600h628v600h302v-1284h236l-170 -542h-214l67 378h-221v600h-628v-600h-300z" />
<glyph unicode="&#x4ca;" horiz-adv-x="1348" d="M116 0v1086h282v-424h378v424h280v-924h236l-170 -542h-214l67 380h-199v428h-378v-428h-282z" />
<glyph unicode="&#x4cb;" horiz-adv-x="1458" d="M178 980v468h292v-468q0 -124 66 -177t212 -53q159 0 292 26v672h296v-1242h284v-556h-288v350h-292v537q-142 -29 -292 -29q-270 0 -420 116.5t-150 355.5z" />
<glyph unicode="&#x4cc;" horiz-adv-x="1164" d="M116 718v370h280v-370q-1 -95 48.5 -133t169.5 -39q81 1 160 19v521h280v-1086h-280v330q-87 -18 -160 -18q-239 1 -368.5 100.5t-129.5 305.5zM484 204h288v-556h-288v556z" />
<glyph unicode="&#x4cd;" horiz-adv-x="1932" d="M122 0v1448h372l402 -982h16l402 982h372v-1284h236l-170 -542h-214l67 378h-211v948h-12l-378 -942h-200l-378 946h-12v-952h-292z" />
<glyph unicode="&#x4ce;" horiz-adv-x="1700" d="M116 0v1086h350l290 -756l296 756h354v-922h238l-170 -542h-214l67 378h-199v699l-274 -699h-198l-258 677v-677h-282z" />
<glyph unicode="&#x4cf;" horiz-adv-x="544" d="M122 0v1448h300v-1448h-300z" />
<glyph unicode="&#x4d0;" horiz-adv-x="1470" d="M40 0l502 1448h386l500 -1448h-322l-109 334h-524l-109 -334h-324zM388 1826h206q0 -54 34.5 -90t105.5 -36t105.5 36t34.5 90h208q0 -128 -94.5 -206t-253.5 -78q-158 0 -252.5 78t-93.5 206zM549 568h372l-181 554h-10z" />
<glyph unicode="&#x4d1;" horiz-adv-x="1142" d="M64 304q0 87 33 151.5t92 102t127 56.5t152 24q110 7 270 14v88q-1 68 -46 105.5t-128 38.5q-75 -1 -121.5 -32.5t-58.5 -87.5h-282q14 147 137.5 241.5t332.5 94.5q92 0 172.5 -21t146 -64t103.5 -115.5t38 -167.5v-732h-280v150h-8q-42 -79 -122 -125t-196 -45 q-162 -1 -261.5 83.5t-100.5 240.5zM238 1464h206q0 -54 34.5 -90t105.5 -36t105.5 36t34.5 90h208q0 -128 -94.5 -206t-253.5 -78q-158 0 -252.5 78t-93.5 206zM348 312q0 -61 44.5 -94t117.5 -34q100 1 164.5 59t63.5 145v79q-134 -6 -222 -13q-79 -7 -123.5 -43.5 t-44.5 -98.5z" />
<glyph unicode="&#x4d2;" horiz-adv-x="1470" d="M40 0l502 1448h386l500 -1448h-322l-109 334h-524l-109 -334h-324zM374 1740q-1 59 42 101t104 43q62 -1 104 -42.5t42 -101.5q0 -58 -42.5 -100t-103.5 -42q-60 0 -103.5 42t-42.5 100zM549 568h372l-181 554h-10zM806 1740q-1 59 42 101t104 43q62 -1 104 -42.5 t42 -101.5q0 -58 -42.5 -100t-103.5 -42q-60 0 -103.5 42t-42.5 100z" />
<glyph unicode="&#x4d3;" horiz-adv-x="1142" d="M64 304q0 87 33 151.5t92 102t127 56.5t152 24q110 7 270 14v88q-1 68 -46 105.5t-128 38.5q-75 -1 -121.5 -32.5t-58.5 -87.5h-282q14 147 137.5 241.5t332.5 94.5q92 0 172.5 -21t146 -64t103.5 -115.5t38 -167.5v-732h-280v150h-8q-42 -79 -122 -125t-196 -45 q-162 -1 -261.5 83.5t-100.5 240.5zM224 1378q-1 59 42 101t104 43q62 -1 104 -42.5t42 -101.5q0 -58 -42.5 -100t-103.5 -42q-60 0 -103.5 42t-42.5 100zM348 312q0 -61 44.5 -94t117.5 -34q100 1 164.5 59t63.5 145v79q-134 -6 -222 -13q-79 -7 -123.5 -43.5t-44.5 -98.5z M656 1378q-1 59 42 101t104 43q62 -1 104 -42.5t42 -101.5q0 -58 -42.5 -100t-103.5 -42q-60 0 -103.5 42t-42.5 100z" />
<glyph unicode="&#x4d4;" horiz-adv-x="2036" d="M40 0l624 1448h1258v-248h-670v-352h620v-248h-620v-352h674v-248h-976v334h-439l-139 -334h-332zM608 568h342v584h-100z" />
<glyph unicode="&#x4d5;" horiz-adv-x="1808" d="M64 308q1 305 404 330q61 4 270 13v89q-1 68 -46 105.5t-128 38.5q-75 -1 -121.5 -32.5t-58.5 -87.5h-282q14 147 137.5 241.5t332.5 94.5q233 0 318 -142q124 142 338 142q108 0 200 -34.5t161 -101t108 -173t39 -241.5v-84h-740q-1 -122 66.5 -193.5t181.5 -72.5 q78 1 133.5 34t78.5 94l274 -18q-32 -151 -160 -241t-312 -91q-134 1 -239 53t-158 147h-7q-43 -91 -160 -145t-268 -53q-161 -1 -261 85.5t-101 242.5zM348 318q0 -62 44.5 -97.5t117.5 -36.5q100 1 164.5 59t63.5 145v79q-154 -7 -222 -15q-80 -6 -124 -39.5t-44 -94.5z M996 652h462q-2 100 -64.5 163.5t-161.5 62.5q-99 1 -165 -64.5t-71 -161.5z" />
<glyph unicode="&#x4d6;" horiz-adv-x="1206" d="M122 0v1448h972v-248h-672v-352h622v-248h-622v-352h674v-248h-974zM264 1826h206q0 -54 34.5 -90t105.5 -36t105.5 36t34.5 90h208q0 -128 -94.5 -206t-253.5 -78q-158 0 -252.5 78t-93.5 206z" />
<glyph unicode="&#x4d7;" d="M72 538q-1 252 142.5 407t381.5 155q108 0 200 -34.5t161.5 -101t109 -173t39.5 -241.5v-84h-742q0 -123 67.5 -194t182.5 -72q74 1 127 30.5t75 79.5h282q-32 -152 -161.5 -241.5t-328.5 -90.5q-249 1 -393 151.5t-143 408.5zM242 1464h206q0 -54 34.5 -90t105.5 -36 t105.5 36t34.5 90h208q0 -128 -94.5 -206t-253.5 -78q-158 0 -252.5 78t-93.5 206zM364 652h462q-1 100 -63.5 163.5t-160.5 62.5q-100 1 -166.5 -64.5t-71.5 -161.5z" />
<glyph unicode="&#x4d8;" horiz-adv-x="1396" d="M72 646v164h948q-3 86 -29.5 156t-77.5 123t-133 82t-190 29q-171 0 -360 -58l-50 250q58 28 182 52t248 24q169 0 304.5 -50t225.5 -141t138 -217t48 -278v-152q0 -187 -80.5 -335.5t-226 -231.5t-329.5 -83q-290 0 -454 177t-164 489zM374 534q1 -132 79.5 -210.5 t226.5 -77.5q148 -1 234.5 85.5t102.5 232.5h-643v-30z" />
<glyph unicode="&#x4d9;" d="M70 536v84h742q0 123 -67.5 194t-182.5 72q-74 -1 -127 -30.5t-75 -79.5h-282q32 152 161.5 241.5t328.5 90.5q249 -1 393 -151.5t143 -408.5q1 -252 -142.5 -407t-381.5 -155q-108 0 -200 34.5t-161.5 101t-109 173t-39.5 241.5zM350 434q1 -100 63.5 -163.5 t160.5 -62.5q100 -1 166.5 64.5t71.5 161.5h-462z" />
<glyph unicode="&#x4da;" horiz-adv-x="1396" d="M72 646v164h948q-3 86 -29.5 156t-77.5 123t-133 82t-190 29q-171 0 -360 -58l-50 250q58 28 182 52t248 24q169 0 304.5 -50t225.5 -141t138 -217t48 -278v-152q0 -187 -80.5 -335.5t-226 -231.5t-329.5 -83q-290 0 -454 177t-164 489zM336 1740q-1 59 42 101t104 43 q62 -1 104 -42.5t42 -101.5q0 -58 -42.5 -100t-103.5 -42q-60 0 -103.5 42t-42.5 100zM374 534q1 -132 79.5 -210.5t226.5 -77.5q148 -1 234.5 85.5t102.5 232.5h-643v-30zM768 1740q-1 59 42 101t104 43q62 -1 104 -42.5t42 -101.5q0 -58 -42.5 -100t-103.5 -42 q-60 0 -103.5 42t-42.5 100z" />
<glyph unicode="&#x4db;" d="M70 536v84h742q0 123 -67.5 194t-182.5 72q-74 -1 -127 -30.5t-75 -79.5h-282q32 152 161.5 241.5t328.5 90.5q249 -1 393 -151.5t143 -408.5q1 -252 -142.5 -407t-381.5 -155q-108 0 -200 34.5t-161.5 101t-109 173t-39.5 241.5zM236 1378q-1 59 42 101t104 43 q62 -1 104 -42.5t42 -101.5q0 -58 -42.5 -100t-103.5 -42q-60 0 -103.5 42t-42.5 100zM350 434q1 -100 63.5 -163.5t160.5 -62.5q100 -1 166.5 64.5t71.5 161.5h-462zM668 1378q-1 59 42 101t104 43q62 -1 104 -42.5t42 -101.5q0 -58 -42.5 -100t-103.5 -42q-60 0 -103.5 42 t-42.5 100z" />
<glyph unicode="&#x4dc;" horiz-adv-x="2138" d="M50 0l456 764l-436 684h370l328 -598h154v598h294v-598h160l320 598h368l-424 -682l446 -766h-358l-310 572h-202v-572h-294v572h-198l-318 -572h-356zM708 1740q-1 59 42 101t104 43q62 -1 104 -42.5t42 -101.5q0 -58 -42.5 -100t-103.5 -42q-60 0 -103.5 42t-42.5 100z M1140 1740q-1 59 42 101t104 43q62 -1 104 -42.5t42 -101.5q0 -58 -42.5 -100t-103.5 -42q-60 0 -103.5 42t-42.5 100z" />
<glyph unicode="&#x4dd;" horiz-adv-x="1732" d="M44 0l382 564l-380 522h340l284 -426h48v426h296v-426h48l284 426h340l-380 -522l382 -564h-346l-284 426h-44v-426h-296v426h-44l-284 -426h-346zM504 1378q-1 59 42 101t104 43q62 -1 104 -42.5t42 -101.5q0 -58 -42.5 -100t-103.5 -42q-60 0 -103.5 42t-42.5 100z M936 1378q-1 59 42 101t104 43q62 -1 104 -42.5t42 -101.5q0 -58 -42.5 -100t-103.5 -42q-60 0 -103.5 42t-42.5 100z" />
<glyph unicode="&#x4de;" horiz-adv-x="1308" d="M98 408h304q4 -80 74 -129.5t176 -50.5q109 1 178 56t68 142q1 90 -73.5 145.5t-200.5 56.5h-134v222h134q108 0 175.5 53.5t66.5 138.5q1 84 -57.5 135.5t-154.5 50.5q-98 1 -166 -49.5t-72 -132.5h-288q4 186 153 304t373 118q223 0 363 -116.5t139 -291.5 q1 -120 -74.5 -202t-199.5 -104v-12q158 -19 244 -109t84 -227q1 -186 -157 -306t-403 -120q-239 0 -393.5 119.5t-158.5 308.5zM298 1740q-1 59 42 101t104 43q62 -1 104 -42.5t42 -101.5q0 -58 -42.5 -100t-103.5 -42q-60 0 -103.5 42t-42.5 100zM730 1740q-1 59 42 101 t104 43q62 -1 104 -42.5t42 -101.5q0 -58 -42.5 -100t-103.5 -42q-60 0 -103.5 42t-42.5 100z" />
<glyph unicode="&#x4df;" horiz-adv-x="1032" d="M58 306h288q2 -54 48.5 -85.5t121.5 -30.5q77 -1 126.5 34.5t49.5 99.5q0 59 -44 96t-116 38h-156v196h156q70 -1 109 31.5t39 84.5q0 55 -39.5 89t-106.5 33q-69 1 -113.5 -30t-46.5 -80h-286q1 144 123.5 231t308.5 87q199 0 313.5 -82t114.5 -224q0 -85 -56 -143.5 t-158 -84.5v-10q102 -6 171 -75.5t69 -178.5q0 -150 -127 -236.5t-331 -87.5q-200 1 -326 87.5t-132 240.5zM158 1378q-1 59 42 101t104 43q62 -1 104 -42.5t42 -101.5q0 -58 -42.5 -100t-103.5 -42q-60 0 -103.5 42t-42.5 100zM590 1378q-1 59 42 101t104 43 q62 -1 104 -42.5t42 -101.5q0 -58 -42.5 -100t-103.5 -42q-60 0 -103.5 42t-42.5 100z" />
<glyph unicode="&#x4e0;" horiz-adv-x="1310" d="M98 408h304q7 -82 77 -130.5t175 -49.5q109 1 177.5 56t68.5 148q0 94 -73 153t-209 59h-156v210l328 338v10h-618v246h990v-216l-394 -396v-12q217 -21 330.5 -138t113.5 -274q0 -191 -158.5 -311.5t-401.5 -120.5q-158 0 -282 53t-195.5 150.5t-76.5 224.5z" />
<glyph unicode="&#x4e1;" horiz-adv-x="1310" d="M98 46h304q7 -82 77 -130.5t175 -49.5q109 1 177.5 56t68.5 148q0 94 -73 153t-209 59h-156v210l328 338v10h-618v246h990v-216l-394 -396v-12q217 -21 330.5 -138t113.5 -274q0 -191 -158.5 -311.5t-401.5 -120.5q-158 0 -282 53t-195.5 150.5t-76.5 224.5z" />
<glyph unicode="&#x4e2;" horiz-adv-x="1452" d="M122 0v1448h300v-920h12l632 920h264v-1448h-300v920h-10l-638 -920h-260zM384 1648v162h688v-162h-688z" />
<glyph unicode="&#x4e3;" horiz-adv-x="1204" d="M116 0v1086h282v-694l396 694h294v-1086h-282v696l-396 -696h-294zM258 1286v162h688v-162h-688z" />
<glyph unicode="&#x4e4;" horiz-adv-x="1452" d="M122 0v1448h300v-920h12l632 920h264v-1448h-300v920h-10l-638 -920h-260zM366 1740q-1 59 42 101t104 43q62 -1 104 -42.5t42 -101.5q0 -58 -42.5 -100t-103.5 -42q-60 0 -103.5 42t-42.5 100zM798 1740q-1 59 42 101t104 43q62 -1 104 -42.5t42 -101.5 q0 -58 -42.5 -100t-103.5 -42q-60 0 -103.5 42t-42.5 100z" />
<glyph unicode="&#x4e5;" horiz-adv-x="1204" d="M116 0v1086h282v-694l396 694h294v-1086h-282v696l-396 -696h-294zM240 1378q-1 59 42 101t104 43q62 -1 104 -42.5t42 -101.5q0 -58 -42.5 -100t-103.5 -42q-60 0 -103.5 42t-42.5 100zM672 1378q-1 59 42 101t104 43q62 -1 104 -42.5t42 -101.5q0 -58 -42.5 -100 t-103.5 -42q-60 0 -103.5 42t-42.5 100z" />
<glyph unicode="&#x4e6;" horiz-adv-x="1542" d="M94 724q0 174 51.5 315.5t142.5 234.5t215 143.5t269 50.5q144 0 267.5 -50.5t214.5 -143.5t142.5 -234.5t51.5 -315.5t-51.5 -315.5t-142.5 -234.5t-214.5 -143.5t-267.5 -50.5q-145 0 -269 50.5t-215 144t-142.5 235t-51.5 314.5zM400 724q0 -228 100 -352.5 t272 -125.5q171 1 271 125.5t99 352.5q1 228 -99 352.5t-271 125.5q-172 -1 -272 -125t-100 -353zM410 1740q-1 59 42 101t104 43q62 -1 104 -42.5t42 -101.5q0 -58 -42.5 -100t-103.5 -42q-60 0 -103.5 42t-42.5 100zM842 1740q-1 59 42 101t104 43q62 -1 104 -42.5 t42 -101.5q0 -58 -42.5 -100t-103.5 -42q-60 0 -103.5 42t-42.5 100z" />
<glyph unicode="&#x4e7;" horiz-adv-x="1208" d="M72 540q-1 253 143.5 406.5t388.5 153.5q245 0 389 -153.5t145 -406.5q-1 -254 -145 -407.5t-389 -154.5q-245 1 -389 154.5t-143 407.5zM244 1378q-1 59 42 101t104 43q62 -1 104 -42.5t42 -101.5q0 -58 -42.5 -100t-103.5 -42q-60 0 -103.5 42t-42.5 100zM372 540 q0 -148 60.5 -239.5t173.5 -92.5q110 1 170.5 93t59.5 239q1 148 -59.5 241t-170.5 93q-113 0 -173.5 -92.5t-60.5 -241.5zM676 1378q-1 59 42 101t104 43q62 -1 104 -42.5t42 -101.5q0 -58 -42.5 -100t-103.5 -42q-60 0 -103.5 42t-42.5 100z" />
<glyph unicode="&#x4e8;" horiz-adv-x="1542" d="M94 724q0 174 51.5 315.5t142.5 234.5t215 143.5t269 50.5q144 0 267.5 -50.5t214.5 -143.5t142.5 -234.5t51.5 -315.5t-51.5 -315.5t-142.5 -234.5t-214.5 -143.5t-267.5 -50.5q-145 0 -269 50.5t-215 144t-142.5 235t-51.5 314.5zM405 626q22 -182 118.5 -280.5 t248.5 -99.5q151 1 247.5 99.5t117.5 280.5h-732zM405 822h732q-21 183 -117.5 281t-247.5 99q-152 -1 -249 -99t-118 -281z" />
<glyph unicode="&#x4e9;" horiz-adv-x="1208" d="M72 540q-1 253 143.5 406.5t388.5 153.5q245 0 389 -153.5t145 -406.5q-1 -254 -145 -407.5t-389 -154.5q-245 1 -389 154.5t-143 407.5zM378 454q16 -113 74.5 -179t153.5 -67q93 1 151 67.5t73 178.5h-452zM379 632h451q-17 111 -74.5 176.5t-149.5 65.5 q-94 0 -152 -65.5t-75 -176.5z" />
<glyph unicode="&#x4ea;" horiz-adv-x="1542" d="M94 724q0 174 51.5 315.5t142.5 234.5t215 143.5t269 50.5q144 0 267.5 -50.5t214.5 -143.5t142.5 -234.5t51.5 -315.5t-51.5 -315.5t-142.5 -234.5t-214.5 -143.5t-267.5 -50.5q-145 0 -269 50.5t-215 144t-142.5 235t-51.5 314.5zM405 626q22 -182 118.5 -280.5 t248.5 -99.5q151 1 247.5 99.5t117.5 280.5h-732zM405 822h732q-21 183 -117.5 281t-247.5 99q-152 -1 -249 -99t-118 -281zM410 1740q-1 59 42 101t104 43q62 -1 104 -42.5t42 -101.5q0 -58 -42.5 -100t-103.5 -42q-60 0 -103.5 42t-42.5 100zM842 1740q-1 59 42 101 t104 43q62 -1 104 -42.5t42 -101.5q0 -58 -42.5 -100t-103.5 -42q-60 0 -103.5 42t-42.5 100z" />
<glyph unicode="&#x4eb;" horiz-adv-x="1208" d="M72 540q-1 253 143.5 406.5t388.5 153.5q245 0 389 -153.5t145 -406.5q-1 -254 -145 -407.5t-389 -154.5q-245 1 -389 154.5t-143 407.5zM244 1378q-1 59 42 101t104 43q62 -1 104 -42.5t42 -101.5q0 -58 -42.5 -100t-103.5 -42q-60 0 -103.5 42t-42.5 100zM378 454 q16 -113 74.5 -179t153.5 -67q93 1 151 67.5t73 178.5h-452zM379 632h451q-17 111 -74.5 176.5t-149.5 65.5q-94 0 -152 -65.5t-75 -176.5zM676 1378q-1 59 42 101t104 43q62 -1 104 -42.5t42 -101.5q0 -58 -42.5 -100t-103.5 -42q-60 0 -103.5 42t-42.5 100z" />
<glyph unicode="&#x4ec;" horiz-adv-x="1378" d="M94 962q11 109 52 199.5t112 160t179 108t243 38.5q277 0 440.5 -185.5t163.5 -500.5v-120q0 -316 -160.5 -499t-439.5 -183q-262 0 -417 135t-171 359h300q8 -127 79 -190t209 -64q147 1 218.5 94.5t83.5 273.5h-462v242h463q-8 193 -84.5 293t-222.5 99 q-146 1 -210.5 -64t-75.5 -196h-300zM328 1740q-1 59 42 101t104 43q62 -1 104 -42.5t42 -101.5q0 -58 -42.5 -100t-103.5 -42q-60 0 -103.5 42t-42.5 100zM760 1740q-1 59 42 101t104 43q62 -1 104 -42.5t42 -101.5q0 -58 -42.5 -100t-103.5 -42q-60 0 -103.5 42t-42.5 100 z" />
<glyph unicode="&#x4ed;" horiz-adv-x="1088" d="M72 406h266q0 -77 49 -131t129 -55q97 1 148.5 67.5t64.5 168.5h-297v176h297q-6 49 -20.5 89.5t-39 73.5t-64 51.5t-89.5 19.5q-78 -2 -128 -46t-50 -114h-266q-1 173 127 285.5t317 112.5q158 0 273.5 -74t171.5 -196.5t57 -277.5v-28q0 -116 -33 -215.5t-95 -174 t-158 -116.5t-216 -42q-199 0 -322 115.5t-122 310.5zM182 1378q-1 59 42 101t104 43q62 -1 104 -42.5t42 -101.5q0 -58 -42.5 -100t-103.5 -42q-60 0 -103.5 42t-42.5 100zM614 1378q-1 59 42 101t104 43q62 -1 104 -42.5t42 -101.5q0 -58 -42.5 -100t-103.5 -42 q-60 0 -103.5 42t-42.5 100z" />
<glyph unicode="&#x4ee;" horiz-adv-x="1320" d="M34 1448h312l344 -720l288 720h308l-500 -1166q-31 -68 -61.5 -116t-77.5 -93.5t-113.5 -69t-151.5 -23.5h-108v246h80q83 0 124 31t64 99l18 48zM314 1648v162h688v-162h-688z" />
<glyph unicode="&#x4ef;" horiz-adv-x="1152" d="M30 1086h310l228 -800h12l230 800h314l-424 -1206q-49 -139 -147.5 -213t-262.5 -75q-111 2 -150 6v230q51 -4 120 -4q26 0 42.5 2.5t36 12t35 30.5t28.5 55l18 46zM232 1286v162h688v-162h-688z" />
<glyph unicode="&#x4f0;" horiz-adv-x="1320" d="M34 1448h312l344 -720l288 720h308l-500 -1166q-31 -68 -61.5 -116t-77.5 -93.5t-113.5 -69t-151.5 -23.5h-108v246h80q83 0 124 31t64 99l18 48zM296 1740q-1 59 42 101t104 43q62 -1 104 -42.5t42 -101.5q0 -58 -42.5 -100t-103.5 -42q-60 0 -103.5 42t-42.5 100z M728 1740q-1 59 42 101t104 43q62 -1 104 -42.5t42 -101.5q0 -58 -42.5 -100t-103.5 -42q-60 0 -103.5 42t-42.5 100z" />
<glyph unicode="&#x4f1;" horiz-adv-x="1152" d="M30 1086h310l228 -800h12l230 800h314l-424 -1206q-49 -139 -147.5 -213t-262.5 -75q-111 2 -150 6v230q51 -4 120 -4q26 0 42.5 2.5t36 12t35 30.5t28.5 55l18 46zM214 1378q-1 59 42 101t104 43q62 -1 104 -42.5t42 -101.5q0 -58 -42.5 -100t-103.5 -42 q-60 0 -103.5 42t-42.5 100zM646 1378q-1 59 42 101t104 43q62 -1 104 -42.5t42 -101.5q0 -58 -42.5 -100t-103.5 -42q-60 0 -103.5 42t-42.5 100z" />
<glyph unicode="&#x4f2;" horiz-adv-x="1320" d="M34 1448h312l344 -720l288 720h308l-500 -1166q-31 -68 -61.5 -116t-77.5 -93.5t-113.5 -69t-151.5 -23.5h-108v246h80q83 0 124 31t64 99l18 48zM350 1574l188 294h250l-230 -294h-208zM710 1574l224 294h252l-266 -294h-210z" />
<glyph unicode="&#x4f3;" horiz-adv-x="1152" d="M30 1086h310l228 -800h12l230 800h314l-424 -1206q-49 -139 -147.5 -213t-262.5 -75q-111 2 -150 6v230q51 -4 120 -4q26 0 42.5 2.5t36 12t35 30.5t28.5 55l18 46zM266 1212l188 294h250l-230 -294h-208zM626 1212l224 294h252l-266 -294h-210z" />
<glyph unicode="&#x4f4;" horiz-adv-x="1458" d="M178 980v468h292v-468q0 -124 66 -177t212 -53q159 0 292 26v672h296v-1448h-296v537q-142 -29 -292 -29q-270 0 -420 116.5t-150 355.5zM394 1740q-1 59 42 101t104 43q62 -1 104 -42.5t42 -101.5q0 -58 -42.5 -100t-103.5 -42q-60 0 -103.5 42t-42.5 100zM826 1740 q-1 59 42 101t104 43q62 -1 104 -42.5t42 -101.5q0 -58 -42.5 -100t-103.5 -42q-60 0 -103.5 42t-42.5 100z" />
<glyph unicode="&#x4f5;" horiz-adv-x="1164" d="M116 718v370h280v-370q-1 -95 48.5 -133t169.5 -39q81 1 160 19v521h280v-1086h-280v330q-87 -18 -160 -18q-239 1 -368.5 100.5t-129.5 305.5zM220 1378q-1 59 42 101t104 43q62 -1 104 -42.5t42 -101.5q0 -58 -42.5 -100t-103.5 -42q-60 0 -103.5 42t-42.5 100z M652 1378q-1 59 42 101t104 43q62 -1 104 -42.5t42 -101.5q0 -58 -42.5 -100t-103.5 -42q-60 0 -103.5 42t-42.5 100z" />
<glyph unicode="&#x4f6;" horiz-adv-x="1144" d="M122 0v1448h958v-248h-658v-994h284v-556h-288v350h-296z" />
<glyph unicode="&#x4f7;" horiz-adv-x="914" d="M116 0v1086h740v-234h-452v-648h284v-556h-288v352h-284z" />
<glyph unicode="&#x4f8;" horiz-adv-x="1852" d="M134 0v1448h300v-538h242q256 0 405 -121.5t149 -326.5q0 -208 -150 -335t-404 -127h-542zM434 242h242q119 1 187.5 64.5t68.5 157.5q0 90 -68 149t-188 59h-242v-430zM574 1680q-1 59 42 101t104 43q62 -1 104 -42.5t42 -101.5q0 -58 -42.5 -100t-103.5 -42 q-60 0 -103.5 42t-42.5 100zM1006 1680q-1 59 42 101t104 43q62 -1 104 -42.5t42 -101.5q0 -58 -42.5 -100t-103.5 -42q-60 0 -103.5 42t-42.5 100zM1354 0v1448h300v-1448h-300z" />
<glyph unicode="&#x4f9;" horiz-adv-x="1612" d="M116 0v1086h282v-336h228q213 0 334 -101.5t122 -274.5q-1 -170 -122.5 -272t-333.5 -102h-510zM398 234h228q77 0 126 38.5t50 99.5q-1 63 -50.5 103.5t-125.5 40.5h-228v-282zM444 1378q-1 59 42 101t104 43q62 -1 104 -42.5t42 -101.5q0 -58 -42.5 -100t-103.5 -42 q-60 0 -103.5 42t-42.5 100zM876 1378q-1 59 42 101t104 43q62 -1 104 -42.5t42 -101.5q0 -58 -42.5 -100t-103.5 -42q-60 0 -103.5 42t-42.5 100zM1200 0v1086h296v-1086h-296z" />
<glyph unicode="&#x4fa;" horiz-adv-x="1144" d="M-80 676v176h202v596h958v-248h-658v-348h200v-176h-200v-414h280v-290q1 -189 -99.5 -292.5t-280.5 -103.5q-78 0 -144 14l14 232q40 -12 98 -14q59 1 92 43.5t34 120.5v28h-294v676h-202z" />
<glyph unicode="&#x4fb;" horiz-adv-x="914" d="M-120 -410l14 232q40 -12 98 -14q59 1 92 43.5t34 120.5v28h-2v496h-208v176h208v414h740v-234h-452v-180h206v-176h-206v-524q1 -189 -99.5 -292.5t-280.5 -103.5q-78 0 -144 14z" />
<glyph unicode="&#x4fc;" horiz-adv-x="1404" d="M50 0l454 724l-446 724h342l296 -498h10l298 498h340l-442 -724l288 -462h282v-290q1 -189 -99.5 -292.5t-280.5 -103.5q-78 0 -144 14l14 232q40 -12 98 -14q59 1 92 43.5t34 120.5v28h-180l-300 498h-10l-300 -498h-346z" />
<glyph unicode="&#x4fd;" horiz-adv-x="1088" d="M44 0l318 544l-306 542h306l186 -336l190 336h304l-310 -542l162 -274q4 -7 25 -41.5t29 -49.5t25.5 -48.5t25 -56.5t17 -55t12 -63t0.5 -62q-9 -136 -107 -227t-269 -91q-78 0 -142 14l14 232q41 -16 86 -14q60 -1 97.5 35t36.5 105q3 34 -13 72.5t-59 109.5l-124 200 l-196 -330h-308z" />
<glyph unicode="&#x4fe;" horiz-adv-x="1404" d="M50 0l403 642h-105v176h98l-388 630h342l296 -498h10l298 498h340l-385 -630h91v-176h-97l401 -642h-348l-300 498h-10l-300 -498h-346z" />
<glyph unicode="&#x4ff;" horiz-adv-x="1128" d="M44 0l274 460h-106v176h103l-259 450h306l202 -382l206 382h306l-264 -450h102v-176h-106l276 -460h-304l-216 378l-212 -378h-308z" />
<glyph unicode="&#x2000;" horiz-adv-x="955" />
<glyph unicode="&#x2001;" horiz-adv-x="1910" />
<glyph unicode="&#x2002;" horiz-adv-x="955" />
<glyph unicode="&#x2003;" horiz-adv-x="1910" />
<glyph unicode="&#x2004;" horiz-adv-x="636" />
<glyph unicode="&#x2005;" horiz-adv-x="477" />
<glyph unicode="&#x2006;" horiz-adv-x="318" />
<glyph unicode="&#x2007;" horiz-adv-x="318" />
<glyph unicode="&#x2008;" horiz-adv-x="238" />
<glyph unicode="&#x2009;" horiz-adv-x="382" />
<glyph unicode="&#x200a;" horiz-adv-x="106" />
<glyph unicode="&#x2010;" horiz-adv-x="920" d="M130 478v236h660v-236h-660z" />
<glyph unicode="&#x2011;" horiz-adv-x="920" d="M130 478v236h660v-236h-660z" />
<glyph unicode="&#x2012;" horiz-adv-x="920" d="M130 478v236h660v-236h-660z" />
<glyph unicode="&#x2013;" horiz-adv-x="982" d="M-6 478v236h994v-236h-994z" />
<glyph unicode="&#x2014;" horiz-adv-x="1978" d="M-6 478v236h1990v-236h-1990z" />
<glyph unicode="&#x2018;" horiz-adv-x="540" d="M78 878l172 570h212l-100 -570h-284z" />
<glyph unicode="&#x2019;" horiz-adv-x="540" d="M78 878l100 570h284l-172 -570h-212z" />
<glyph unicode="&#x201a;" horiz-adv-x="540" d="M78 -390l100 570h284l-172 -570h-212z" />
<glyph unicode="&#x201c;" horiz-adv-x="994" d="M54 880l172 570h212l-100 -570h-284zM498 880l172 570h212l-100 -570h-284z" />
<glyph unicode="&#x201d;" horiz-adv-x="994" d="M112 878l100 570h284l-172 -570h-212zM556 878l100 570h284l-172 -570h-212z" />
<glyph unicode="&#x201e;" horiz-adv-x="984" d="M78 -422l100 570h284l-172 -570h-212zM522 -422l100 570h284l-172 -570h-212z" />
<glyph unicode="&#x2022;" horiz-adv-x="952" d="M204 578q0 111 79 189.5t191 78.5q111 0 189.5 -78.5t78.5 -189.5q0 -112 -78.5 -191t-189.5 -79q-112 0 -191 79t-79 191z" />
<glyph unicode="&#x2026;" horiz-adv-x="1734" d="M122 150q-1 69 48 118t120 48q67 1 116.5 -48t49.5 -118t-49.5 -118.5t-116.5 -49.5q-71 0 -120 49t-48 119zM700 150q-1 69 48 118t120 48q67 1 116.5 -48t49.5 -118t-49.5 -118.5t-116.5 -49.5q-71 0 -120 49t-48 119zM1278 150q-1 69 48 118t120 48q67 1 116.5 -48 t49.5 -118t-49.5 -118.5t-116.5 -49.5q-71 0 -120 49t-48 119z" />
<glyph unicode="&#x202f;" horiz-adv-x="382" />
<glyph unicode="&#x2039;" horiz-adv-x="766" d="M110 580v20l286 424h268l-270 -434l270 -434h-268z" />
<glyph unicode="&#x203a;" horiz-adv-x="766" d="M96 156l270 434l-270 434h268l286 -424v-20l-286 -424h-268z" />
<glyph unicode="&#x205f;" horiz-adv-x="477" />
<glyph unicode="&#x20ac;" horiz-adv-x="1352" d="M50 496l58 158h126q-2 44 -2 68q0 26 2 72h-184l58 156h147q54 245 215.5 381.5t391.5 136.5q223 0 388 -132l-114 -238q-142 102 -274 102q-111 0 -188.5 -62t-112.5 -188h505l-70 -156h-460q-2 -46 -2 -72q0 -24 2 -68h396l-78 -158h-293q69 -246 301 -248 q138 1 270 98l112 -238q-154 -128 -382 -128q-231 0 -392.5 136t-214.5 380h-205z" />
<glyph unicode="&#x2122;" horiz-adv-x="1262" d="M72 1342v106h446v-106h-158v-414h-130v414h-158zM610 928v520h154l130 -344l130 344h154v-520h-128v300l-120 -300h-72l-120 300v-300h-128z" />
</font>
</defs>
</svg>
