<svg width="18" height="18" viewBox="0 0 18 18" fill="none" xmlns="http://www.w3.org/2000/svg">
<path d="M5.7853 1.44638C5.7853 1.3185 5.83609 1.19587 5.92651 1.10545C6.01693 1.01503 6.13957 0.964233 6.26744 0.964233H11.7317C11.8596 0.964233 11.9822 1.01503 12.0727 1.10545C12.1631 1.19587 12.2139 1.3185 12.2139 1.44638C12.2139 1.57425 12.1631 1.69688 12.0727 1.7873C11.9822 1.87772 11.8596 1.92852 11.7317 1.92852H11.571V2.57138H12.5353C13.132 2.57138 13.7043 2.80843 14.1263 3.23039C14.5482 3.65234 14.7853 4.22464 14.7853 4.82138V13.4999C14.7853 14.0411 14.5904 14.5641 14.2362 14.9731C13.882 15.3822 13.3923 15.65 12.8567 15.7274V16.2321C12.8567 16.36 12.8059 16.4826 12.7155 16.573C12.6251 16.6634 12.5025 16.7142 12.3746 16.7142C12.2467 16.7142 12.1241 16.6634 12.0337 16.573C11.9432 16.4826 11.8924 16.36 11.8924 16.2321V15.7499H6.10672V16.2321C6.10672 16.36 6.05593 16.4826 5.96551 16.573C5.87509 16.6634 5.75245 16.7142 5.62458 16.7142C5.49671 16.7142 5.37407 16.6634 5.28366 16.573C5.19324 16.4826 5.14244 16.36 5.14244 16.2321V15.7274C4.60684 15.6501 4.11705 15.3824 3.76284 14.9733C3.40863 14.5642 3.21373 14.0411 3.21387 13.4999V4.82138C3.21387 4.22464 3.45092 3.65234 3.87288 3.23039C4.29483 2.80843 4.86713 2.57138 5.46387 2.57138H6.42815V1.92852H6.26744C6.13957 1.92852 6.01693 1.87772 5.92651 1.7873C5.83609 1.69688 5.7853 1.57425 5.7853 1.44638ZM7.39244 1.92852V2.57138H10.6067V1.92852H7.39244ZM6.26744 5.78566C6.13957 5.78566 6.01693 5.83646 5.92651 5.92688C5.83609 6.0173 5.7853 6.13993 5.7853 6.2678C5.7853 6.39568 5.83609 6.51831 5.92651 6.60873C6.01693 6.69915 6.13957 6.74995 6.26744 6.74995H11.7317C11.8596 6.74995 11.9822 6.69915 12.0727 6.60873C12.1631 6.51831 12.2139 6.39568 12.2139 6.2678C12.2139 6.13993 12.1631 6.0173 12.0727 5.92688C11.9822 5.83646 11.8596 5.78566 11.7317 5.78566H6.26744Z" fill="#94A3B8"/>
</svg>
