<svg width="18" height="18" viewBox="0 0 18 18" fill="none" xmlns="http://www.w3.org/2000/svg">
<path d="M16.5 14.25H1.5V15.75H16.5V14.25ZM3 11.25C3 11.625 3.15 12 3.45 12.3C3.75 12.6 4.125 12.75 4.5 12.75V4.5C4.125 4.5 3.75 4.65 3.45 4.95C3.15 5.25 3 5.625 3 6V11.25ZM10.125 4.5H7.875C7.875 4.2 7.95 3.9 8.175 3.675C8.4 3.45 8.625 3.375 9 3.375C9.3 3.375 9.6 3.45 9.825 3.675C9.975 3.9 10.125 4.2 10.125 4.5ZM5.25 4.5V12.75H12.75V4.5H11.25C11.25 3.9 11.025 3.375 10.575 2.925C10.125 2.475 9.6 2.25 9 2.25C8.4 2.25 7.875 2.475 7.425 2.925C6.975 3.375 6.75 3.9 6.75 4.5H5.25ZM13.5 12.75C13.875 12.75 14.25 12.6 14.55 12.3C14.85 12 15 11.625 15 11.25V6C15 5.625 14.85 5.25 14.55 4.95C14.25 4.65 13.875 4.5 13.5 4.5V12.75Z" fill="#94A3B8"/>
</svg>
